<svg viewBox="-41.5 0 339 339" xmlns="http://www.w3.org/2000/svg">
    <path d="m180 281 45-18.4.8-15.9 7.8-16.1 1.8-17.9 8.8-26.9 9.7-22.5-.7-5.4-1.5-4.9 1-5.6-1.7-6.6 1-4.6-8.8-10.8-39.2 13.7 1.8 5.2-3.7 6 3.4 10.6-5.4 10.5 7.6 22.8 16.2 8.5c-.8.3-20.6-1.7-20.6-1.7l4.7 9.5-5.4 15-6.4 3.2-5.4 1.7-10.5 12.2-7.8 19.3 6.6 19h1ZM14.6 145.9l40 4.5 5.1 25.4-8.6 20.5 4.8 3.6 8.4 23.2 9.7 10.8 6.7 4 12 11.4 13.7 10.2-4.9 10.5.8 7.9-1.6 4.3-3 8.4-28.8-8.4.8-4.9-4-5.4 1.3-5.1-39.4-28.9-3-7.3-8.6-2.7-.3-61.8-3.5-8.9 2.4-11.3Z" fill="#7D6A4C" />
    <path d="m217.5 191.5-2.2-.3h-.7c-1 .2-1.1.6-1.3 1.1l-.2.9v.3l5.9 2.2c0-1.8.6-3.7-1.5-4.2Zm-1.5 20.2.3.3.2.5 2.5 3.1v.2c0-.9.5-2.9 0-3.6-.7-.8-2-.6-3-.5Zm17.1-21c-.4 0-.6.6-.1.7.4 0 .5-.5.1-.6Zm0-36.9c.1 2 0 3.2 2.3 3.2s3.8.2 4-2.4c0-.8.2-2.6-.5-3.2-.6-.6-2.1-.3-2.9-.4-2.5-.2-3 .3-2.8 2.8Zm-7.5 16.2c.4-.5.1-1.8 0-2.4 0-.6.1-2.3-.3-2.9-.7-.9-4-.6-4.8 0-1 .7-1.2 5 0 5.5.8.2 4.4.6 5-.2ZM97.2 271.4l.1-.3.2-.7-.1-1-.1-.8-.1-.3v-.7l-.1-1.8h-1c-1.2 0-3-.5-4 0-.7.3-.8 1-.8 2v1.5c0 1.2 0 2 1.4 2.4a9 9 0 0 0 3.9 0c0-.2.2-.3.5-.3Zm4-5.1-.6-.2c-.7.3-1.4.4-2.4.4l.1.9V269.8l.1.9.1.7h.6c0-.7.2-1.2.4-1.7l1.8-3.4h-.1Zm-2.6 6.8v.2H98a91 91 0 0 0 0 4.1c.2.6.7.7 1 .8l1.5-.1c-.1-1.8-.7-3.7-1.1-5h-.9Zm.5 6.3c-.3 0-.6.2-.8.4-.4.6-.2 2-.1 2.9v.2c.6-.3 1-.7 1.5-1.1.6-.7.8-1.6 1-2.6l-1.4.2H99Zm82.2-7.6c1.3.1 2.8.3 3.6-.4.3-.3.5-1.5.5-2.7 0-1.2-.2-2.4-.5-2.7-.5-.5-4.6-.6-5-.3-.6.4-.7 1.2-.7 2v2.5l.4 1.2v.3h1.2l.5.1Zm56-80.4c-1.2-.2-3.5-.4-4.1.7-.4.6-.3 4.1.2 4.8.7.8 2.6.6 4 .5h.7l-.3-.6v-.4c-.1-.6.1-1.2.4-1.7v-.2c-.5-1.5 1.2-2.8-1-3.1ZM31.4 156.7c1 .5 4.7.5 5.2-.6.4-1-1-5 .9-5.2-.5-.3-1-.3-1.4-.3-1.4 1-4-.7-5.2.7-.7 1-.6 4.8.5 5.4Zm187.3 102.8c-.3-.3-.6-.5-1.1-.5-1.1-.2-3.4-.4-4 .6-.6.7-1 4-.3 4.8.4.5 1 .6 1.6.6h2.5l1-.1.4-.2v-1.2c-.2-1.4-.2-2.7-.2-4ZM201 252h-.3.3c-1.9.1-1.5 2-1.4 3.3 0 2-.2 2.7 1.9 2.7 1.1 0 3.1.4 3.9-.7.6-1 0-2.8.2-4.1 0-.2 0-.3.2-.5-.3-.3-.5-.8-.8-.8h-.5c-1.2.4-2.4 0-3.5 0Zm-139 .1c-1 0-3.5-.3-4.1.5-.7 1-.3 3.6-.3 4.9l.4.1.2-.3v.3H58l.8.6c1.1-.3 2.3-.2 3.4-.1 1.8.1 1.4-1.8 1.4-3 0-1.6.3-2.8-1.6-3Zm147.8-109h1.4c.2-.3.5-.5 1-.6v-1.1l-.4-2.3c-1.6 1-2.6.3-2 2.9v1.1Zm1 6.8c1.3 0 1-2.8 1-3.6l.2-1.1c-.5-.1-.8-.5-1-1h-1.5c-.7 1.8-2.4 3.4-3.5 4.9v.8c1.5.2 3.3 0 4.8 0Zm14.6 41.7c-.7-.6-4.5-.6-5.1-.1-1.2 1-.1 3.1-.8 4.4l1.4 1 .6.4.2.2.1-.1c.3-.3.6-.2.8 0 1-.5 2.3.3 3-.7.5-.7.4-4.5-.2-5.1Zm-202.8 27c-1-1-3.4 0-4.8-.6-.3 1.6-.8 3-.9 4.6 0 .6 0 1.1.2 1.7 1.7 0 6.2.8 6-1.7-.2-1.2.4-3.2-.5-4Zm202.7-1.4c.9-.8.4-3.5.4-4.5 0-1.6-4-1.5-5-1-1.6.7-.6 3.3-1.2 4.7.1.4.4.9.7 1.1 1.2 0 4.1.6 5-.3Zm12.7-80.6c.9 0 1.3-1.1 1.4-2.2l.2 1v.2c.2.1.1 0 0 0 .6 1 1.6.9 2.3.9 1.3 0 3.1.3 3.6-1 .2-.4.3-3.7.1-4.4 0-.1-.3-.4-.6-.5-.6-.2-1.5 0-2 0-.9 0-2.6-.2-3.1.6-.3.4-.5 1-.5 1.8-.1-.7-.2-1.2-.4-1.5-1-1.6-3-.1-3.9-1.2l-.6.2c-.1.6-.7 1.1-1.3 1l-.2 2.8c0 .7.2 1.4.4 1.8.8 1 3.6.5 4.6.5Zm-165 141.8c1.3 0 2.9.4 3.7-.6.6-.8.6-4.3.2-5-.4-.7-4-.7-4.9-.3-1.3.7-.7 2.7-1 4.1.1.8 1.2 1.4 1.8 1.7h.1Zm114.1-32.9c-.9 0-1 .9-1 1.8v2.5c0 1 .3 1.4 1.7 1.5.7 0 3 .4 3.7-.2l.1-.1c.5-.7.5-2 .7-2.6 0-1-.5-1.9-.5-2.8h-4.7Zm-144.9-6.9c-1 0-3.7-.5-4.5.2-.6.6-.5 3-.4 4.1v.3l1.8 1.4h.7c1.6-.5 3.3.7 3.5-1.7 0-1 .6-4.3-1.1-4.3Zm183.3-31.6-.2-1.3a17 17 0 0 0-4.3-1h-1a9.4 9.4 0 0 0 0 5c.3 1 1 1 2 1 .9.1 2.9.4 3.5-.3.6-.8.1-2 .2-3l-.2-.4Zm-20.1 62.2c0-1 .3-2.1 0-2.8-.6-1-3-.9-4.2-.8-.6.4-.9 0-1.1-.2a8.4 8.4 0 0 0-.6 5.1c.1.5.3.8.6 1h1.4l.8-.3a7 7 0 0 1 2-.1l1.7-.9-.4.1h.4c-.4-.3-.6-.7-.6-1.1ZM185 252.4h-.2.2c-1.4-.4-2.9-.1-4.3-.2l-1.6 3.5c.3 1 0 1.9 1 2.4.7.3 3 .2 3.7 0 2.5-.4 1.1-3.2 1.8-5l-.3-.6-.3-.1ZM50.3 187.6c-.2-1 0-3-1-3-1.1 0-3.4-.3-4.3.2-1 .5-.7 1.9-.7 2.9 0 .9-.4 2 .4 2.7.7.6 2 .6 3 .8a16.9 16.9 0 0 1 1.8-2l.8-1.6Zm46.5 91.8c-1-.5-2.9-.4-4-.2-1.1.3-1.2.6-1.3 1.8 0 .8-.4 3.2.2 3.8.6.7 3.3.4 4.1.4.4-1 1.3-1.3 2-2l-.1-.2c-.3-1 .3-3-.9-3.6ZM219 209.8c.4-1 .4-4-.6-4.6-.7-.4-4.2-.5-4.8 0-.7.6-.4 1.6-.3 2.4v.2l-.1 1.6 1.7 1.6.5.2c1.4-.7 3 .5 3.6-1.4Zm-190.8 8.7c-2.6.3-4-.5-4.2 2.7 0 .9-.4 2.3.3 3 .3.3.7.3 1.1.3.6 0 1-.1 1.4.2h.1c.7-.4 2.2-1.7 2.4-.4v.5c1-1.5 1.6-6.5-1.1-6.3ZM213 142c.1 1 .6 1.2 1.6 1.3 1 .1 3.5.3 4.2-.5.4-.6.2-3.1.2-3.9 0-1.1-.3-1.8-1.7-1.8a35 35 0 0 0-4.4 1.7l.4 2.7c0 .3-.1.5-.3.5ZM65.5 259c-1.4.5-.9 1.8-1 3v.8l.6.6.1.1 2 1.4.2-.1h.5l.7.1c.6 0 1.2 0 1.7-.4.6-.7.1-3.5.1-4.4 0-1.8-3.9-1.4-5-1Zm17 20.1c-.8 0-3-.1-3.6.2-1.4.6-1 2.8-1 4.2v.4c2 .7 4 1 6 1.5v-.3l.1-2c-.1-1.6.5-3.6-1.5-4Zm117-19.5c.4 1.8.5 3.8 1.5 5.6 1-.5 2-.2 3.1-.3 1 0 1.3-.5 1.4-1.4.2-.7.3-3 0-3.7-.7-1.5-4.7-1-6-.2ZM188 244.7c.7 0 1.5-.2 2.4-.1.4 0 1 .2 1.3.6-.2-1.8-.6-3.6-.7-5.3 0-.7.7-3.8-.2-4.1-.2-.1-.6.3-1.1.8-1.4 1.7-3.4 5-4 5.6.6 1.5.2 2.8 2.3 2.5Zm63.7-86.5-1-.5-.3-.1h-1.5c-.6.5-1.3.8-2 1-.2.8 0 2.1 0 2.7 0 .9 0 1.7.7 2.2.6.3 1.8.3 2.8.2l1.4-.2v.9l-1.6-.1c-1 0-2-.1-2.6.2-1.1.6-.6 2-.5 3 0 1.9 0 2.2.7 2.6l1.5.5c.9-2 2.5-3.8 2.5-6.1l.3-1.2 1-4.4c-.6 0-1-.4-1.4-.7Zm-40.9 13-2.8-.1c-.4 1.5-1 3.1-1.2 4.8.5.3 1 .7 1.2 1.2 1.3.1 3.5.4 4.2-.6.3-.5 0-1.6 0-2.2 0-1.3.5-3.1-1.4-3.2Zm-18.7 102.4v.2V273.5c-.2-1.2-1.3-1-2.3-1-.9 0-2.7-.4-3.4.4-.7.7-.7 3.2 0 4.7.1.5.4.9.8 1v.1l5.4-2.3c-.4-.3-.6-.8-.6-1.2 0-.5.2-1 .1-1.6ZM211 232c-1.2.1-2.5.1-3.7-.3-.1 2.2-.6 4.6 0 6.8.1-1.7 4.1.3 5-1.3.4-.8.2-2.8.2-3.7 0-1-.1-1.6-1.5-1.5Zm1.3-80.6c.1-.6-5.7-1.3-6.1.9.7 1.7 1.4 3.4 2.6 4.7l1.3-.4c.3 0 .5 0 .6.2.5 0 1 0 1.4-.4.9-1 0-3.8.2-5Zm15.6 46.8c-2 .5-.4 2-1.2 3.2l.3.3 1.7.6c.7.4 1.3 1.1 1.3 1.8.9 0 2 .3 2.6-.4.4-.6.3-4.6-.2-5.1-.7-.8-3.5-.7-4.5-.4ZM54 226.4c-1 .2-2 .1-3 .1v3.4c.3 1.3 1.3 1.2 2.5 1.2 1.7 0 3.6.4 3.8-1.9-.6-1-1.5-2-2-3.2l-1.3.4Zm-7-15c-1.1 1.6-2 3.2-3 4.9.4 1.3 1.4 1.3 2.5 1.3 1 0 3 .5 3.7-.6.4-.7.3-4 0-4.6-.6-1.3-2.1-.3-3.2-1Zm20 24.5c.3.1.4.3.4.4 0 .3-.2.5-.6.7-.7.3-1.5-.3-2-.4h-.2.1c0 1.6 3.7 1.9 4.8 1.4 1-.5 1-1.5 1-2.5-.6-.1-1-.6-1-1.3v-.5c-2-1.4-3.4-3.4-5.1-5.2.3 2.7-.1 5.6 2.7 7.4Zm144 2.6c-1.2.4-2.5.1-3.7.1v1.5c0 1.5 0 3 .3 4.5 1.7 0 4.5.8 4.8-1.3l.2-2.2c0-1.2-.3-2.6-1.6-2.6Zm.3 19.6c1.4-.5 1-1.6 1-3 0-1.1.6-2.9-1-2.9-1 0-2 .2-3-.3l.6 3.9-1.5-1.4-.9-.9v.5c-.1 1.2-.5 3.4.4 4 .5.4 3.8.3 4.4.1Zm-.7-32.8c-.9-.3-1.9.3-2.5-.6-.8 2.2-.9 4.4-.8 6.7 2.1-1 5 1 5-2.2.1-.4.3-1.4.3-2.3 0-.4 0-.8-.2-1-.4-.7-1.1-.6-1.8-.6ZM38 205c-1 .6-.7 2.4-.6 3.4 0 2.8 1.2 2.4 3.7 2.4.9-1.7 1.5-3.7 1.8-5.6-1-.4-4-.7-4.9-.2Zm206.1-26.5H243.4h.6-.6c-.4 0-.6-.3-.6-.6v-.1c-1.6-.2-3.2-.1-3.3 1.6v1.1c0 1 0 2.2.4 2.8.2.3.5.5 1 .6 0-.2.2-.2.4-.2h1.9c-.2-.3-.6-.3-1-.4.5.1 1 0 1 .4h.4c.8-1.7 1.7-3.2 2.3-4.9l-1.6-.2ZM92 252h-.1c-.4 1.4-1.1 5.9.8 6.1 1 .1 3.1.3 4.1 0 1.3-.6.4-1.4 1-2.3-1.5-2-3.8-2.7-5.8-3.8Zm135.5-113.4.7-1-1.2.1c-.3.4-.3.8-.3 1.3.4-.4.3-.5.8-.4Zm-.4-2.2.2.1a36.6 36.6 0 0 1 5.1 0c.6-1 .3-2.9.3-3.9h-1.4v-1.1l-1.8.7-.2.2c-.8.8-1.8 1.4-2.8 1.8v1.6h.1c.1.3.3.5.5.6Zm1.6 7c1.4 0 3.6.4 4-1.3.2-1-.3-2.1-.3-3v-1.4h-1.7l-.6.3.3-.3h-2.1c-.3.3-.7.6-.8 1-.5-.2-.4 0-.8.3 0 2.2-.7 4.2 2 4.3ZM194 257.8h1.4l-2.2-6c-.2.4-.3 1.1-.4 1.8-.2 1.1-.2 2.4.1 3.1.2.6.6.9 1 1.1Zm1 1.1h-1.2c-.3 0-.5.1-.7.4-.7.8-.2 3-.2 3.9l.1.8.4.6c.4.2 1 .2 1.9.2 1 0 2.5.3 3.4-.4l.3-.4c-1-1.7-2-3.4-3.2-5.1h-.7ZM50.5 152.7l-6.4-1-6.4-.8c-.3 1.4 0 3 0 4.5 0 1.8 1.1 1.4 2.8 1.3 1.2 0 2.5.4 3-1 .4-1.2-.4-2.4.5-3.8 1 2.4-1 4.8 2.5 4.9.9 0 2.7.3 3.4-.2.7-.6.5-3 .6-3.9v-.1ZM21 217.6c2.5.2 2.2-2 2.1-4 0-2.5-2-1.9-4-2-.6 2-.9 4-1 6h2.8Zm26.3 27.7c-2.5 0-2.6.1-3.3 2.2v.3c1.7 1.3 3.4 2.6 5.4 3.9l.1-.2c.6-.6.9-2 .9-3.3a6 6 0 0 0-.3-2c-.5-1.1-1.6-.9-2.8-.9Zm8.2-68.2.2-2.3-.7-3.7h-2.7c-.9 0-1.1.5-1.3 1.2-.1.5-.2 3.2 0 3.7.5 1.6 2.9 1.2 4.5 1.1ZM184 272.5h-2.8c-.1.1-.2.2-.5.2h-.8c.4 1.4.7 4 1.6 5.4l1.1.2c.8-.3 2.2.5 2.6-1v-.2c.2-.5.3-1.2.3-2 0-1.3-.4-2.7-1.5-2.6Zm27-27h-3.6l.9 6.2c1.4-.6 3.5.5 4-1.4.3-1.2.6-4.9-1.2-4.8Zm1.2-25.2v-.6c0-.4-.1-.7-.6-.7h-.3a4.6 4.6 0 0 0-3 3.2v.2l-.3 2c1 0 3.2.4 4.1-.6 0-.9-.2-1.7 0-2.6v-.9Zm17.6-15.4v.1c.5.7 2.6 3 1.3 3.1-.4 0-1.5-.7-1.8-.9l-2.7-1v.2l.1.4-.1.5c-.1 1.2-.2 2.8.7 3.4.7.5 4 .5 4.7-.1 1-.7.8-3.6.5-4.6-.3-1.4-1.4-1.1-2.7-1Zm-210.2 0c-.2.7-.5 1.4-.9 2l.4 3.6v.3c2.3 0 4 .6 4-2 0-1 .5-3-.4-3.7-.8-.7-2 0-3-.2Zm39.5 27-.2-.2c-1.3.6-2 5-.7 6 .5.4 1.7.2 2.3.2 1.5 0 3.2.2 3.5-1.7-2-1.2-3.4-3-5.1-4.5l.2.2Zm41.7 26.9-.1-.1c-.7.4-1.5 0-2 .7-.5.6-.3 2.4-.4 3.2 0 2.4.8 2 2.1 2.3h.4l1 .3h.2c.7-1.3 1.1-2.3 1-3.1 0-1.1-.7-2.1-2.2-3.3ZM251 145l-.3.2h-.2c-.5.1-1.7 0-2.1.3-.4.4-.4 1.3-.5 1.8l-.2.9-.1.4c1.1.5 3 1.2 3.7.7.3-.2.5-2 .5-2.4l.1-1.3c-.2-.4-.3-1-.3-1.4h-.2c.1.3 0 .7-.4.8Zm-161 113c.8-1.3 1-4.4-.6-4.8l-.7.2h-2.1l-1.6 2.2c.2.6 0 1.3-.4 1.7l-.5.7v.1c1.7.4 5.1.8 5.9-.2ZM211 164.3h-.3l-.8.2c-.2.3-.5.6-1 .6v.3c0 1.7-.4 3.3-.8 4.9 1.5 0 3.5.4 4-1.1.3-1.2.6-5-1-5Zm1.1-3.1c0-.8.4-2.6-.1-3.3-.4-.3-1-.4-1.6-.4l-.2.1-.9.3c1 1.7 1.7 3.5.6 5.3v.1h1.2c.8-.3 1-.6 1-2.1Zm33.9-16c0-1-1.3-1.3-2.5-1.3l-1.8.1c-1.6.1-2 1.7-1.8 3.2 0 .5.2 1 .5 1.5 1.8-1.8 3.8-.8 5.9-.4l-.2-.6c-.2-.8-.1-1.6-.1-2.4Zm-42.2 106.1h.8c-1.4-1.7-1.9-4.2-2.6-6.2-.3 0-.5.1-.7.3l-.2.1c-.2.1-.5 0-.7-.1-.9.1-1.1 1.3-1.1 2.5 0 .9.2 1.8.3 2.3.4 1.6 2.6 1.3 4.2 1.1Zm5.5-67.3c.8-.6 1.8.1 2.5-.7.7-.8.3-3.2.4-4.2 0-1.8-2.5-1.1-4-1v.3c0 .3 0 .6-.2.8l1.3 4.8Zm16.4 35.9v-.3c0-2-3.6-1.3-4.9-1.2 1.2 1.8 1.6 4 2.5 5.9H223c.8 0 2 .2 2.5-.5.6-.7.3-2.8.2-4Zm-173-55.6c-2.4-.2-1.8 2.4-1.8 4 0 2.9 2 1.3 4 2.2l-1.3-7c0 .5-.4.8-1 .8Zm131.9 86.8c.8-.7.5-2 .5-2.8 0-1.4 0-2.1-.5-2.6 0 0-.1-.2-.3-.2H183c-.8 2-1.3 3.8-2 5.8 1 0 3 .4 3.8-.2ZM77 280.4c0 .3 0 .6 0 0 0-.3 0-.2 0 0-.2-1.5-2.4-1.4-4-1.2-.2.2-.4.3-.7.2l-.3-.2v2.2c0 .5.3 1 .8 1.3 1 .7 3.3.8 4.6 1.1l-.1-.3c-.5-1-.2-2-.3-3Zm-25.8-56.6h2.2l1-.5c0-1.3-.3-2.5-.6-3.8l-.6-.8-.2-.4c-.8.2-1.7.2-2 1-.5.7-.2 2.7-.1 3.5 0 .5.1.8.3 1Zm159.9 42c-1 0-3.6-.6-4.5.1-.4.4-.5 1.8-.4 3v1.4l5.3-2.4c.1-.5.3-1 .7-1.3l-.1-.4c-.3-.3-.5-.5-1-.5ZM247.4 143c.4.3 1 .4 1.7.4l.3-.2.7-.2h.2c-.5-.7-.6-1.5-.6-2.3-.2-1 0-1.9.7-2.8l.2-.5c-.5 0-1.1-.2-1.7-.1a3 3 0 0 0-.8 0c-1.4.5-1.2 1.2-1.2 2.5 0 1-.3 2.5.5 3.2ZM51.5 156.4h1.2l-.6-2a4 4 0 0 0-.6-1.3l-.5-.2c.1.7-.1 1.4-.1 2.1 0 .5.3 1 .6 1.4ZM51 161v.1-.1.8-.6c0 2.5.1 2.5 2.7 2.5v-.5l-.8-5.6h-1.2l-.7 1c-.3.7 0 1.6 0 2.3Zm-6.8 34.6H44c0 1 .3 1.5 1 1.7l.2-1v-.2c.5-1.4 1-2.7 1.8-4-1.1.3-2.3.1-2.2 2v-.5l.1.4c0 .6 0 1.3.2 2l-.2-.3a5 5 0 0 1-.1-2.4c.3-1.2 1.3-1 2.2-1.3l.4-.5c-1 0-2.6 0-2.9.2a1 1 0 0 0-.4.5c-.4 1 0 2.6 0 3.4Zm8.7 56.7c-.6 0-1.3 0-1.8.4l-.1.2c1.7 1.5 3.6 2.8 5.5 4.2l.4.2.1-2.3c0-.7 0-1.5-.4-2-.7-1-2.6-.7-3.7-.7Zm-1.1-67.8c.8-2.1 2-4 3.4-5.6l.1-.4v-.3c-1 0-2-.2-3.1.1-2 .5-1.5 4.7-.5 6v.2Zm31.9 74.8a91 91 0 0 1-5.2 5.7c1.3 0 4.3.6 5.2-.5.7-.9.3-3.6.2-5l-.2-.2Zm129.7-39.8v.1l-.2 1.7v2.4c.3.5.6.8 1.3.8h4c-1.5-1.8-3-3.8-5-5Zm-13.8 24.7.4.4.5.2.3-.2.6-.3a3 3 0 0 1-1-1.2l-.1-1c0 .4 0 .7.2 1 .2.4.5.8 1 1.2l.4-.1c-.7-3.5-1-7-1-10.6l-.3.1-.8 4.7-.4 2.1v1.1-.5c1 .6-.3 2.2.2 3Zm-1.8 28.5h-.1c-1.3-.2-3.8-.8-4.7.6-.3.4-.3 1-.3 1.6 0 .6.2 1 .1 1.5l6-2.7c-.3-.3-.5-.9-1-1Zm14.5-85.4c0-2.3-.7-2.1-2.7-2.8a24 24 0 0 1 1.1 5.8c0 .8 0 1.7.3 2.3.2.4.4.7.9.8v-.5l.1-.4c-.3-.6-.6-1-.4-1.9.1-.5.6-.8.8-1.4l-.1-1.9ZM52.9 211.4c-1.6.5-2 1.4-2 3 0 2.1.4 3 2 3.2-.2-.7 0-1.4.5-2l-.5-4.2Zm195.4-75h1.3c.4 0 .8 0 1.3.3l.3-.5c-.7-1.5-3.8-4.5-4.3-5l.1.8-.2 2.3c0 1.9.6 2.1 1.5 2.1ZM35.1 239.2l-2.6-.1a7.4 7.4 0 0 1 1.6 2.6l2.3 1.6s.2.3.2.7v-1.5c.2-1.6.1-3.3-1.5-3.3ZM29.3 225c-.8 2.1-1.9 4-2.4 6.3.7 0 2.1.1 2.6-.3.7-.6.4-1.8.4-2.8 0-1 .3-2.6-.6-3.2ZM53 204.7h-.2c-.6.3-1.3.1-1.6.8-.4.6 0 2-.1 2.7 0 1.9-.1 2.2 1.7 3-.4-1-1-1.6-1-2.6 0 1 .6 1.6 1 2.5 0-2.1 0-4.3.2-6.4Zm-35.5 20.5h-.1c.1.8 2.6 2.2 4.4 2.6l.3-.2.7-1 .3-.5c-.6-1.6-4.3-.9-5.6-.9Zm223.8-40.5h-.2c-.6.2-1 .7-1 2v1.1l.3 3.6 2.7-6.7h-1.8Zm-213 47.2c-.5 0-1 0-1.4-.5-.3.4-.3.8-.2 1.2.1.6.4 1.1.7 1.6l1.2 1.3.4.5.9.8c0-1.7.7-5-1.6-4.9Zm66.2 54H94c-1.3 0-2.5.2-3 1.5l-.2.2c.7.4 2.8 1.6 3.7 1.2.9-.3 1-2.3 1.2-3h-.1l-1.2.2ZM72 238a8 8 0 0 0 3.6 0l-.2-.3H75h.5l-.5-1-3.2-1.6a1 1 0 0 1-.4.3 3.2 3.2 0 0 0 3.2 2.2c-1.5 0-2.7-.8-3.3-2.1h-.2c0 1 .1 2 1 2.4Zm6.3 13c.3.5.7.7.9 1.2-1.4.4-1 1.2-1 2.4 0 .7-.4 1.7-.3 2.6 0 .5.3.9.8 1l.2-.8.3-4.1v-1c.2-.2.2-.4.2-.6v-.2a22.2 22.2 0 0 0 .1-5c-.5 0-.8-.4-1-.8-.3.2-.5.6-.6 1v2.2c0 .7 0 1.5.4 2.2Zm144.7-114.3h.2-.2c1.4-.1 2-.4 2.3-1v-1l-2.2.3-1.6.6-2 .8c1.1.4 2.3.4 3.5.4Zm.3 89.8c.8 1.6 1.3 3.5 1.3 5.6 1.1-.8 1.2-3 1-4.3-.3-1.3-1-1.3-2.3-1.3ZM18.3 148.9v.2c.2 1.2 2 1 2.9 1 1.2 0 1.9-1 3-1.1 0 .7.4 1 1 1 1.6.3 3.2-.2 4.7-.2a29.3 29.3 0 0 0-5.7-.8c-2-.6-4-.6-6-1 .2.3.1.6 0 1Zm192.6 56h-3.2l4.5 3.5v-.7c0-.2 0-.3.2-.4 0-1.2 0-2.4-1.5-2.4Zm-149 54.5c-.6.2-1.4 0-2-.1h-.2l.3.5h.1c.7.8 1.5 1.6 2.3 2.2l.9.2v-.4c0-.4.2-.6.4-.6-.1-1-.5-2-1.7-1.8Zm180.8-129.6h2.8a5 5 0 0 0-2.2-1.8c-1-.4-2.2-.2-3.5.7.7 1 1.8 1.2 3 1.1Zm-195.5 81c1.8 0 3 .4 3-1.7v-2.7h-.3c-1 1.5-2 3-2.7 4.5Zm172.7 16.7c-.1.9-.3 2 0 2.6.3.5 1 .7 1.6.9.3 0 .7 0 1 .2-.5-1.7-1.3-3.3-2.4-4.7 0 .3 0 .6-.2 1Zm-.1 33.1v2.5l.1 1 .6-.5.4-.3v-.6c-.1-1.4.3-3.3.3-4-.8.2-1.2 1-1.4 2Zm27-88v.6c0 .3 0 .2 0 0v2.4a31 31 0 0 0 2.1-4.3c-.8 0-1.3 0-1.6.2-.3 0-.4.4-.5 1ZM89.1 286h-3c1.5.6 3 1.2 4.6 1.6v-.4c0-1-.6-1.3-1.6-1.2Zm134.6-87.8h-.9c1 1 2 1.7 3 2.4.3-2 0-2.4-2-2.4ZM41.7 246h-.2l-.5-.2.3.4c.6.5 1.3 1.3 2 1.6v.3-1c-.1-.8-.6-1-1.7-1.1Zm58.4 12.1-1-1.2c-.3 0-.6-.3-.8-.6v-.1c0 1.8 0 1.8 1.8 1.9Zm-25.9 13.5c2.7 0 2.9-.6 3-3.2v-.5c0-2-.6-2-3-2-2.1 0-2.9 0-3 2.4v.7c0 .8 0 1.3.3 1.8.2.4.5.6 1 .7h1.7Zm-27-107.3H47c-2.2 0-2.5.5-2.5 2.9v.1h-.1c0 2.4.3 3 3 3 2.6 0 2.9-.4 3-3 .1-2.5-.5-3-3-3Zm-2.9 71.4c0 1.2 0 1.8 1.3 2 .9.2 2.4.2 3.3 0 1.7-.2 1.3-1.6 1.3-3 0-2 0-2.8-2-2.9-1 0-2.9-.3-3.6.3-.8.8-.3 2.6-.3 3.6Zm-4-10.5c-2.5 0-2.7.3-2.7 2.8 0 2-.1 2.9 1.9 3 1 0 2.7.4 3.4-.1.8-.6.6-2 .7-3v-.3c0-2-1-2.4-3.2-2.4Zm48.4 40.4c-.8 0-2.9-.3-3.5.2-.9.8-.4 2.9-.4 3.8-.2 2.3 1.6 2 3.4 2 1.6 0 2.4-.1 2.5-1.8.2-2 .5-4.2-2-4.2Zm-58-97.8c0 2.7 1.3 2.5 3.8 2.4 1.9 0 2-.6 2-2v-.1l.1-1.1c0-2.7-.4-2.7-3-2.7-2.5 0-2.9.6-2.9 2.8v.7Zm3 43c2.5.2 3-.2 3-2.7v-.4c0-2.3-.4-2.8-3-2.8-2.5 0-2.8.4-2.9 2.9v.8c0 1.8.6 2 3 2.2ZM84 268.8c0-2 .1-3-2-3-1-.1-2.6-.4-3.4.2-.4.4-.5 1-.5 1.6v1.8c0 1.8.5 2.1 2.3 2.2a3 3 0 0 0 .7 0c2.6.1 3-.2 3-2.8Zm-39.7-87.2c0 2.5 1.3 2.3 3.6 2.2 2.3 0 2.4-.4 2.4-2.6 0-2.7 0-3.4-3-3.3-2.9.2-3 .8-3 3.7Zm-7.5 33c-.3-2.5-.6-2.9-3-2.9-2.6 0-3 .4-3 3 0 2.3.4 2.7 2.5 2.9h.5c2.7 0 3.2-.4 3-3Zm3.6-44c2.7 0 3-.5 3-3.1 0-2.7-.4-3-3-3s-2.8.6-2.8 3c0 2.7.1 3 2.8 3ZM88 264.8c2.5 0 2.8-.4 2.8-2.9 0-2.2 0-3-2.4-3h-1c-2 0-2.7.3-2.7 2.9h.1c0 2.7.4 3 3.2 3ZM40.4 157.7c-2.7 0-2.9.7-3 3.3v.2c0 2.4 1.1 2.4 3.5 2.4s2.5-.8 2.5-2.7v-.8c0-2.5-.6-2.4-3-2.4Zm56.9 101.8c-.5-.8-1.7-.5-2.5-.4-2.6 0-3.7-.5-3.7 2.5 0 2.8.5 3.3 3.3 3.3h.4c2 0 2.5 0 2.6-2.4l.1-2c0-.4 0-.8-.2-1Zm-20.1 1.7v.8c0-2.7-.4-3.2-3-3.2-2.5 0-3 .5-3 3 0 2.2.2 3 2.5 3l.7.1c2.2 0 2.8-.3 2.8-3v-.7ZM54 238.7c-2.6 0-3 .4-3 3 0 2.9.6 3 3.5 3 2.3 0 2.4-.8 2.4-3 0-2.5-.4-3-2.9-3Zm6.8 6.8h-1c-1.6 0-2 .3-2 2.3-.1 2.8-.2 3.7 2.8 3.8.7 0 2.2.3 2.8-.4.5-.7.2-2.6.2-3.4.3-2.6-.5-2.3-2.8-2.3ZM33 197.4H34.6c1.6 0 2-.4 2-2.5 0-2.8-.5-3.6-3.3-3.5-2.6 0-2.6.7-2.6 3 0 2.5.2 2.9 2.3 3Zm14.3 41.5c-2.6 0-3 .3-3.1 2.9v.4c0 2.3.6 2.5 3.2 2.5s2.7-.6 2.8-3.1v-.4c0-2.2-.4-2.7-2.9-2.3Zm2-13.3c-.4-.2-1-.2-2-.2-2.4 0-3.2 0-3.1 2.4 0 2.6.3 3.4 3 3.4 2.6 0 3-.4 3-3.1a43.8 43.8 0 0 1-.2-1.7c-.4-.2-.5-.5-.6-.8Zm-5.1-66.3c-.1.7-.3 3 .1 3.6.6 1.2 3 .8 4.3.7 2-.3 1.6-2 1.6-3.6-.1-2.4-.8-2.4-3.2-2.2-1.6 0-2.6-.7-2.8 1.5Zm22.3 85.4c2.1 0 3.8.3 3.9-2 .2-2.7.2-3.7-2.6-4-2-.1-3.2-.3-3.3 2-.1 2.1-.4 3.8 2 4ZM48 218.4h-1c-2.8 0-3 1.5-2.8 4.2.2 2.2 1.8 1.8 3.7 1.8.9 0 1.6 0 2.1-.6.5-.8.3-2.6.3-3.4-.1-1.8-1-2-2.3-2Zm24.8 20.3c-1.9 0-1.5 1-1.5 2.6 0 1.2-.5 2.8.9 3.3.7.3 3.4.3 4.1 0 1.2-.5.9-1.8.7-2.9l.2-1.3v-.7l-.9-1c-.9-.3-2.7 0-3.5 0Zm13.8 40.5c-2.3.3-2 2-1.9 4 .2 2.3 1.7 2 3.6 2 2.6 0 2.6-1 2.3-3.4-.3-2.7-1.4-2.8-4-2.6Zm-39.4-108c-2.4 0-2.9.4-3 2.8v.9c0 1.9.5 2.2 2.9 2.2 2.6 0 3-.3 3-3 0-2.5-.4-3-2.9-3Zm-13.5 19.4c2.6 0 3-.5 3-3 0-2.6-.1-3-2.9-3-2.6 0-3 .4-3 3s.4 3 3 3Zm40.7 55c-.9 0-2-.2-2.7.5-.4.6-.4 2.3-.5 3-.2 3 1.5 2.3 4 2.2 2 0 2-.3 2-2.4 0-2.6 0-3.3-2.8-3.3Zm-48.1-28h1.3c1.2 0 2.1-.1 2.3-1.7.2-2.2.5-4.2-2-4.2h-2.2c-.6 0-1.1 0-1.4.2-.6.5-.3 1.8-.2 2.6H24c0 2.4 0 3 2.3 3Zm2.2-26.2c-1 0-3-.4-3.9.1-1 .6-.5 2-.5 3 0 2.4-.1 2.8 2.4 2.9 1.3 0 2.7.3 3.2-1.1.6-1.4.8-5-1.2-5ZM97 272.9v-.1c-.3-.2-.8-.4-1.4-.4h-1.1c-1 .1-2.5-.3-3 .9-.3.6 0 2.5 0 3.2 0 2 .9 2 2.6 2 1.1-.1 2.2 0 2.8-.5v-5.1Zm-42.9-41c-2.8 0-3 .7-3.1 3.5-.2 2.3.6 2.5 2.8 2.5 2.3 0 3-.2 3-2.5.1-2.7 0-3.4-2.7-3.4Zm-20.3 6c2.5 0 2.6-.7 2.8-3.1.2-2.6-.3-2.9-2.8-2.9-3 0-3.1.8-3.1 3.7 0 2.5.7 2.3 3 2.3Zm9.6-58.5c0-.8-.3-1.4-1.4-1.4-1.6 0-4-1-4.5.9v1l.1 2v.4c0 .4 0 1 .3 1.2.7.7 3.8.6 4.6.2.8-.3 1-.8 1-1.4l-.2-1.3.1-1.6Zm-9.9-15.8h.7c2.3 0 2.5-.3 2.5-3s-.8-3-3.5-3c-2.3 0-2.5.8-2.5 3 0 2.5.4 3 2.8 3Zm2.8 55c-.7-.5-2.4-.1-3.2-.1-2.3.1-2.5.3-2.4 2.6 0 .6-.2 2.5.4 3 .5.6 1.8.3 2.5.3h.9c2-.2 2.3-.8 2.2-3.4 0-.5.2-1.9-.4-2.4Zm-5.6-44.1c0 .7.2 2 .8 2.5.8.5 1.8 0 2.6.1h.4v.1c.1-.2.3-.3.6-.3h1c.3-.8.7-1.6.7-2.2 0-.9 0-2-.4-2.7-.7-1.4-2.6-1-4-.8-1.7.3-1.9 1.5-1.7 3.3Zm1 9.3c1 .4 4.2.5 4.9-.7.2-.4.3-1.2.3-2.2 0-1.1-.2-2.5-.7-3h-1.5c-1.3-.1-3.4-.4-4 .8l-.2 1.8c0 1.4.3 3 1.2 3.3Zm29 55c-1.4 0-2.6-.4-3 1.2-.2 1-.3 3.5.5 4.3.7.7 3.1.5 4 .4 1.7-.2 1.5-1.5 1.4-3 .3-3.5 0-3-2.9-3Zm6.7 19.3c2.5 0 3-.3 3-2.8s-.2-3-2.7-3c-2.5-.1-3.2 0-3.2 2.6 0 2.7.1 3.2 2.9 3.2Zm-29.6-73.2c-.7.7-1 3.2-.8 4.1 0 1.8.3 1.8 2 1.8v-.2h2.5c1.3 0 1.5-1.2 1.5-2.2 0-.8.6-3 0-3.5-.7-.5-4.5-.6-5.2 0Zm-1.1 15.8c0-1.4.4-2.6-1.4-2.5-2.6 0-4.3-.7-4.5 2.4-.1 2.6-.1 3.5 2.6 3.5.7 0 2.3.3 3-.3.6-.6.3-2.3.3-3.1Zm38 57.6c2.3 0 2.5-1 2.5-2.8v-.8c0-2.4-.5-2.5-3-2.5-2.7 0-2.6.5-2.8 3l-.2 1.6c0 .5.1 1 .4 1.3.7.5 2.4.3 3.1.2Zm-34-26.4c-2 0-3.3-.2-3.2 2 0 .5.3 1.1.3 1.7 0 .3-.3 1-.2 1.3.4 1.4 2.8 1 4 1 2.3-.1 1.8-1.3 1.9-3.2 0-2.5-.3-2.8-2.9-2.8Zm-15-48c1.3 0 3.8.5 4.2-1.2.2-.9 0-2.3 0-3.3.1-.8.3-1.4-.8-1.4-1.2 0-2.4.2-3 0-2-.3-2.1.6-2 2.3 0 1.8-.6 3.4 1.5 3.5Zm63 88.6c-1 0-2.7-.4-3.4.1-1.1.8-.4 2.4-.4 3.5v.8-.5c-.2 2.5 1.4 2.1 3.9 2 2.2-.1 1.8-.8 1.9-2.8 0-2 0-3-2-3ZM28.1 171.2c-1 0-2.2-.2-3.1 0-1.5.3-1.2 1.9-1.2 3 .1 2.4 0 2.7 2.3 2.7 1.6 0 3.2.9 3.7-1 .3-1.6.5-5-1.7-4.7Zm-4.4-17v1.3c.3 1.3 1 1.5 2 1.5h.5c3 0 3.5 0 3.5-3.2 0-1.2 0-2.1-1.2-2.6-1-.3-3.4-.9-4.2 0-.4.5-.6 2-.6 3Zm5.8 14.3h.3c0-1.4.3-3-1.1-3.6-1-.3-4.3-.6-4.7.5-.2.6-.1 2-.1 2.6 0 .5-.2 1.4 0 1.8.4 1 1.2 1 2.2 1 2.6-.2 3.4.7 3.4-2.3Zm-4.8 42.2c.7.4 4 .5 4.6 0 1-.8.5-3.7.5-4.8 0-1.4-2.1-.9-3.1-1-.8 0-2.1-.3-2.7.5-.6.9-.3 4.8.7 5.3Zm-7-54.3c.2.2.6.4 1.3.4.9 0 2.8.4 3.5-.2.9-.6.5-2.2.5-3.2s.3-2-.7-2.5-3.5 0-4.6 0c-.2.3-.3.6-.3 1l-.2 2.5.4 2Zm52.6 91c0-2-.8-2.1-2.9-2.1-2.2 0-3 .2-3 2.2v.5c0 2.7.3 3.3 3 3.4.6 0 2.1.2 2.6-.4.3-.2.3-.9.3-1.5v-2.1Zm-27-52.3c0-2.3.2-3.6-2.3-3.7-2 0-3.3-.5-3.5 1.7-.3 2.6-.5 3.7 2.3 4.1 2.4.3 3.4.6 3.5-2.1ZM27 198.3c-3 0-2.8.7-3 3.3v.8c0 1.8.7 2 3 1.9 2.2 0 2.9-.4 2.8-2.3v-.4c-.1-2.5-.3-3.3-3-3.3h.2Zm5 32.8c1.4 0 3.3.4 3.9-.9.3-.8.7-2.4.5-3.2-.5-2-2.4-1.9-4-1.8-2.3 0-2.2 2.8-2.2 4.4 0 1.8.5 1.5 1.9 1.5ZM24.6 191c.9.5 4 .1 4.8-.5 1-1 1.4-6-.7-5.8-1 0-3.4.1-4.2.7-.8.5-.5 2.4-.5 3.4s-.2 1.7.6 2.2Zm17.9-19.7c-1-.4-4.1-.4-4.7.5-.4.7-.3 2.6-.2 3.6 0 .9.1 1.7 1.3 1.7.8 0 3.1.3 3.8 0 1-.6.8-2 .8-3.1 0-1.2.2-2.3-1-2.7Zm1 29.5c0-1.7-.3-2.6-2.4-2.6-1.8 0-3.7-.4-3.7 1.9.3 2.4.4 4 3 4H40 41.7c.6 0 1-.2 1.2-.5.4-.4.5-1 .6-2v-.8ZM82 272.5h-.3c-2.2 0-3.2 0-3.4 2.4-.2 2-.5 3.6 1.9 3.6 1.8 0 3.6.1 3.8-2 .3-2.3.4-4-2-4Zm-30.9-24c.2 2.5 1 2.8 3.3 2.9 2.2.1 2.8-.5 2.7-2.7-.3-2.6-.6-3.3-3.2-3.2-2.6 0-3 .5-2.8 3Zm-31-85.1c.4.3 1.9.3 2.3.1 1.2-.5 1.4-5.8 0-5.8-1.5 0-3-.3-4.4.3l1.4 2.4c.7.8-.2 2.3.7 3Zm1.3 21.3c-2.3 0-2 1.3-2 3.3 0 2 .2 3 2.5 2.6 1.9-.3 1.3-2.1 1.3-3.7 0-1.7 0-2.2-1.8-2.2Zm.6 6.7a10.6 10.6 0 0 0-.7 0h.1c-.9-.2-1.5 0-1.9 1-.3 1-.4 4 .4 4.8 1.2 1 3.1 0 3.3-1.2.3-1.4.6-4.3-1.2-4.6Zm-.8 12.7c2.7 0 2-2.3 2-4.5 0-1.3-2.4-2.1-3.3-1.3-.6.5-.6 1.7-.5 2.7.5.9.7 1.9.5 3l1.3.1Zm2-25c0-1.2-1.5-1.4-2.5-1-1 .5-.8 1.5-1.3 2.5v1c.1 1.7.3 2.3 2.2 2.2 2.4 0 1.6-2.7 1.6-4.6Zm-3-8.3c.4.2 2 .3 2.4 0 .5-.3.8-1.7.8-3s-.3-2.6-.9-2.8c.1 0 .1.1 0 .1v-.2H22l-.1-.1h.1c-2-.2-2.3 1.8-2.3 3.7 0 1-.3 1.7.5 2.3Zm1.6.3c-1.2 0-1.9 0-2 1.3-.2 1.2-.6 4.1.7 4.7 1.3.5 2.5-.3 2.7-1.4.3-1.4.7-4.5-1.4-4.6Zm16 52.8c.6.9 4.2.8 5 .4 1.4-.8.8-4.8.4-6.1l-2.7 5.2h-.3v-.4l.5-10.3.4-1h-.2l-.5.3-.3-.3h-2.7c0 .2 0 .2-.2.3-.5 1-.3 3.8.1 4.8.5 1 2 .8 2.9.8-.1 1.3-1.1.5-1.8.7-1.1.4-.2.2-.4 1-.2 1-1.1 3.6-.3 4.6Zm178.8-67.5c.2 0 .4.2.5.4h.7c1.2-.2 1.3-.6 1.3-1.8 0-.8.3-2.3 0-3.1-.4-1.1-1-.8-2.1-.8-2 0-3.7-.9-3.7 1.5 0 1.2-.4 3 .3 4l3-.2Zm2.1 1.4c-.2-.2-1.8 0-2.5-.2h-2.4c-.7.7-.7 1.6-.5 2.5.3 1.8-.8 3.3 1.7 3.5 1.7 0 3.8.6 4.2-1.3 0-1 .4-3.9-.5-4.5Zm19.3 26.9H235c-.5 0-1 0-1.4.3-.7.7-.3 2.6-.3 3.5-.1.5-.3.7-.4.7-.2 0-.4-1.3-.4-1.8 0-2 0-2.6-2-2.7H229c-1 0-2.1.1-2.5 1.2-.3 1-.2 4 .8 4.6 2 1.2 5-.9 7 .1 1 0 3.3.4 4.2 0 .9-.5.8-1.3.8-2.3 0-.7.5-2.5 0-3.1-.3-.5-1-.5-1.5-.5Zm-4.6-36.5v-.5l.2.5c0 1 0 1.6.9 2h1.2l2.3-.2c.9-.2 1.3-.9 1.4-1.6v-.8c.3-.8 0-1.6-.1-2.2-.1-1-.7-1.4-1.6-1.5l-2.2.3c-1.8.3-1.9 1.3-2.2 2.7l.1 1.3Zm-3.7 69.4c2.5 0 3-.3 3-2.8 0-2.7-.4-3.1-3-3.1-2.7 0-3 .5-3 2.7v.8c0 2.3.8 2.4 3 2.4Zm-6.3-66.7c-2 0-3.3-.4-3.5 2v1.4c0 1.5.3 2.6 2.2 2.6 2.2 0 3.7 0 3.8-2.4v-1.3c0-1.6-.3-2.3-2.5-2.3Zm5.2 46.5c.8 0 2.8.2 3.5-.3 1-.7.6-2 .6-3V193.3v.2c0-1.4-.3-2-2-2-1.6 0-3.5-.3-4 1.3-.4 2-.4 4.5 2 4.7Zm-14-47.4c1.4 0 4.2.6 4.2-1.2h.2l.2-.7c0-.9.4-3.3-.6-3.7-.5-.7-3-.8-4.4-.2h.3l-.6.1-.2.1c0 .3-.3.5-.5.7-.5 1.1-.4 2.8-.5 3.8-.3 1.6 1 1.1 2 1.1Zm21.6 7.6c-1 0-2-.1-2.5.8-.4.7-.3 2.5-.3 3.3.2 2.3 2.1 2 4 1.8 2.5 0 2-1.6 2-3.8 0-2.3-1-2-3.2-2Zm-11.6 27.2c-.5-.1-1.6-.3-2.5-.3-.8 0-1.5 0-1.8.5-.7.7-.5 3.5-.3 4.4.4 1.1 1.2 1.2 2.2 1.2h2.4c.4 0 .7 0 1-.3.6-.6.1-2.1.2-2.9v-.8.2h.1v-.1l.1-.2c0-.3 0-.2 0 0 0-1 0-1.5-1.4-1.7Zm5.9-28c2 0 2.2-.6 2.2-2v-1.1c0-2.7-.4-2.8-3-2.8s-3 .4-3 3v1c0 .7 0 1.4.5 1.7.8.6 2.4.3 3.3.3Zm-12.2 14.4c-.8-.3-2.7-.1-3.4 0-1.2 0-1.5.2-1.7 1.5v3.5c.3.8.8.9 1.5 1v-.2h.7c1.4 0 3.4.6 3.8-1.1v-.3l.2-1.6c0-1.2-.3-2.4-1.1-2.8Zm2 12.5c.9.7 5 .8 5.4-.5.3-.6.2-1.5.2-2.2 0 .7 0 1.5-.3 2.1.3-.8.4-4 0-4.7-.3-.5-4.4-.6-5-.4-1.1.5-1.6 5.1-.2 5.7Zm9.3-5.8c-2.8 0-3 .7-2.9 3.5.1 2.5 1 2.4 3.4 2.4 2.6 0 2.6-.4 2.6-2.9 0-2.6-.4-3-3-3Zm3-32.9c-.6-.8-1.6-.5-2.6-.9-2.6 0-3.2-.2-3.3 2.6v1.1c0 1.5.3 2.1 2.3 2.2 2 0 3.5.5 3.7-1.8v-1.8c0-.5 0-1-.2-1.4Zm-18.2 38.8c.3 0 .9.3 1.5 0h1c.9 0 1.6-.1 2-1.2.2-.8.3-3.7-.2-4.3-.4-.4-1.2-.6-2-.6-1 0-1.9.1-2.3.3-1.5.4-1.4 1.7-1.4 3v.1c0 2.4 0 2.8 1.4 2.7Zm30.3-46.3h-.7c-2.2 0-3.7-.5-3.8 2-.1 2.8-.1 3.7 2.7 3.7.8 0 2.4.4 3-.3.6-.6.4-2.7.4-3.5-.1-1.5-.4-1.9-1.6-2ZM220.1 158c-.6.6-.2 2.2-.1 2.9 0 1.2-.4 2.6 1.1 2.7 1.8 0 4.3.8 4.7-1.4.2-1 .4-3.8-.6-4.5-.7-.5-4.5-.2-5 .3Zm19.3 15c-.1-2-1-1.8-3-1.8-2.6 0-3 .3-3 2.9v.3c0 1.7 0 2.5 2 2.7 1 0 2.7.3 3.5-.4.4-.5.5-1.2.5-2V173Zm-9.7-1.8c-2.6 0-3 .4-3 3-.1 2.6.3 3 3 2.9 2.7 0 2.9-.6 2.9-3.1 0-2.6-.2-2.8-2.8-2.8Zm-10.9-6.4c-.4-.7-2.1-.4-2.8-.4-2 0-2.8 0-2.9 2.2-.1 2.3-.4 3.7 2.2 3.8.7 0 2.8.4 3.4-.1.6-.6.4-2.7 0-3.3-.4-.7.6-1.6.1-2.2Zm-2.2 19.8c-2.2 0-3.4 0-3.5 2.5 0 2.8 0 3.5 3 3.5 2.6 0 3-.4 3-3 0-2.3-.2-3-2.5-3Zm6.3-13.4c-2.4 0-3-.3-3 2.3 0 2.5.1 3.7 3 3.6 2.8 0 3-.7 3-3.5 0-2.5-.6-2.4-3-2.4Zm0-33.8c-.8 0-2.3-.3-2.8.4-.5.6-.2 2.5-.2 3.2.2 1.8.3 2.2 2.1 2.3.7 0 2.2.2 3-.1 1.2-.7.9-2.8.8-4 0-2-1-1.8-2.9-1.8Zm21.6 33.7c-2.5.2-4.2-.7-4.2 2.3 0 2.7-.2 3.7 2.9 3.7h1.6c.6-.2 1.1-.5 1.3-1.4l.2-1.9c0-1.4-.3-2.8-1.8-2.7Zm-20.5-27c-3.3-.2-4 .4-4 3.7 0 2.2.7 2.4 2.8 2.4h.5c1.4 0 2.4-.2 2.6-2v-2c0-1.2-.3-2-2-2Zm10 39.5c.8.5 3.8.6 4.6.2.7-.3.8-.9.8-1.5V180.5c0-2.6-.2-2.6-3-2.6-1.9 0-2.6 0-2.9 2l-.2 2c0 .7.1 1.4.7 1.7Zm-7-20.3c.6.7 3.6.4 4.4.3 1.6-.4 1.2-1.7 1.2-3.1-.1-.8.3-1.9-.3-2.5-.7-.8-1.5-.1-2.3-.2-1.5-.1-3-.5-3.3 1.2-.1.7-.4 3.8.2 4.3Zm12-20.4c.6-.7.3-2.7.3-3.4 0-1.3 0-2.3-1.7-2.1-1.5 0-3.2-.6-4 1-.3 1-.6 4 .4 4.7.8.5 4.4.5 5-.2Zm-1.3 21.5c-1 .1-2.7-.5-3.6.2-1 .7-.7 2.3-.6 3.2.2 2.5 1 2.5 3.4 2.5 1.5 0 2.2.2 2.4-1.4.2-1.5.8-5-1.6-4.5Zm-6.9 54c-1.6 0-3.8-.6-4.2 1.3-.1.9-.3 3.1.1 4 .7 1.5 5.2 1 5.6-.7.4-.8.4-2.1.2-3-.1-1.3-.3-1.5-1.7-1.6Zm1.7-53c-.4-1.6-2.5-1-4-1-2 0-2 1-1.8 2.5l.1.7c.3 1.3-.6 2.3 1 2.8.7.1 3.3.2 4-.2 1-.5 1-3.7.7-4.8Zm8 4.3c.6 1 3.9 1 4.8.6 1.4-.7.8-3.6.7-4.9 0-1.3-4.6-1.5-5.5-.6-.7.8-.7 4.2 0 5Zm4.8-11.2c-1.4.3-3 0-4.5.2h-.6c-.3.9.1 2.6.2 3.5.2 1.7 1.2 1.4 2.9 1.4 1.1-.2 2.3.4 2.7-1 .2-.4.2-1.9.2-2.4 0-.7 0-1.2-.3-1.5-.2 0-.4 0-.6-.2Zm-17.1 66.7c-2.1-.3-1.4 2.2-1.5 3.4-.1 3 1.2 2.3 3.7 2.5a9.6 9.6 0 0 0 1.7-6c-1.4.1-2.7.3-4 .1Zm12.4-74.3c-.7.7-.8 4.3-.3 5.3l.5-.2h2.5c.6 0 1.8.1 2.3-.3l.4-.2v-.1a9 9 0 0 0-.1-1 43.3 43.3 0 0 0-5.3-3.5Zm-2.4 47.3-1-.1c-1-.1-2.5-.2-3.2.2-.9.6-.5 1.6-.5 2.5 0 1-.5 2.4.3 3 .4.5 1.4.5 2.1.2l.8-.4 1.6-5.1V198.2Zm-4.8 8.8c0 1.1-.4 4.6 1.1 3.2l.2-.1c.6-1.6.4-3.4 1.4-4.8l-.5-.2c-1.7-.6-2.2-.1-2.2 2Zm-7.6 30.6v-.9l-.2-4.2c-.1-.3-.3-.4-.6-.6-.2 1.3.5 2.5.1 3.7-.6-.1-1-.7-1.3-1.3-.3-.8-.5-1.8-1-2.4h-.8c-1.5.1-2.1.5-2.1 2.4 0 1-.4 2.8.4 3.4 1 .7 4.4.3 5.4 0h.3v-.3l-.2.2Zm1-4.9c0 1.5.1 3 .3 4.4l.3-.6c1-1.4 1.8-3 2.5-4.5h-1.6c-.8-.1-1.3.2-1.5.7Zm-10.5 12c2.5 0 2.8-.5 2.8-3 0-2.7-.2-2.8-3-2.8-2.6 0-3 .2-3 2.9 0 2.7.5 2.9 3.2 2.9Zm-6.8 14.3c-1 0-2.3-.3-3 .7-.4.8-.2 2.4-.1 3.3.1 1.7.8 1.9 2.3 2H209.3c1.6 0 2.8.3 3-1.4.1-.8.3-2.9 0-3.6-.5-1.3-1.7-1-2.8-1Zm6.6-21.1c2.6 0 3-.6 3-2.8v-.7c0-2.4-.8-2.5-3-2.5-2.5 0-2.9.5-2.9 3 0 2.6.3 3 3 3Zm.7-12.7c-2.8 0-3.3 0-3.6 2.7-.2 2.6 0 3.2 2.4 3.2H216.8c2 0 2.3-.3 2.3-2.8 0-2.2.1-3-2.3-3.1Zm.6 27-2.2-.1c-.7 0-1.3 0-1.6.3-1 .9-.4 2.7-.4 3.8v.5-.4c-.2 2.4 2.6 2 4.4 1.9 1.9-.2 1.5-1.6 1.5-3.3 0-1.7.2-2.6-1.7-2.7Zm0-6.7h-1c-2 0-3.2-.3-3.3 1.9 0 .8-.2 2.1 0 3 .3 1 .8.9 2 1 1.8 0 3.8.6 4-1.6 0-1.5.4-4.4-1.6-4.3Zm7.2-6.6c-2.4 0-4.7-.9-4.7 2.1v.3c0 2.6.3 3.4 3.2 3.4 1-1.7 2-3.3 2.7-5.1-.1-.7-.6-.7-1.2-.7Zm-4.7 8.5c0 1.7-.7 4.4 1.8 3.8.3-2 0-4 1-5.7h-.7c-1.4 0-2.1.1-2.1 1.9Zm.7 5c-1.3 0-1.5 5.9.6 5.8.4-1.6.3-3.2.3-4.8 0-.5-.2-1.1-1-1Zm-28.8 7.2c-.5-.8-1.6-.7-2.4-.6h-.2c-2.5 0-3.1 0-3.1 2.5 0 2.8 0 3.4 2.8 3.4h2c.2-.5.5-.9 1-1l.2-1.4c0-.7.2-2.3-.3-3Zm-.7 6.3c-.4-.1-1.1-.2-2 0-2.6 0-3 .3-3 2.9 0 2.7.5 2.9 3.2 2.9 2.5 0 2.7-.6 2.7-3 0-1 0-1.8-.3-2.2-.3-.1-.5-.4-.6-.6Zm.8-13c-.6-1-1.7-.7-2.7-.7-2.8 0-3.2.7-3.1 3.5 0 1.4 0 2.2 1.5 2.4 1.6.3 4.6.6 4.5-1.6 0-1 .3-2.9-.2-3.6Zm-6.9 6.5c-.7-.7-1.4 0-2.2-.3-1.2-.6-3-.4-3.4 1-.3.7-.4 3.9.2 4.6.7.6 3.7.4 4.5.2 1.6-.3 1.1-1.7 1.1-3 0-.8.4-1.9-.2-2.5Zm12.5 6.3c-1 0-3.6-.5-4.3.4-.5.7-.3 2.6-.3 3.4.1 1.9.6 2 2.4 2.2 1.3 0 2.8.4 3.4-1 .5-1.2.7-5-1.2-5Zm-170.4-108c-2.7 0-3.1.8-3.1 3v.5c0 2.7 1.3 2.4 3.7 2.4 2.3 0 2.2-.8 2.3-3v-.5c0-2.1-.6-2.4-3-2.4Z" fill="#644D31" />
    <path d="m86.6 245.6-.7-.7-1-.9c-1-1-2-.7-2.5-.6-.3.2-1.3.7-1.4 2a39 39 0 0 0-.3 3.7c0 1.6-.1 3.1-.5 4.6l-.5 2.5h3.7l.6-1.1a937.7 937.7 0 0 0 3.1-6.4c.5-1 .4-2-.3-3h-.2ZM197 230.4l-.7-.3c-1.3-.6-2.5 0-3.2.5l-.5.2c-1.6.6-2.3 1.6-2.2 3 0 3 .4 6 1 9.6l1 6.4 2.7-5.8c.4-1 .6-1.7.6-2.2v-.3l.9-4.8.4-2.3c0-.2 0-.3.2-.5.2-.7.6-1.8 0-2.8l-.2-.7Zm-4-28.1-2.5.4c-2.4.3-4.5.7-6.8.2h-.3a8.3 8.3 0 0 0-2-.2h-7.9l7.2 3.9c1.9 1 4 2.1 6.6 2a15 15 0 0 1 3.3.4l4 .2c2.3 0 5-.2 7.8-.7l5.7-.8-5-2.9c-2.5-1.4-6-3-10-2.5Zm-133-1.8c.6 0 1-.2 1.5-.5l.5-.3.4-.3c4.5-3.4 9.3-5.5 14.8-6.5l7-1.3c5.6-1 11.3-2 17-3.4 1.2-.2 2.7-.5 4.1-1.1l16-6.6-24.3 4-4.1.5-12.7 1.5c-3.5.4-7.4.8-11 2.5l-3.7 1.7-4 1.9c-2.6 1.1-3.7 3-3.5 5.7V200.5h2Zm154.3-3.1c-1.7-1.2-3.6-2-5.9-2.3l-4.4-.6c.3 0 .8 0 1.2-.4.6-.4 1-1 1.3-1.8l.2-.5-.1-.6a18 18 0 0 1-.4-1.6v-.3l-11.8-16.4-3.4-3h.1c.7.5 1.5.8 2.2 1.2l2 1.2c.3.1 1.2.6 2.3.3l2.6-.7-1.5-2.3a56.7 56.7 0 0 0-11.8-10 58.7 58.7 0 0 1-6.3-5h-.2l-.3-.3-.3-.2c-1.4-.6-3-1.2-4.4-1.6h.3c1.6.3 2.9.8 4.2 1.3a82.5 82.5 0 0 1 12 6.5l8.2 3.5-6-6.7a91.3 91.3 0 0 0-26.6-21.7h-.2c-3-1-6-.8-9.7.4-2 .7-2.4 2.3-2 3.6.8 2.6.8 5.2.8 8v1.3c0 1.5.7 2.6 1.8 3l-1 .7c-.9 1-.8 2.2-.8 2.6v1.7l-.7-1.3v6.4c-.1.6-.2 1.3 0 2v1.1l.4.4.2.4.3 1-.2-.2a2.3 2.3 0 0 0-3 .8 9 9 0 0 0-.9-6.4l-.2-.4.6.2.8-1c.8-.8 1-2.3 1.4-3.8v-.5c.8-3.5.7-7-.4-11.5-1.7-6.8-5-12-10-16-5.1-3.9-11.8-7-17.4-8.2-7-1.5-14.5.7-21 2.6l-1.6.5-3.6 1.3a72.4 72.4 0 0 0-14.4 10c-.2 0-.3.2-.5.4l-.4.3-.1.2c-1 .7-1.8 1.4-2.5 2.1l-1.1 1-.7.6a105.3 105.3 0 0 0-13.7 20.1l-1.7 3.3c-.8 1.4-1.5 2.7-2.1 4.2l-3 7.5 6.1-5.2c2.5-2.1 5-4.4 7.2-6.7l.4-.3.3-.3.2-.2c1-1 2-2 3-2.6l2.4-1.6c3.8-2.5 7.3-4.8 11.3-6.2l.6-.2a69 69 0 0 1 2.7-1.1l.4-.2c1.6-.7 3-1.4 4.6-1.6l3.4-.6 5.5-1a52 52 0 0 1 11-1.3c3.3.1 6.8.6 10.2 1.3-1.8-.3-3.6-.4-5.5-.3l-9.3.2c-2.5 0-5.1.4-8.4 1a72.9 72.9 0 0 0-29.8 14.8c-4.1 3.2-7.8 7-11.4 10.6l-3.2 3.2c-.4.3-.7.8-.8 1L52.7 191c-.7 1-1.2 2.1-1.5 3.4l-1.3 5.5 4.5-3.5a27.1 27.1 0 0 1 1.6-1.2 34 34 0 0 1 12.7-6.4h.1a66 66 0 0 1 17-3.4c9-.6 17.7-2.6 25.2-4.4a49.5 49.5 0 0 0 21.7-11.1c-.1 1.6-.6 3-1.5 4.2-2 2.9-5.1 4.4-8.4 6.1l-.1.1a99.5 99.5 0 0 1-28 9.5 148.9 148.9 0 0 0-12.3 2.7c-4.6 1-9.4 2-13.8 4.3-4 2-6.8 5-8.4 8.5a9.5 9.5 0 0 0-.6 6.4l1.2 5.2 2.5-4.8.6-1.3c.5-1 .8-1.8 1.4-2.4a13 13 0 0 1 8.3-5l6.6-1 3-.3c4-.5 8.2-.8 12.2-1 4.8-.5 9.9-.9 14.8-1.6 7-1 14.5-2.7 21-7l3.5-2.2c3.3-2.1 6.7-4.3 9.6-7.3 2.8-2.9 5.6-6 7.4-10a15.4 15.4 0 0 0 4.7 14.6c3.3 3 7.5 6.5 12.7 8.7 4.1 1.7 8.4 3.5 12.8 4.6 2 .4 3.7.5 5.5.4l.6-.1c4.2-.5 8.5-1 12.6-.9h2.5c3.4.1 6.5.2 9.7.7l7.8 1.1-6.3-4.7ZM168 178.8a166.6 166.6 0 0 0 7.4 5.5c2.4 1.8 5 3.6 8 4.7l3.5 1.3 5.1 2 1.3.3 1 .3h.2c2 .5 4 .8 5.8 1.1-4.6-.6-9.3-1.3-13.9-2.4-3.6-1-6-2-8-3.7a422 422 0 0 1-10.4-9.1Z" fill="#885630" />
    <path d="m177 277.9-3.7-9-.6-1.5v-.2l-.7-1-.4-.3-1.2 1.5a32.5 32.5 0 0 1-5.5 6.7l-.8 1c-1.8 1.5-3.9 2.5-6 3.5l-4 2-1.3 1h1.6l2 .1c5.5.5 9.8 1.5 13.6 3.3 1.5.7 1.7 2 1.8 3.4v.6h-.4l-.6-.1c-5.1-2-10.5-3.3-15.7-4.6l-4.5-1-.4-.2h-.4c-.3 0-.7.2-.8.9-.2.5-.4 1.8 1.1 2.2l2.5.8 4.8 1.6c4.3 1.3 8.8 2.6 12.6 5.3.4.3.8.5 1.3.5.6 0 1-.3 1.7-.6 2.9-1.4 3.8-3.7 2.7-6.9a6.7 6.7 0 0 1 1-6.4c.6-.8.7-1.6.2-2.6Zm-55.8 7.2a33.1 33.1 0 0 1-9 .2c-.4-.1-.5-.2-.5-.6v-.2h.2l3.7-.9c3.3-.7 6.7-1.5 10.2-1.6v-.5h.5v-.4l.1-.5h-.5c-1.6-.3-2.9-1-4.2-1.9l-1.5-.8a21.3 21.3 0 0 1-9.2-9c-.6-1.3-1.5-2.4-2.4-3.5l-1.1-1.4-.6-.7-.3.9-.5 1.6-1.4 4c-1.2 2.8-1.2 5.1 0 7.3.5.9.3 1.7-.5 2.6a164 164 0 0 0-4 4.4c-.3.4-.8.8-.6 1.6l.2 1.1c.1 1 .3 2.3 1.5 3V297.4c0 .4 0 1 .6 1.5 1.2.8 2.6 1 3.9 1.3h.2c.6-.2.8-.8 1-1.3l.3-.6.3-.4v-.2c1.3-.6 2.4-1.4 3.4-2.2 1.5-1 2.8-2 4.4-2.7 1.7-.7 3.4-1.5 5-2.4 3.6-1.8 7.3-3.6 11.4-4.2l3.1-.5-3.1-.5c-3.4-.6-6.6-.6-10.6 0Zm25.4-1.9c0-.4-.2-.7-.4-1-.3-.2-.7-.2-1-.2h-.4c-1 .3-2.2.4-3.5.4H137c-.4 0-.7.3-.7.8 0 .9.4 1.5 1.3 1.7 1.2.3 2.5.5 3.8.5l4-.3c1.2-.2 1.2-1.1 1.2-1.7v-.2ZM249 121.8c1-.4 1.2-1 1.3-1.9l.6-7.5.8-10.5-.5.2c-20 5.8-41.4 11.3-61.4 17.1-1 .3 0 2 .3 2.6 3.2 5.5 6.5 10.6 9.6 16.2.3.4.5.7.8.7l1-.5 47.4-16.4Zm-3-14.5c2.1 0 3.2 1.2 3.3 3.5 0 2-1.8 4.2-3.7 4.2-1.9 0-3.6-1.6-3.6-3.6-.2-2 1.8-4 4-4ZM35.6 146l9.5 1.3 14.6 2h.3c.6 0 .7-.5.8-1l4-12.8c.2-1 0-1.2-1-1.5L36.7 127l-27.3-7.2-.5-.2c-.3 0-.5.1-.6.3v.2l-.1.5a1348 1348 0 0 1-2.2 20.1c0 .8 0 1.2.7 1.4h.5l28.5 4Zm-22-17.8c1-.9 2-.8 3-.8 2.2 0 3.2.7 4 2.6 1 3.1.6 5.8-1.4 7.6a4 4 0 0 1-5.4 0 6.6 6.6 0 0 1-.2-9.4Z" fill="#FFF" />
    <path d="M246 107.3c-2.2 0-4.2 2.1-4 4.2 0 1.9 1.7 3.6 3.5 3.5 2 0 3.8-2.2 3.8-4.2 0-2.4-1.2-3.5-3.3-3.5Zm-229.3 20c-1 .1-2.1 0-3 .9a6.5 6.5 0 0 0 .1 9.4 4 4 0 0 0 5.4 0c2-1.8 2.6-4.5 1.3-7.6-.7-2-1.7-2.6-3.8-2.6Z" fill="#1A1A1A" />
    <path d="M116.3 329.7c-.5-.5-.8-1-.9-1.6-.4-1.8 0-3.6.2-5.4.6-3.5 1.7-6.9 1.5-10.4 0-1.4-.3-2.7-1.7-3.4-1.5-.7-2.6 0-3.7 1-2 1.9-3.8 4-5.5 6.2l-5.2 6.4c-.3.3-.6 1-1.1.7-.4-.2-.3-.8-.2-1.2l.5-4.6c.2-2 .5-4.1.1-6.1-.4-2.5-2.2-3.2-4.1-1.6a44.6 44.6 0 0 0-5.5 7.1c-3.2 4.9-6.1 10-10 14.5l-2 2.5c-.7 1-1 2.2-.4 3.3.6 1 1.6 1.3 2.7 1.2 1.1 0 1.7-1 2.4-1.7l8.8-12c.2-.2.2-.6.7-.5l-.1 1.5c-.2 2-.6 3.9-.2 5.9.5 2.2 2.3 3.1 4.3 2.1 1.1-.5 2-1.3 2.9-2.1 1.7-1.6 3.2-3.3 4.7-5.1l4.9-6.3c.5 1.7.3 3.2.2 4.7-.2 2.6-.7 5.3-.2 8 .4 1.6 1.3 2.6 2.7 2.7 1.4 0 2.7-.2 4-1 1.7-1.1 1.8-3.3.2-4.8Zm122 .6c-1 0-1.6-.4-2.2-1a32 32 0 0 1-5.1-5.6c-1.3-1.6-1.4-1.6.3-2.8 3.6-2.4 4.8-5.9 4.6-10-.2-3-1.9-4.9-4.8-5.4-2.4-.4-4.3.7-6.1 2-.4.4-.7.7-1.3.3-1.5-1-3-.7-4.2.6-.7.7-1.2 1.6-1.5 2.6l-5.2 21.3c-.6 2.4.7 3.6 3.1 3.2 2.3-.3 3.4-1.6 3.8-4.5.3-2.8.7-5.5 1.5-8.4l6.1 7.6c2 2.4 4.1 4.5 7 5.8 2 1 3.8.4 5.4-1 .8-.8 1-1.8.7-3-.3-1-1-1.7-2.2-1.7Zm-8.7-16.5c-.2.7-.5 1.3-1 1.9a16.8 16.8 0 0 1-7 5 22 22 0 0 1 1.6-6c.9-2 2.3-3.2 4.5-3.4 1.6-.1 2.4 1 2 2.5ZM80 306.1c-1-.4-2-.4-2.4.8-.3.7-.8.6-1.3.6-3.6-.6-6.8.5-9.4 3-5.3 5.3-8 11.5-7.8 19.1.2 5 3.1 7.5 8 6.4a24 24 0 0 0 17.7-22.3c.1-2.7-2.4-6.6-4.8-7.6Zm-1.4 11c-.5 4.1-2.2 8.4-6 11.6a8.2 8.2 0 0 1-4.5 2c-2.1 0-3.7-1.2-3.5-3.4.4-4.4 1.6-8.6 4.5-12a6.4 6.4 0 0 1 7.5-1.9c1.6.6 2.1 1.4 2 3.7Zm121.5-2.7c1-.4 2.3-.1 3.5-.2 3 0 6 0 8.9-1 1-.4 2-.9 2.7-1.8 1-1.6.6-2.6-1.2-2.6-3.8-.2-7.7-.5-11.5 0-2.3.2-4.5.9-5.4 3.4 0 .2-.2.4-.3.4-2.7.7-3.6 2.9-4.3 5l-4.2 14.7c-.3 1.2.2 2 1.1 2.6.8.5 1.6.5 2.5.2 4.6-1.1 9.1-2.3 13.9-2 .6 0 1.2-.1 1.8-.4 1.1-.6 1.8-2 1.6-3.4-.2-1.3-1.2-1.6-2.3-1.8a54.4 54.4 0 0 0-11.2.5c.4-3.2.7-3.4 3.7-3.4 2.3 0 4.6-.1 6.7-1 1.4-.6 2.3-1.6 2.5-3.2 0-1-.4-1.7-1.5-1.8h-2.7l-6.4.6c.4-.7.5-1.4 1-1.9.5-.9-.2-2.5 1.1-3Zm-143.5-6c-1.8-1-3.6-1.7-4.9-1.7-3.7.2-6.4 1.4-8.6 3.3a29 29 0 0 0-9.1 16 9 9 0 0 0 1 6.9c1 1.6 2.3 2.3 4.2 1.9a44 44 0 0 0 12.2-4.3c1.2-.7 2.3-1.4 3.2-2.4.7-.8 1.2-1.7 1.2-2.9 0-1-.5-1.4-1.5-1.4s-1.8.3-2.7.6c-2.9 1-5.7 2.4-8.8 3.1-1.4.4-2 0-2.3-1.5l.1-1.7a25 25 0 0 1 2.7-6.8c.9-1.5 1.9-3 3.4-4 2-1.2 4-1.9 6.2-.5.8.4 1.5.2 2.2-.2a5 5 0 0 0 2-2.9c.3-.7 0-1.2-.5-1.6Zm130.6 1.5a9.7 9.7 0 0 0-13 .7c-2.3 2.3-2.7 4.6-1.3 7.4 1 2.1 2.5 4 4 5.8l3 4c.7 1 .3 1.8-.8 2.2-.7.2-1.3.2-2 0-2-.8-3.7-1.9-5.3-3.3-.5-.5-1-1-1.1-1.8-.2-1-.7-1.5-1.8-1.6-1.1 0-2.2 0-2.8 1.1-1.2 2-.9 3.7 1.2 5.6a22 22 0 0 0 13.1 5.3c4.3 0 6.9-3.7 5.5-7.3-.6-1.6-1.7-3-2.7-4.5l-5-6.7c-1.3-1.7-.7-3 1.4-3.7 1.9-.6 3.5 0 5 1.1 1.9 1.5 3.4.7 3.8-1.6.3-1.2-.4-2-1.2-2.7Zm59.4-184c2-.7 4-1.6 6-2.2 1-.3 1.3-1 1.4-2l2-25.6c0-1.2-.1-1.4-1.3-1l-19.3 6c-2 .5-2 .5-2.8-1.4-3.3-7.3-5.8-15-8.5-22.4-.6-1.6-.6-3 .1-4.5 1-2.6.3-5.3.3-8l-.1-.4c-.7-7.3-1.7-14.6-3.6-21.8-1.6-6.2-4-12.2-7-18a258 258 0 0 0-10.4-17.9 14.2 14.2 0 0 0-6.1-6c-1-.4-2-.6-3.2-.7-1.2-.1-2 .4-2.7 1.3a5.9 5.9 0 0 0-1 6.1c2.7 5.8 5.1 11.7 7.4 17.6l.6 1c-.6 0-.7-.3-.9-.6-4.2-4.4-9.1-7.9-14-11.4-6.7-4.7-14-8.5-21.3-12.3-1-.5-2-.8-3-.9l-5.4-.5c-2.8-.4-5 1.2-5 4 0 1.6-.6 2-1.9 2-1.1.1-2.6 1.7-2.8 2.8-.4 3.4.7 6.3 3.2 8.7 6.3 5.8 12.4 11.9 18.4 18h.2l.4.6h-.2a.8.8 0 0 1-.5-.3h-.1l-2.7-1.6-12.6-8.5c-2-1.2-4-2.2-6.5-2.4-2.3-.1-4 .5-5.5 2a4 4 0 0 0-1.2 3.6c.2 2 1.6 3.4 3.1 4.4A115.2 115.2 0 0 1 161 51.8a16 16 0 0 1 3.7 5c.4.8.3 1-.6 1-6 0-11.8 1.7-17.6 2.9-2.4.5-4.7 1.3-5.5 4-1 2.9-1.4 4.6 2.2 5.5a135 135 0 0 1 21 7.3c.6.2 1.2.6 1.7 1 1.7 1.5 3.2 3.1 5 4.3a54.8 54.8 0 0 0 17.3 8.2c.7.2 1.4.6 2 .7.8.2 1.3.6 1.4 1.4.4 2.5 2 3.9 4.3 4.6.3 0 .6.3.9.4.7.2 1 .8 1.3 1.5 1 3.4 1.9 6.8 3 10.1.3 1.1 0 1.4-1 1.7l-15.7 4.7c-1.9.6-1.9.6-1 2.3l12.8 23c1.8 3.3 2 3.3 5.2 1.6.3-.1.8-.7 1.1-.2.3.5.9 1.3.3 1.9-1.5 1.8-2.6 4-4 5.9-.4.6-.4 1 0 1.6l4.2 7.1c.2.3.5.6.4.8l-1.7 5.2c-1-3.8-2.6-7-4.5-10-2.5-4.1-5.8-7.7-8.7-11.5l-1.6-1.6c-2.8-3-6.4-4.7-9.8-6.8a30.7 30.7 0 0 0-20.6-1.7c-1.1.3-1.7 0-2.3-.8-1.3-1.8-2.4-4-4-5.3a41.6 41.6 0 0 0-32.6-10.4c-5.7.5-11.2 1.1-16.2 4.2l-3 1.5c-5.2 2.7-10.2 5.4-14.4 9.6-4.4 4.3-8.7 8.6-12.7 13.3a86 86 0 0 0-11 17.8c-.2.5-.3 1-1 1.4l-1.7-10.5c0-.6.3-.6.8-.5l3.7.3c1 .2 1.5 0 1.7-1l1-4.5c1-5.6 2.7-11 4.2-16.5.3-1 .1-1.4-1-1.7-5.4-1.2-10.7-2.7-16.1-4-1-.2-1.5-.6-1.2-1.6 1.2-4.2 1.8-8.6 3.4-12.7.2-.5.4-1 .8-1.2 1.4-1.1 2.4-2.4 2.3-4.3-.1-1.5.5-2.4 2-3 2.5-1.2 5-2.7 7.4-4 2-1.2 3.5-2.8 4.6-4.8 4.5-8.5 8.3-17.5 13.8-25.5l1.4-2.1c3.6-3.7 6.9-7.7 10.9-11 1.2-1 1.6-2.5 1.6-4 0-1.8-1-3-2.1-4.3-1-1.2-2.1-2.3-4-2l-1.2-.3c.3-.5.7-.7 1-.9 4.9-3 9.6-6.2 14.4-9.3l17.4-11.2c.7-.5 1-.8.2-1.5l-.5-.6c-1.2-1.4-1.2-1.4-2.8-.4L72.8 52c-1.4 1-1.4 1-2.1-.7C69 47.6 68.2 43.7 67 40c-.3-.9 0-1.4.6-2 4-3.2 7.8-6.8 11.6-10.4a8.5 8.5 0 0 0 2.6-5.2c.3-2.4-1.3-3.6-3.5-2.8l-3 1.5a147 147 0 0 1-30.4 12c-.6.2-1.1.4-1.6-.3-1-1.3-2.6-2-4-3-.2-.1-.5-.2-.8-.1-1.4.3-2.9.7-3.8 2-2.2 3.3-5 6.2-7.1 9.6-2.4 4-4.7 8-7.4 11.7-.5.7-.7.8-1.2 0L10 37A40 40 0 0 0 7 32.4c-1.3-1.7-3-2.5-5-2.3-.4 0-1 0-1 .5-.4 1.6-1 3.2-.9 4.7.5 3.8 1.2 7.7 2.1 11.4 1.7 6.5 3.5 12.8 5.4 19.2 1.9 6.3 4 12.4 6 18.7.2.5.5 1-.3 1.4-1 .6-2.4.8-2.6 1.8-.2 1 .7 2.1 1.1 3.2l.1.2c.4.8.5 2 1.1 2.3.8.4 1.6-.7 2.3-1.1.7-.4 1-.3 1.2.4l5.4 12.3c.3.7.3 1.3.1 2-1.3 3.2-2 6.7-2.7 10.1-.2 1-.6 1-1.3.8l-11.7-3c-1.8-.4-1.8-.4-2 1.3v.2l-2.5 28c-.1 1 0 1.3 1 1.4l8 1.2c.6 0 1 0 .9.8l-1.8 9.6c-.2.9 0 1.5.5 2.3l2.8 3.7c.6.9 1.1 2 .5 3-.3.5-.4 1-.4 1.6 0 5.8 0 11.7.3 17.5.2 2.9.1 5.7.2 8.6.1 7.5.6 15 .9 22.6 0 3.7-.6 7.3-.4 11 0 1 .3 1.4 1.2 1.7 2.2.7 4.4 1.7 6.7 2.4 1.2.3 2 1 2.6 2.2.4 1 .6 2 .5 3 0 1 .4 1.7 1.2 2.2l10.4 7.7 27.5 20.3c.9.6 1 1.2.6 2-.5 1-.8 2-1.3 2.8-.4.9-.3 1.4.5 2 1.1.7 2.2 1.7 3.3 2.6.9.8 1 2 .7 3-.2.6-1.3 0-2 0l-1.2-.3c-4.4-.7-8.7-1.8-13.2-2.2-7-.6-14.1-1.2-21.2-1-.4 0-1-.3-1 .4-.2.6-.3 1.3.4 1.7l1 .5c4 1.4 7.7 3.4 11.4 5.5 2.4 1.3 4.7 2.9 7.3 3.8.5.1 1 .5 1.5 0l-11.7-9.4c.5-.4 1-.2 1.4-.2 4.7.4 9.4 1 14 2.1 10 2.4 20 5.1 29.8 8.1 3.3 1 6.7 1.5 9.7 3.4.7.5 1 1 1 1.9.2.2.4.4.1.6-.2.2-.5-.2-.7-.3l-6.8-.6c-6.6-.7-13-1.6-19.7-1.4-5 .1-9.9-.2-14.8.1-7 .5-14 1.4-20.8 2.2-.4 0-1 0-1 .3 0 .6.3 1.1 1 1.3l1.5.1c3.5.2 7 .1 10.5.2 8.8.2 17.5-.2 26.3.6 3.1.3 6.3.1 9.4.7 14.5 2.7 29 5.5 43.4 8.7 1.6.4 3.4.6 5 1.4-.7.8-1.8 1-2.2 2-3 7.1-5.1 14.6-7.5 22-.4 1.3.5 2.7 1.7 3a4 4 0 0 0 5-3l.7-4.7c.1-.5.3-.7.8-1l5.5-2.2c2.8-1.1 5.3-2.5 7.5-4.6 1.9-1.7 3.5-3.8 3.5-6.6 0-.8.2-1.4.9-1.9 3-2.4 5.9-5.1 8.6-8a85 85 0 0 1 8.4-7.4c.4-.3.6-.7 1.2-.5l7.9 3.1-15.3 9.3-.7.3c-1.9.5-3.5 1.5-4.8 2.8-5.3 5.3-8 11.5-7.7 19 .2 5.1 3.1 7.5 8 6.4a24 24 0 0 0 17.4-19.5c.4-2.5.8-5-1-7.2-.8-1-1.7-1.9-2.6-2.7l.6-.4c11-6.5 22.9-11 34.9-15.1 14.6-5 29.6-9 44.6-13l-1-.2-3 .3a71.8 71.8 0 0 0-13.8 2.2h-.7c.9-.9 3.5-3.7 4.3-3.5 0-.2.3-.4.3-.4.3-.4.6-.6 1-.7.9-1 1.8-2 2.8-2.6.8-.5 1.5-.9 2.3-1.2 2.2 0 4.5-2.8 6.8-3.7 0-.1 0-.2-.2-.3a46 46 0 0 0-9.9 2.3c-7 2.5-14.1 4.5-20.9 7.5a402 402 0 0 0-32 15.1l-.8-7c0-.6.2-.8.6-1 8.9-4.7 17.8-9.3 27.1-13.2 7.7-3.2 15.3-6.6 23-9.7v-.2h.2c.1.2 0 .3 0 .4h-.2c-2 3-4 6-5.3 9.4.6.1.8 0 1-.2l4.7-5c3-3.4 6.2-6.5 10-9.1.2-.2.6-.3.4-.7-.2-.4-.6-.2-1-.1l-10.4 2.1c-1.1.3-1-.1-1-1-.1-2.7.3-5.4.4-8.2 0-1.2.3-2.3.8-3.5l4.2-9.5c.7-1.6 1.1-3.2 1.4-5 .4-2.6.8-5.4 1-8.1.5-4.2 2-8.2 2.7-12.3.9-5.3 1.6-10.6 3.6-15.7l5.3-13.3c2.4-6 5.6-11.8 7-18.2.6-2.3 1.1-4.3.1-6.5-.5-1.2-.7-2.5-1.1-3.8-.3-1-.4-1.9-.2-2.9.7-3.4 1-6.9-.9-10-.5-1 .1-1.5.6-2 1.3-1.3 1.4-1.9.3-3.3l-3.8-4.6-3.3-3.7c-.8-.4-.7-.8.1-1Zm-91 202.8a8 8 0 0 1-4.6 2c-2 0-3.7-1.2-3.5-3.3.4-4.5 1.6-8.8 4.7-12.3a6.3 6.3 0 0 1 7.3-1.7c1.6.6 2 1.4 2 3.7-.5 4.2-2.2 8.4-6 11.6Zm45.4-234c-.4-.9-.8-1.4-1.8-1.1-1.3.3-2-.3-2.5-1.4-.9-1.8-1.6-4-3-5-1.5-1.2-3.8-1.2-5.7-1.7-1.5-.4-3-.8-4.4-1-3.2-.6-6-2-8.6-3.9-4.3-3.1-8.7-6-13.2-8.8-1.5-.1-2.8-.5-4.3-.9l-11.7-2.4c-1-.2-1.1-.9-1.2-1.5-.1-.8.1-1.6 1-2 1.2-.8 2.6-1 4-1.2 6.3-1 12.6-1.7 19-1.8 1.5 0 3 .6 4.4 1 .8.2 1.5 0 2.3-.5l9.2-6c.4-.2 1.3-.4 1-1.2l-.3-.4-.6-.1h-.7c-3.5 0-6.6 1-9.5 2.8-1.1.7-3.6.3-4.3-.8-4.9-7.2-11.7-12.5-18.1-18.1-2.9-2.5-5.7-5.1-8.7-7.4-.8-.6-1.2-2-.7-2.8.7-1 1.6-.6 2.4-.2a42 42 0 0 1 7.5 4.1c8 5.7 16.4 10.5 25 15.3l.6.4c1.3.4 2-.2 1.8-1.5-.1-.7-.4-1.3-.9-2-6.8-8-14-15.7-21.2-23.6-1.5-1.7-3.2-3-4.9-4.5a12 12 0 0 1-3.1-4c-.5-.9-.4-1.8.3-2.6.6-.7 1.1-.8 2-.4 2.4 1.2 4.6 2.5 6.8 4.2l11.3 8.5 11.4 8.5.8.7c.8.6 1.4 1.3 2 2l.4.4c.3.3.5.6.9.8.8.5 1.6 1 2.4.1.3-.3.4-.5.4-.8v-.4c-.1-.4-.3-.8-.6-1l-2.6-2.7a64.1 64.1 0 0 0-4.3-4.2l-15-11.9c-2.6-2-5.7-3.3-8.5-4.9-1-.6-1.7-1.4-2.4-2.2a2 2 0 0 1-.3-2.1c.3-.8 1-.8 1.6-.8 1-.1 2 .2 2.9.7A268.4 268.4 0 0 1 180 15.7c3.5 2.3 6.8 4.8 10 7.4 1.6 1.2 2.8 3 4 4.6.6.7.2 1.3-.3 1.8-.3.3-.8.5-1.2.7-.4.3-1 .6-.9 1.3.2.5.8.7 1.3.8.8.1 1.6 0 2.3-.2 2.3-1 4.3.6 5.9 2.3.4.4.5 1.3 1.3 1 .8-.3.9-1.1.8-1.9-.2-2.1-.7-4.2-1.2-6.2-1.3-5.3-3.8-10.2-5.9-15.2l-2.3-5.3c-.4-1 .1-1.9.7-2.6.4-.6 1.1 0 1.7.2 2.1 1 3.4 2.7 4.4 4.7l3.7 6.1c2 3.6 4.5 7 6.2 10.7 2.3 5.5 5.3 10.7 6.8 16.6 1.2 5.2 3 10.3 3.5 15.7.3 2-.1 4 .1 6 .5 4 0 7.6-1.7 11.2-.4 1-.3 2 .2 3 3.5 7.5 6.5 15.2 9.4 23 .4 1 .2 1.4-.8 1.7l-20.4 6.2c-1 .3-1.3 0-1.6-.9-1.8-4.6-3.4-9-5-13.6Zm-42.7 43c2.8-1 5.5-1.3 8.4-.5l.2.1c3.7 1.1 7.4 2 10.9 3.7a28.6 28.6 0 0 1 7.6 6.8c2.7 3.4 5.4 7 7.9 10.9l-.5-.2a91 91 0 0 0-12.1-6.5c-1.5-.7-3-1.1-4.7-1.4-4.2-.8-8.5-1-12.8-.6h-3.6c-.8 0-1.3-.4-1.3-1.3 0-3.3.2-6.6-.8-9.9-.2-.6.2-1 .8-1.1Zm-.9 24.4.1-.3v-.2l.2-.2v-.5l.1-.2v-.4l.1-.2v-.5l.1-.2v-.4l.1-.3V155c0-1.2.4-1.6 1.5-1.6a49 49 0 0 0 6.3 0c1.8 0 3.6 0 5.3.3 3.1.2 6 .8 7.8 2.3l4 2 9.3 5.7c.6.4 1.2.9 1.6 1.5l3.2 4.5c.1.2.4.5.2.8l-.3.2c-.3 0-.5 0-.7-.2l-4.2-2.3a67 67 0 0 0-16.7-6.5c-1.5-.4-3-.8-4.6-1l-2.1-.5s0 .2.2.3l.2.2c.2.2.3.4.6.5l.3.1c3.2 1.7 8.6 2.7 12.5 4.5l-.2-.1-1.3-.6-.4-.2h-.1l.5.2 1.3.6h.1l1 .5c2.2 1.2 4.2 2.6 6.1 4.1l3.8 3a28 28 0 0 1 10.9 16.4l.1.6.2.2c.2.4.3 1 .2 1.4v.3c0 1-.8.5-1.2.5-3 0-5.8-.7-8.6-1.5h-.1l-2.3-.8c-3-1-5.8-2.3-8.7-3.3-3.5-1.3-6.3-3.7-9.3-5.8-5-3.6-9.8-7.3-14.1-11.6-.5-.4-1-.9-1.2-1.4a57.8 57.8 0 0 1-1.3-3.5l-.4-.9V163.6c-.2-.5-.3-1 0-1.5Zm21.3 2h-.3.3Zm-.4-.1c-.3 0-.5-.2-.7-.3h-.3.3l.6.3Zm-6.8-2.2h-.2.2Zm-1.7-.6v-.4l.5.2c-.2 0-.4 0-.5.2Zm-13.4-22.5Zm-1.5 30c0-.4.3-.6.5-.5a21.7 21.7 0 0 0 4.5 6l5.5 4.9 11.6 10c2.5 2.2 5.5 3.2 8.7 4 7.3 2 14.8 2.7 22.2 3.7 2 .2 3.7.9 5.3 2.2h-.1l.3.2c-4.2-.6-8.3-.5-12.5-.6-4.6-.1-9 .4-13.5 1-1.6.1-3.2 0-4.8-.4-4.3-1-8.4-2.8-12.5-4.5-4.6-2-8.5-5-12.1-8.3l-.8-.8a14.1 14.1 0 0 1-2.9-4c-1.3-3-1.3-6.4-.3-10l.9-3Zm36.7 59.2H190.7l-1.6.2c-.6 0-1 .3-1.2.8l-.8 1.6-.1.2c-1.1 2.6-2.6 4.9-4.5 6.8l-1.3 1.2a27.5 27.5 0 0 1-11.1 6.4l-.2.2-.5.1c-.5.2-.9.5-.6 1.3.2.8.8 1 1.6 1.1h.6c.7 0 1.4-.3 2.1-.5l2-.8 1.5-.6c-.4 1.7-.6 3.3-1.2 4.8 0 .3-.2.5-.3.7a96.1 96.1 0 0 1-2.1 4.5 53 53 0 0 1-7.2 11 23.8 23.8 0 0 1-5 4 67.2 67.2 0 0 1-5.3 3l-1 .4-.7.3-.6.2-1.7.7-.6.1-1.8.6a68.3 68.3 0 0 1-8 1.9h-.3l-2.3.4-2.5.3c-2.8.4-5.5.2-8.2-.2h-.3l-.4-.2c-.7-.2-1.4-.4-2-.8l-2.6-1.4-1.9-1-2.2-1.5a8.9 8.9 0 0 1-3.3-4l-1.3-2.7-.4-.7a38.3 38.3 0 0 0-4-5.2c-.5-.7-1-1.4-1.7-2l-.9-1a99.6 99.6 0 0 0-3.6-3.9l-1-1a39.3 39.3 0 0 0-9.4-7c-.2 0-.5-.3-.8-.5A22.3 22.3 0 0 1 83 235c-.6-1.3-1.5-1.7-3-1.8-1.3 0-2.6-.2-3.6-.6-.8-.3-1.4-.7-2-1.2l-.3-.3-.8-1.2c-2-3-4-6-5.5-9.3v.1-.2l-1-2.7-.5-1.2a5.4 5.4 0 0 1-.2-2.2l.1-.4v-.2l.2-.4c.4-.7 1-1.4 1.8-2l1-.7 2-1.3a54 54 0 0 1 15.1-6.2l.7-.2 1.5-.2h3l.8-.1a253.7 253.7 0 0 0 12.6-.9l7.7-.8a49.4 49.4 0 0 0 15.8-4.5l1.6-.8.9-.5 6-3.3.8-.4h.1v.1c0 .2-.1.3-.3.5l-.3.2c-2 2.5-4.6 4.2-7 6.3l-.7.6-2.3 2c3 0 5.8-.4 8.4-1.1a23.3 23.3 0 0 0 12.3-8.5c1.4-2 2.7-4.2 3.9-6.8.9 3.3 3.3 5.6 5.3 8 .1.3.2.5.4.6l.4.6.8.8.7.5.6.5.3.2a142.1 142.1 0 0 0 7.6 5.6l4.6 3.2c2.1 1.5 4.3 2.7 6.6 3.8l1.8.7c1.7.8 3.5 1.4 5.3 2h.3c1.1.4 2.3.5 3.5.6l1.3.2.9.3.9.7c1 1 2 2.3 2.1 3.1v.4l-.1.1-.5.7-1.2 2.2-.1.3a4.4 4.4 0 0 0 0 3.7 23 23 0 0 0 5-7c0-.3.2-.7.4-1.1v-1.2c.2-.4-.3-1 0-1.3l.2-.2H200.2c.7 0 1.3 0 2 .2.3.2.2.7.2 1v.1c0 1.2-.6 2.3-1 3.4l-.4.8c-.7 1.8-1.5 3.7-2.7 5.3-1.6 2.2-3.6 4.2-6.7 4.3Zm3.7 6.4-1.2 7c-.1.8-.2 1.5-.7 2.4l-.1-.6-.2.3c-.5-3.4-1-6.7-1-10 0-.7.5-.8 1-1 .7-.3 1.7-1.1 2.2-.7l.2.2c.7.5 0 1.6-.2 2.4Zm-50 50.2c-1.3.2-2.6.3-4 .3-1.2 0-2.5-.1-3.8-.4-.7-.2-1-.7-1-1.2 0-.4.4-.4.6-.4h4.3a16 16 0 0 0 3.3-.3h.6c.4 0 .8 0 .8.7 0 .6.1 1.2-.9 1.3Zm-63.1-30.3c.6-2.8.4-5.7.7-8.5.1-.6.4-.5.8-.2l1.5 1.6.3.2c.2.2.3.5.1.8l-3.1 6.3H82v-.2Zm108.9-47-3.6-.3c-2.4.1-4.3-1.2-6.3-2.2h.2l-.5-.3h1l1.2.3c3.4.7 6.6-.3 10-.6a15 15 0 0 1 9.2 2.5h-.2l.4.2c-3.8.6-7.6.9-11.4.5ZM64.4 164c1-2.1 2.3-4.1 3.7-6.1l2-3 1.1-1.3c1-1.5 2.2-2.8 3.4-4.2l3.4-4 3.6-4c.4-.6 1-1 1.6-1.5l.3-.4c1.2-1 2.1-2 3.4-3l.2-.1 1-.9c3.3-3.2 7.2-5.7 11.2-8.2a16.8 16.8 0 0 1 3.1-1.6l2.5-.9 1.6-.5 5.9-1.6a35 35 0 0 1 11-1.7h1.6c2.8.2 5.5 1.3 8 2.4l3.4 1.5.8.4c.8.4 1.7.8 2.4 1.3l1.6 1 1.5 1a23.4 23.4 0 0 1 9.4 12.5c1 2.8 1.7 5.7 2 8.6.2 2.9-.7 5.7-1.4 8.4-.1.4-.3.5-.4.5l-.5-.5-3-3.6c-4-4.6-8.8-8-14.8-9.6-4.6-1.3-9.3-2-14-2.2a54 54 0 0 0-11.3 1.3l-8.9 1.6c-2 .3-3.7 1.2-5.4 2l-2.6 1-.3.1c-5.3 1.9-9.8 5.1-14.4 8-1.3 1-2.3 2-3.4 3.1l-.2.2-.9.9c-2.1 2-4.2 4.1-6.5 6-1 1.5-2.5 2.5-3.8 3.8a20 20 0 0 1 2-6.7Zm-1 13.6.6-.8c4.7-4.6 9.2-9.5 14.4-13.6 8.7-6.7 18.1-12 29-14.3 2.6-.6 5.3-1 8-1 3.2 0 6.3-.2 9.3-.3a29 29 0 0 1 21.6 8.6l.2.2c1.7 1.7 3.2 3.7 4.5 5.8 1.2 1.8.8 3.8.5 5.8-1 5.7-4.5 10-8.4 14-3.7 3.7-8.4 6.2-12.7 9a48 48 0 0 1-20.3 6.8c-8.9 1.3-18 1.4-26.8 2.6-3.3.4-6.6.7-9.8 1.3a15 15 0 0 0-9.6 5.8c-.9 1.2-1.4 2.6-2.3 4.2l-.1-.5c-.5-1.9-.2-3.5.5-5 1.6-3.5 4.2-6 7.5-7.6 5.9-3.1 12.4-3.7 18.7-5.3 5-1.3 10.2-2 15.3-3.4 7-2 13.7-4.4 20-7.8 3.5-1.7 7-3.5 9.3-6.8 1.7-2.4 2.2-5 1.7-7.9 0-.4-.2-.7-.4-.7-.1 0-.4 0-.7.4a47 47 0 0 1-22.7 12.3c-8.1 2-16.4 3.7-24.8 4.3-6 .4-11.8 1.5-17.5 3.4-4.8 1.7-9.7 3.3-13.5 6.9l-1.8 1.4v-.6l-.3.3.3-.3c.3-1.1.7-2 1.2-2.8l9.1-14.4Zm33.8 8.9 7.4-1.2 1.3-.3c-1.6.8-3.2 1.2-4.9 1.6-7.9 2-16 3-24 4.6-5.7 1-10.8 3.3-15.5 6.8-.2.2-.5.5-.9.6-.3.3-.5.2-.6-.1v-.3c-.1-2 .5-3 2.3-3.8l7.7-3.6c3.3-1.5 6.8-2 10.4-2.3l16.8-2Zm-.3-.3ZM68 54.2c.2.3.2.6-.2.9l-3.6 2.2-.7.3-.4-.7-7.6-8.8c-.4-.4-.7-.7 0-1.1 2.5-1.4 4.4-3.7 7-5 .7-.3 1-.3 1.3.5 1.7 3.8 2.8 7.8 4.2 11.7ZM47.4 36.4c3.6-1.3 7-2.8 10.6-4.2 5.2-2 9.9-5 14.7-7.5l1.5-.9c.4-.2.8-.8 1.4-.5.6.4.4 1 .4 1.9.2.8-.4 1.6-1.1 2.3-5 4.5-10 8.8-15.2 13-2 1.6-4.6 2.4-7 3.7-.4.2-.7 0-1-.4l-5-6.5c-.6-.8.3-.8.7-1ZM16.7 82.7c-3.9-12-8-23.9-11.1-36-.8-2.8-1.1-5.8-1.6-8.6-.2-.9.4-1.3 1-1.6.7-.4.7.5 1 .8 5.3 7.4 8.9 15.7 13.2 23.5 1.3 2.4 2.8 4.7 4.2 7 .2.5.4.9 1.1.6.7-.3.6-.7.5-1.3-.6-2.4-1.8-4.6-2.7-7-.4-.7-.4-1.4 0-2.2 2-4 4.6-7.5 6.8-11.3 2-3.5 4.4-6.6 6.3-10.1 1-1.8 3.2-2 4.7-.7 1 1 1.9 2 2.6 3.2 2.4 4 5.8 7.2 9 10.4a130 130 0 0 0 7.2 6.7c.8.7.9 1.8 1.3 2.7.2.3 0 .6-.2.7l-.5.3c-2 1.7-3.9 1.5-6.2.3A44.9 44.9 0 0 1 41.1 51l-.4-.4c-1.6-1.2-1.7-1.1-2.4.8-.7 1.9-1.2 3.8-2 5.6-.4.7.1 1.4.6 1.8.5.6.9 1.4 1.9 1.3.4 0 .7-.3.8-.8l.8-3.6c3.7 3.1 7.8 5.5 11.9 8.2l-4 2.2-30.1 17c-.8.5-1.2.6-1.5-.4Zm3.5 7.8c-.4-.8-.2-1.1.5-1.5L57 66.3c.6-.4 1.2-.2 1.9-.3 2-.5 4.1-1.1 6-2.3l.5-.3c1.3-3 4.3-4 6.9-5.2 5.7-2.6 11.6-5 16.7-9 1.2-.9 2.4-.5 3.3.2a3 3 0 0 1 1.1 3c-.4 1.6-1 3-2.2 4.1a116.4 116.4 0 0 0-21.2 31c-.5 1.2-1.3 2-2.1 3a36.2 36.2 0 0 1-12 9c-1 .5-1.5 1.2-1.6 2.2 0 .9-.3 1.7-.4 2.5-.1 2.2-.8 4-2.7 5.4-.5.4-.6 1.2-.8 1.8l-3.9 12.9v.2c0 .2 0 .5-.2.6a583.5 583.5 0 0 1-20.3-5l-2.4-.5c-1.3-.2-1.4-.8-.8-1.7a28 28 0 0 1 4.2-11.3c.5-.7.5-1.3 0-2.1-2.6-4.5-4.7-9.3-6.9-14Zm-13 51.6h-.6c-.6-.2-.8-.6-.7-1.5L8 120.5V119.9l.6-.3h.6l27.3 7.3 27.3 7.2c.8.2 1.1.5.8 1.4l-4 12.8c0 .6-.2 1.1-.7 1.1h-.3l-14.6-2-9.5-1.4L7 142.1Zm7.4 13c-.2-.5-.1-.9 0-1.2l.2-.6v.2c.2.5 0 1-.2 1.6Zm83.6 126.3c-.4 0-.4.2-.6.4l-.2.2-.6.3c-.4.3-.9.7-1 1.2v.2l-.1.2v.2l-.6 2.2-.1.3-.2.3-.1.1-.3.2h-.2c-.2 0-.4 0-.7-.2l-1.9-.6-.2-.1h-.1l-.4-.3h-.1l-3-1-1.6-.6c-.7-.2-1.5-.5-2.2-.5-2-.7-4-1-5.8-1.7h-.6l-3.8-.8c-1.2-.2-1.7-.9-1.5-2.1V277l-.8-1.2-.2-.4c-.2-.1-.5-.3-.5-.5-.4 0-.2-.2-.3-.2-1-1-.8-2.3-.7-3.6v-.4l.2-.8v-.3c.6-2.1.7-4.1-1.5-5.4l-.8-.6v.1l-3.2-2.3c-.2-.4-.2-.4-.5-.6-1.7-.9-3-2-4.4-3.2-.3-.2-.7-.3-1-.6-.1-.3-.4-.3-.5-.4l-.9-.6c-1.7-1.4-4-2.8-5.8-4.4-.6-.2-1-.7-1.5-1.2l-5.4-3.8-.5-.4c-1-.5-2-1.3-2.9-2-.3-.4-.5-.4-.8-.4l-2.2-1.5-.8-.6c-2-1.3-4-2.5-5.6-4l-.2-.2-.3-.4-.4-.6-.1-.5v.2c-1.3-1.3-2-2.8-3-4.2l-.2-.2V231.3c0-.2 0-.5.3-.7v-.3c.3-2.2 1.5-4.1 2.4-6.1v-1l-.1-.2H30c0-.1-.1-.2-.3-.2l-.9.3-.7.6-.3.2-.2.3-.1.1c-.8.8-1.8 1.5-2.7 2.2-.1.2-.4.4-.4.6h-.1c-.3.3-.7.3-1 .1l-4.4-2c-.4-.1-.5-.5-.6-.8v-.5l-.2-.3c-.5-2.3.3-4 .8-6.1v-.5c.4-2 .5-4 1-6v-.9l-.4-6.4v-1.1l-.6-12.1c-.3-8.4-1-16.8-.7-25.3a9 9 0 0 0-.7-3.6l-.4-.8-1.4-2.3c-.7-1-1-2-.6-3.3l1.2-6c.2-1 .5-1.5 1.5-1.1l1.4.1 5.4.9.5.1a30.6 30.6 0 0 1 5.6.8l6.1.9c.5 0 .9 0 1.3.2h.2l6.3.8h-.2l3.3.6c1 .1 2.1.4 3.2.4h.3l.3.1c.7 0 1 .4 1 1 .6 3.2 1 6.4 1.7 9.6v.7l.4 1.5.8 4.7v.7l1.1 5.7v.7a24.2 24.2 0 0 0-4.2 6.5l-1.4 3.2h-.1c-.3 1-.9 2.1-1.4 3.1v.2c-.2.1-.2.3-.3.4-.5 1.6-1.2 3-1.9 4.5l-.8 1.4c0 .3-.3.6-.3.8-.3 1.3-.6 2.6-1.3 3.7-.2 1.2-.5 2.2-1 3.2-.4 2-1.1 3.7-1.9 5.6l-.2.8-.2.5-.1.4v.1l-.6 10.5.3.1 1.3-2.6 1.3-2.6c.2-.6.7-1.2.7-1.8 1-1.7 1.9-3.4 3-5 0-.2.3-.3.4-.6l2.9-4.7c.4-.6.8-1.1 1-1.7.3-.7.7-.8 1-1.1.3-.3.5-.6 1.1-1 0 .4.1.6 0 .8V203l-.2.3v.7c-.3 2-.3 4.3-.4 6.5v.3l1 6H54v.7c.4 2 .8 4 1 6.1l.1.3v.4c.4 1.6 1.6 2.7 2.4 4.1.5.8 1 1.7 1.6 2.4 1.7 1.5 3.1 3 5 4.4.3 0 .6.3.8.3v.2c.7 0 1.3.6 2 .4l.3-.2.3-.2c.2-.3-.1-.5-.4-.6-2.7-1.7-2.3-4.6-2.6-7.3.8.6 1.2 1.2 1.8 1.9l.3.4.7.8 1.6 1.4c.5.4 1 .9 1.7 1.2l.8.4 5.6 2.9c.4 0 .8.2 1.1.5.7 2 1.5 4 1.3 6.4l.2.4v.5a23.2 23.2 0 0 1-.1 6.4v.2c0 2 0 4-.6 5.8 0 2-.6 3.8-.8 5.8v.2c-.2.4-.4.8.4.7 1.9-2 3.7-3.8 5.4-6v.2c0-.6.4-1 .8-1.3.7-.7 1.4-1.9 2.1-2.8l2.2-3v-.1c.1-.4.2-.6.4-.7h.4c.2 0 .5 0 .7.2l1.1.7c2 1.1 4.3 1.9 5.9 3.8.1.2.3.2.5.6.7.3 1.4 1 1.9 1.8l.5.5h.1c2.7 2.4 2.9 3.6 1 6.6l-.3.2c0 .3-.2.5-.3.8l-.3.5-.1.2c-.5.8-1 1.7-1.3 2.6-.1.8-.3 1.6-.1 2.4l1 4c.1.8.3 1.6.3 2.5.3 2-.6 3.2-2.3 4Zm9 16.5c-.5.6-.5 1.7-1.2 1.6H105.7a8.8 8.8 0 0 1-3.8-1.2c-.4-.3-.3-.8-.3-1.3v-6.4c0-.4.2-1-.2-1.2-1.5-1-1.2-2.6-1.5-4-.2-.5.2-.8.5-1.1l4-4.4c.8-1 1.2-2 .5-3.1-1.2-2.3-1-4.5 0-6.9.8-1.8 1.3-3.7 2-5.9l.2.3c1.3 1.6 2.6 3 3.5 4.7 2.2 4 5.3 7 9.4 9.2 1.9 1 3.6 2.4 5.8 2.7h.3c.2 0 .6 0 .5.3 0 .2-.2.2-.4.2H125.9c-2.4 0-4.7.4-7 1l-3.6.7a110.5 110.5 0 0 1-3.5.8c-.4.1-.6.4-.6.8.1.6.3 1 1 1 1.2.3 2.5.3 3.7.3h.1c1.7 0 3.4-.2 5-.5a34.2 34.2 0 0 1 11 0c-6 1-11 4.4-16.6 6.7-2.8 1.2-5 3.4-7.7 4.9l-.5.8Zm17.5 4.5-.1.1h-.2l-.1-.2-12.2-3c1.4-1.1 2.4-1.8 4.1-1.1 2.8 1 5.4 2.6 8 3.8.2 0 .3 0 .4.2l.1.1Zm12 13c-.7 1-1.7 1.8-2.7 2.6-2 1.4-4 2.6-6.8 3.4 1-3 1.8-5.9 3.5-8.3 1-1.5 3.7-2 5.3-1 1 .6 1.4 2 .7 3.3Zm15.7-18c-3 2.5-6.2 5-9 7.7-.8.7-1.3.7-2.1.2-5-3-10.2-5.4-15.5-7.6-2.3-1-4.8-1.4-7.2-2.3.3-.5.8-.5 1.2-.6 5.1-2 10.4-3.7 15.5-6 1.3-.6 2.6 0 4 .1 1.9.3 3.7.3 5.5-.6.3-.2.6-.3 1-.2l11.9 5-5.3 4.3Zm24.3-17.2a7 7 0 0 0-1.1 6.9c1 2.9.2 4.9-2.6 6.3-.6.3-1.2.5-1.7.5-.4 0-.8 0-1.2-.4-5.3-3.7-11.6-4.9-17.5-7l-2.6-.8c-1-.2-1-.9-.8-1.6.1-.5.4-.6.7-.6l.8.2c6.8 1.7 13.6 3 20.2 5.6l.6.2c.4 0 .6-.5.5-1.1-.1-1.6-.3-3-2-3.9a39.5 39.5 0 0 0-15.9-3.4c3.4-2 7-3.1 10.1-5.7l1-1 5.7-6.8.6-1H171.8c.6.2.6.6.7 1l4.3 10.5c.3.7.4 1.4-.1 2ZM249 136.4l.2.3v.3l-.2.2-.1.2-.1.2v.2c-2 2-1.5 4 .1 5.8l.2.5c1.4 1.8.2 3.6 0 5.4 0 .2 0 .2-.2.3h-.6l-3.6-1.1-.3-.1-.2-.2a4 4 0 0 1-1.7-.2c-1.5-.7-2.9-.5-4.1.7v.3c.5.8 1.4 1 2.3 1.3 3.4 1.1 6.4 3.2 9.6 4.9.7.4.8 1.3.8 2.1l-.3 1.5-1 4.3c0 .4 0 .8-.3 1.1 0 2.4-1.6 4.2-2.4 6.2l-.3.6-1.8 4.2-.2.3v.1l-.1.1c-.2.7-.3 1.3-.8 1.9-.6 2.2-1.6 4.1-2.7 6l-.2.6-2.7 6.7-.6 2.4v.2h-.1l-.1.3c0 1-.1 1.8-.5 2.7l-.5 1.7v.2l-2.9 12.9c-.8 3.5-1 7.1-1.7 10.6-.5 3.3-.6 6.8-1.4 10-.6 2.4-2 4.6-3 6.8-1 2-1.7 4.2-3 6.2v.2l-.2.5-.1.2-.1.5v1.5l-.1 1c-.3 3.6-.7 7.3-.6 11 0 .6-.1 1-.8 1.2l-.8.3-1.6.7c-.3 0-.6.2-.8.3l-1.4.5h-.2l-1.9.8-1.3.5c-.9.7-2 1-3 1.3l-.5.3-6.4 2.9h-.2c-1.2.4-2.4 1.1-3.5 1.6l-3.7 1.6c-2 1-4 1.7-6 2.6h-.2c-1.8.7-3.6 1.7-5.3 2.4l-2.5 1.1c-1.6.6-2 .6-2.2-1-1-.8-1.2-2-1.5-3l-1-3.2c-.1-.3-.3-.3-.3-.5-.3-.5-.3-.9-.5-1.4v-.2l-.2-.3v-.2c-.5-1.4-1-2.8-1.3-4.2-.4-1-1-2-1.1-2.9v-1.4l.1-.3 1-2 .8-1.6.6-1.6c.6-1 1-2.2 1.6-3.4l.3-.8a66 66 0 0 1 2-6.2v-.2c.3-1.2 1.4-1.6 2-2.4l.8-.2c.2-.4.4-.5.6-.7a21.4 21.4 0 0 0 1.5-2.1c.6-1 1.2-2 2-2.9.2-.3.4-.8.7-.8h.2c.6.2.4.9.3 1.3-.3 1.5-.2 3 0 4.6l.5 3.5v.6c.3.8.4 1.7.5 2.6l.8 3.5a46 46 0 0 1 2.4 6.3h.1l3.5 5.5 1 1.3v.3c.4 0 .6.7 1.1 0-.1-.3-.2-.3-.3-.3l-.4-1.1-.2-.7-.2-.8v-.3l-.2-.7c0-.3 0-.6-.2-1l-.1-1-.1-.4-.2-.4-.1-1.3-.3-2.4-.2-1.2c-.5-4.5-.2-8.9.5-13.3h.2l1.2-6.6h.3c-.1 3.8.3 7.4 1 11l.1.2 1.5 4.2a26 26 0 0 0 .7 1.7l.4.5.3.6.8.8.5.7 2.4 2.2a53 53 0 0 1-.3-2l-.2-1.8-.2-.2-.1-1.5-.6-4.6v-.8c-.2-2-.2-3.9-.2-5.8v-.3l-.1-.5c-.3-1.5-.2-3.1 0-4.7l.1-1.4v-.3a22.2 22.2 0 0 1 .8-7l.5-3.3.5-3.4c0-.4.2-.7.5-.7l.5.3.7.4 1 .7c.4.2.8.5 1 .8h.2l.2.2h.1c2.4 1.2 3.7 3.2 5.3 5l.7.7c.4.4.6 1 .8 1.5 1 1.4 1.9 2.9 2.4 4.5l.1.5s.2 0 .2.4c.3.3.4.7.6 1.1l.5 1.2.2.6.3.3c.1.2.3.3.6.4.3-1.3-.6-2.5-.2-3.6v-.5c-.4-2.2-.6-4.4-1.5-6.4v-.6c-.9-2-1.3-4-2.5-5.9-.3-.2-.4-.5-.5-.9-.4-.3-.6-.7-.8-1.1l-.5-.9v.3-.1c-1-1.5-2.1-2.8-3.2-4l-.1-.1c-.2-.2-.3-.2-.4-.5-.8-.4-1.6-1.4-2.4-2l-.3-.3s0-.2-.3-.3c-1.7-1.1-3-2.5-4.5-3.5-.2-.4-.6-.2-.7-.7 4.3-.3 8.6.2 13 .5v-.2c2.2.4 4.2.8 6.2 1.6l.2.1c1.4.4 2.6 1 4 1.6.2.1.5.6.8.2.3-.4 0-.7-.3-1l-1.5-2-.3-.6-2.7-3-.8-1c-1-.7-2-1.4-3-2.4-.1 0-.3-.3-.5-.3-.4 0-.9-.5-1.3-.8l-1.4-.8-.5-.3-6.2-2.3h-.4l-1-.5-.4-.5v-.2a2 2 0 0 1-.2-.8c.1-1 0-2.1-.1-3.2l-.2-.8-.2-.9-.2-.9-.3-1.2s-.2 0-.2-.2c-.3-2-1.1-4-1.7-6.1l-.3-.8c-.5-1-.8-1.6-.8-2.4v-1.1l.3-1.2.5-1.5v-.3c.5-2.4 1.4-4.4 2-6.6h.2v-.2h.2c.6-.9.8-1.8.7-2.6 0-.5-.2-1-.4-1.5l-.8-1.8-.2-.1v-.1a16.9 16.9 0 0 1-3-5l-.3-.6v-.2l-.1-.1-.1-.3.2-.6.2-.4.2-.3h.2c.9-1.4 1.7-2.8 2.7-4 .9-1.2 1.2-2.3.8-3.6-.6-2-.5-2 1.4-2.7l6-2.2 1.1-.4.3-.1.8-.3 6.4-2.4h.2c2-1 4.1-1.7 6.2-2.4l.9-.3 1.7-.7c1.7-.6 3-1.4 4.5-1.7 2.3-1.7 4.1-1 5.6 1.1l.6.5.8.9 4.3 4.7Zm-47.5 1.8-.6.2c-.5 0-.8-.2-1.1-.8-3-5.6-6.2-11-9.3-16.6-.4-.7-.6-1 .4-1.3l60-17.6.8-.2-.8 10.5-.6 7.5c0 1-.3 1.5-1.3 1.8a8748 8748 0 0 0-47.5 16.5Zm-98.5 76c5.6.5 11.2 1.6 16.8 2.4.7.1 1.5.1 2.2.5 1.7.9 2.5 2.5 3.1 4.1 1 2.5 1.3 5.3 1.5 8 .1 2-.3 3.9-2 5.3a7.8 7.8 0 0 0-2.8 4c2.1 0 4 .3 5.4 2.1.9 1.2 2 2.1 3.2 3.1a5.3 5.3 0 0 0 8.2-1.1l2.5-4c1.2-1.8 2.4-3.7 4.6-4.5 1.3-.4.7-1 .3-1.6-1-1.1-2.5-1.2-4-.3-2.2 1.4-3.8 3.4-5.4 5.3L135 239c-.8.6-1.5.6-2.2-.1-.8-.8-1.6-1.7-2.5-2.4-.8-.6-.9-1.1-.4-2 .9-1.9 1.3-3.8 1.1-5.8-.4-4.4-1.1-8.8-4.2-12.3-.4-.3-.4-.5.1-.9 3.5-2.4 5.3-5.7 5.8-9.9 0-1-.1-1.9-1-2.2-.8-.2-1.4.6-1.7 1.3-.9 1.5-2 2.8-3 4.1-1.5 2-3.6 2.5-5.8 2.2-8.1-1.3-16.2-2-24.3-2.5-.4 0-.8-.2-1.1 0-2.6 2-5.2 3.8-6.8 6.7h1c4.2-1.1 8.6-1.4 13-1Zm75.2 3.2a88.1 88.1 0 0 0-7.4 3.8c-3.4.6-6.7 1-10.2 1-2 0-3.6-.8-5.2-1.8-1-.6-1.9-1.5-2-2.8.5-.2 1 0 1.4 0 1.8.3 3.6 1 5.4.9a48 48 0 0 0 12.7-3l4-1.5c.6-.2.7-.4.2-1-.7-.7-1.4-.6-2-.5-8.9 1.4-17.7 1-26.4-.6-2.6-.5-5.3-.6-6.3-3.8l-.7-2.6c-.1-1-.7-1.7-1.3-2.4-.3-.4-.8-.6-1.3-.5-.5.1-.5.7-.5 1.1 0 1.4.1 2.9.3 4.3a9 9 0 0 0 1.6 4.3c1.7 2.5 4.2 4 7.2 4.7 2.2.5 2.2.6 2.4 2.8 0 1 .2 1.9 1.1 2.4 1.6 1 3.2 2 5.1 2 1.2.2 2.4.3 3.4 1 1.4 1 3 1.3 4.5 1.4l3.6.4c1 .1 1.6-.2 2.3-.7a148 148 0 0 0 9.8-8.7c-.4-.5-1-.6-1.7-.2Zm-27.7 27.3c-.3-.4-.6-.5-1.1-.3-2.7 1.5-5.7 1.6-8.7 2-1.2.1-2.8-.3-3.7.7-2.2 2.2-4.1 1.3-6-.3l-.4-.2c-3-1.6-5.8-2.1-8.8 0a4.8 4.8 0 0 1-3.8.9c-1-.3-1.8-.2-2.6.5-.4.4-1 .7-1.5 1-1.3.9-1.3 1 0 2 .2.2.6.3.9.4 2.8.9 5.4.3 8-1 2.5-1.5 4.9-1.4 7.2.4 2.2 1.5 4.4 1.6 6.8.6 3-1.3 6-2.5 9.2-3 .5 0 1-.3 1.4.1 1.3 1.3 2.6.4 4-.1.4-.2.5-.6.4-1.1 0-1.1-.9-1.7-1.3-2.6Zm-12.3 8.9a34 34 0 0 0-10 1.7c-2.5.9-5.5 1.5-6.8 4.5-.8 1.7-.7 3.6-1.2 5.4.2 1.4.2 2.7 1 4 .3.3.4.8 1 .8.5 0 .7-.6 1-1 .5-1.3.7-2.7 1-4 .7-2.3 1.7-4 4-5l7.3-3c.5 0 1-.2 1.4 0 3 .4 6.2.2 8.9 2 .2.1.5.2.8.1 1-.2 1.2-.5.5-1.3-2.2-3-5.4-4.3-9-4.2Zm-23.6-30.8 6-.7c.6 0 1.5.1 1.6-.5.1-.7-.6-1.1-1.1-1.5-.3-.3-.7-.3-1-.4-2-.8-4-.6-6.2-.2-4.1.8-8.3 1-12.5 0-1-.3-2.3-.3-3.6-.5-1.6.4-3.3.8-5 1.5-1.2.6-1.2 1.2-.2 2 .6.5 1.2.7 2 .4 2.6-1 4.8-.4 7 1.4a7.2 7.2 0 0 0 7.3 1.2c1.5-.5 2.8-1.3 4.1-2 .5-.4 1-.6 1.6-.7Zm-36.2 3.8c.1-1.9-.3-3.5-1.8-4.5-1.1-.7-1.5-1.7-2-2.8-.5-1.5-.6-3.2-1.8-4.4-.4-.3-.6-1-1.2-.8-.7.3-1.4.7-1.6 1.6-.7 3.2.8 6.2 4 7.8 1.3.8 2.4 1.8 3 3.3.3.5.4 1.4 1.1 1.3.8-.2.1-1.1.3-1.5Z" fill="#1A1A1A" />
    <path d="m14.9 153.5-.1-.2-.2.6c-.1.3-.2.7 0 1.2.2-.7.4-1.1.3-1.6" fill="#2E2E2E" />
    <path d="M198.4 223.4a23.6 23.6 0 0 0 3-6c.5-1.1 1-2.2 1-3.4v-.1c0-.4.2-.9-.2-1a6.6 6.6 0 0 0-2.7-.3l-.4.1-.2.1c-.3.4.2 1 0 1.3v1.2a16.2 16.2 0 0 1-1.3 2.9c-1 2-2.5 3.7-4.1 5.3a4.4 4.4 0 0 1 0-3.7l.1-.4 1.2-2.2.5-.6v-.5c0-.8-1-2.2-2-3.1l-1-.7-.8-.4-1.3-.1c-1.2-.1-2.4-.2-3.5-.5l-.3-.1a59.1 59.1 0 0 1-13.7-6.5l-4.6-3.3-3.1-2.1-4.5-3.4-.3-.3-.7-.4-.6-.5a4 4 0 0 1-.9-.9c0-.2-.2-.3-.4-.5l-.4-.6c-2-2.5-4.3-4.8-5.3-8a32.6 32.6 0 0 1-5.8 9c-3 3.1-6.5 5.1-10.3 6.2a30 30 0 0 1-8.5 1.1l2.4-1.9.7-.6c2.3-2.1 5-3.9 7-6.4a53.6 53.6 0 0 0 .6-.6v-.2h-.2c-.3.1-.5.2-.7.5l-6 3.3-1 .5-1.5.7a44.1 44.1 0 0 1-15.9 4.6l-7.6.8-7.6.6c-1.7 0-3.4.2-5 .3h-2.3a20.9 20.9 0 0 0-3 .3l-.7.2a60 60 0 0 0-17.2 7.4l-1 .8c-.7.6-1.3 1.2-1.7 2l-.2.4v.2l-.1.4v.7c0 .8.2 1.7.6 2.7a66.6 66.6 0 0 0 7.7 13.5l1.9 1.2c1 .5 2.3.7 3.5.7 1.8 0 2.7.5 3.3 2 1.7 4.6 4.9 8 8.7 10.5l.9.6.8.5a45 45 0 0 1 3.4 2.2l1.1.8a44 44 0 0 1 4 3.5l1 .9 3.7 3.9.9 1 1.7 2c1.4 1.6 2.8 3.3 3.9 5.1l.4.8c.6.9 1 1.8 1.3 2.7.7 1.8 2 3 3.3 4l2.3 1.4 1.8 1 2.6 1.5 2 .8.4.1.3.1c2.7.4 5.5.6 8.2.2.9 0 1.7-.2 2.5-.3l2.3-.4h.3a56.1 56.1 0 0 0 12.1-3.3l.6-.2.8-.3.9-.4a52.5 52.5 0 0 0 5.3-3l1.5-1 3.6-3 1.4-1.8c2.3-2.8 4.1-6 5.7-9.2l1-1.8 1.2-2.7.3-.7c.5-1.5.8-3.1 1.2-4.8l-1.5.6-2 .8a8.6 8.6 0 0 1-2.7.5c-.8 0-1.4-.2-1.7-1.1-.3-.8.1-1 .6-1.3l.5-.1.3-.1.4-.2.5-.2c2.3-1 4.6-1.8 6.6-3.2a29 29 0 0 0 9.3-10.9l.1-.2.8-1.6c.3-.5.6-.8 1.2-.8l1.7-.2h.8c3.1 0 5-2 6.8-4.4ZM78 228.1c-.7.1-.8-.8-1-1.3a6.6 6.6 0 0 0-3.2-3.3c-3.2-1.6-4.6-4.6-4-7.8.3-1 1-1.3 1.7-1.6.6-.2.8.5 1.2.8 1.2 1.2 1.3 2.9 1.9 4.4.4 1.1.8 2.1 2 2.8 1.4 1 1.8 2.6 1.7 4.5-.2.4.5 1.3-.3 1.5Zm11-12.8H89c1.6-3 4.2-4.8 6.8-6.7.3-.3.8-.1 1.1-.1 8.1.5 16.2 1.3 24.3 2.5 2.2.4 4.3 0 5.8-2.1 1-1.4 2.1-2.7 3-4.2.4-.6.9-1.5 1.7-1.2.9.3 1 1.1 1 2.2-.5 4.1-2.3 7.5-5.8 9.9-.5.3-.5.5-.1.9 3 3.5 3.8 7.8 4.2 12.2.2 2-.2 4-1.2 5.8-.4.9-.3 1.4.5 2l2.5 2.4c.7.8 1.4.7 2.2.1.6-.4 1.1-1 1.6-1.6 1.6-2 3.2-4 5.4-5.3 1.5-.8 3-.8 4 .3.4.6 1 1.2-.3 1.6-2.2.8-3.4 2.7-4.6 4.5l-2.5 4a5.3 5.3 0 0 1-8.2 1.1c-1.1-1-2.3-1.9-3.2-3-1.4-1.9-3.3-2.2-5.4-2.2a8.3 8.3 0 0 1 2.8-4c1.7-1.3 2.1-3.2 2-5.3-.2-2.7-.5-5.4-1.5-8-.6-1.6-1.4-3.2-3.1-4-.7-.4-1.5-.5-2.2-.6-5.6-.7-11.1-1.9-16.8-2.3a42.6 42.6 0 0 0-13.8 1.1Zm19.8 10.2c-2.7 1-5.2.5-7.4-1.2-2.1-1.8-4.4-2.3-7-1.4-.7.3-1.3 0-2-.4-1-.8-.9-1.5.3-2 1.7-.7 3.4-1 5-1.5 1.4.2 2.5.2 3.6.5 4.2 1 8.4.8 12.5 0 2.1-.4 4.2-.6 6.2.2l1 .4c.5.4 1.2.8 1.1 1.5-.1.6-1 .4-1.5.5l-6 .7c-.7.1-1.2.3-1.7.6-1.3.8-2.6 1.6-4.1 2.1Zm37.8 33.6c-.4.1-.7 0-1-.1-2.6-1.8-5.7-1.6-8.7-2-.6-.2-1 0-1.5 0l-7.2 3c-2.3 1-3.4 2.7-4 5-.4 1.3-.5 2.7-1.1 4-.3.5-.4 1-1 1s-.7-.5-1-.9c-.8-1.2-.8-2.6-1-4 .5-1.7.4-3.6 1.2-5.3 1.4-3 4.3-3.6 6.9-4.5 3.2-1.1 6.6-1.6 10-1.7 3.5-.1 6.7 1.1 9 4.2.5.8.4 1.1-.6 1.3Zm4.6-10.8c-1.3.6-2.6 1.4-4 .2-.4-.4-.8-.3-1.3-.2-3.3.6-6.3 1.8-9.2 3-2.4 1-4.7 1-6.8-.6-2.3-1.7-4.8-1.8-7.3-.4a10 10 0 0 1-8 1l-.9-.3c-1.2-1-1.2-1.2.1-2l1.4-1c.8-.8 1.6-.8 2.7-.6 1.3.3 2.6-.1 3.8-1 3-2 5.9-1.4 8.8.2 0 0 .2 0 .3.2 2 1.5 3.8 2.4 6 .2 1-.8 2.6-.5 3.8-.7 3-.4 6-.4 8.6-2 .5-.2.9 0 1.1.4.5.8 1.3 1.5 1.4 2.5 0 .5 0 1-.5 1.2Zm18.8-22.1c-.7.6-1.3.9-2.2.7l-3.6-.3a8.5 8.5 0 0 1-4.5-1.4c-1-.8-2.3-.9-3.5-1-2-.1-3.5-1.1-5-2-1-.6-1.1-1.5-1.2-2.4-.2-2.3-.2-2.3-2.4-2.9-3-.7-5.4-2.2-7.2-4.7a9 9 0 0 1-1.6-4.3l-.3-4.3c0-.4 0-1 .6-1 .5-.2 1 0 1.2.5.6.7 1.2 1.4 1.4 2.4.1.9.4 1.7.7 2.5 1 3.2 3.7 3.4 6.2 3.8 8.7 1.6 17.5 2 26.4.7.7-.1 1.4-.3 2 .5.5.5.4.7-.2 1l-4 1.4a47.9 47.9 0 0 1-12.7 3c-1.8.1-3.5-.5-5.3-.8-.5 0-1-.2-1.5 0 .2 1.3 1.1 2.2 2 2.8 1.6 1 3.2 1.8 5.2 1.8 3.5 0 6.8-.4 10.2-1l1.6-.7c2-1.2 3.9-2.2 5.9-3.2.8-.4 1.3-.3 1.7.1-3.2 3.2-6.5 6-9.9 8.8ZM62.5 42c-2.6 1.2-4.5 3.6-7 5-.7.3-.3.7 0 1.1l7.6 8.7.5.8.6-.3 3.6-2.3c.4-.2.4-.5.3-.9-1.5-3.9-2.6-7.9-4.3-11.7-.3-.7-.6-.7-1.3-.4ZM51.8 44c.3.3.6.6 1 .3 2.3-1.2 4.8-2 7-3.7 5.1-4.1 10.2-8.4 15-13 .9-.7 1.4-1.4 1.2-2.2 0-.9.3-1.6-.4-2-.6-.3-1 .3-1.4.6l-1.5.9c-4.8 2.5-9.5 5.4-14.6 7.5-3.6 1.4-7 2.9-10.7 4.1-.4.2-1.2.2-.6 1l5 6.5Zm.5 20c-4.1-2.7-8.2-5.1-11.9-8.2l-.8 3.6c-.1.5-.4.7-.8.8-1 .1-1.4-.8-2-1.3-.4-.4-.8-1.1-.6-1.8.9-1.8 1.4-3.8 2.1-5.7.8-1.8.8-1.9 2.4-.7l.4.4c3.6 3.6 7.6 6.7 12.2 9 2.3 1.2 4.2 1.5 6.2-.2l.5-.3c.3-.2.4-.4.2-.8-.4-.9-.5-2-1.3-2.7-2.5-2-4.8-4.3-7.1-6.6C48.5 46.1 45 43 42.7 39c-.8-1.2-1.6-2.3-2.6-3.2-1.5-1.4-3.7-1.2-4.7.7-1.9 3.5-4.4 6.6-6.3 10-2.2 4-4.9 7.4-6.8 11.4-.4.8-.4 1.4 0 2.3 1 2.3 2.1 4.4 2.7 6.9.1.5.2 1-.5 1.3-.6.2-.9-.2-1.1-.6-1.4-2.3-2.9-4.6-4.2-7-4.3-7.9-8-16.2-13.2-23.5-.3-.4-.3-1.2-1-.9-.6.3-1.2.7-1 1.6.5 2.9.8 5.8 1.6 8.7 3.2 12.1 7.2 24 11 36 .4 1 .8.8 1.5.4l30.2-17 4-2.2Zm-25.1 42.7a27.5 27.5 0 0 0-4.2 11.2c-.6 1-.5 1.5.8 1.7.7 0 1.5.3 2.3.5a522.5 522.5 0 0 0 20.3 5c.3-.1.3-.3.3-.5v-.3l3.9-13c.2-.5.2-1.2.8-1.7a6.7 6.7 0 0 0 2.7-5.3c0-.9.3-1.7.4-2.6 0-1 .5-1.7 1.5-2.2 4.6-2.2 8.7-5.1 12-9 .9-.9 1.6-1.8 2.1-2.9a116.4 116.4 0 0 1 21.2-31 8 8 0 0 0 2.3-4.1 3 3 0 0 0-1.1-3.1c-.9-.7-2.1-1-3.3-.1-5.1 3.9-11 6.3-16.8 9-2.5 1.1-5.6 2.1-6.9 5.1 0 .2-.3.2-.4.3-1.9 1.2-4 1.9-6 2.3-.7.2-1.3 0-2 .3L20.8 89c-.7.4-.8.8-.4 1.5 2.2 4.7 4.2 9.5 7 14 .4.8.4 1.4-.1 2.2Zm19.4 17.9v.2-.2Zm160.8-15.3 20.4-6.1c1.1-.3 1.3-.7.9-1.8-3-7.7-6-15.5-9.5-23-.4-1-.6-2-.1-3 1.6-3.5 2.2-7.3 1.7-11.2-.3-2 .1-4-.1-6-.6-5.3-2.3-10.4-3.6-15.6-1.4-6-4.4-11.1-6.8-16.6-1.6-3.8-4.1-7.2-6.1-10.7-1.2-2.1-2.6-4.1-3.7-6.2-1-2-2.3-3.7-4.4-4.7-.6-.2-1.3-.7-1.7-.2-.6.7-1.1 1.6-.7 2.6L196 12c2 5 4.6 9.8 5.9 15.1.5 2 1 4.1 1.1 6.3.1.7 0 1.6-.8 1.9-.7.3-.9-.6-1.3-1-1.5-1.7-3.5-3.4-5.9-2.4-.6.3-1.5.3-2.2.2-.5-.1-1.2-.2-1.3-.8-.2-.6.4-1 .9-1.2l1.2-.8c.5-.5.9-1.1.3-1.8-1.3-1.6-2.4-3.3-4-4.6a132 132 0 0 0-10-7.3l-1.6-1c-6.2-3.7-12.6-7.2-19.2-10.4-.9-.4-1.8-.8-2.8-.7-.7 0-1.4 0-1.7.8a2 2 0 0 0 .4 2.1c.7.8 1.4 1.7 2.4 2.3 2.8 1.5 5.8 2.9 8.4 4.9 5 3.9 10.1 7.8 15 11.9 1.6 1.3 3 2.7 4.4 4.2l2.6 2.6.6 1v.5l-.4.7c-.9.9-1.7.4-2.4 0-.4-.2-.6-.6-.9-.9l-.4-.4-2-2-.9-.7-11.3-8.5-11.4-8.5c-2.1-1.6-4.4-3-6.8-4.1-.8-.4-1.3-.3-2 .3-.6.8-.7 1.7-.3 2.7.8 1.5 1.9 2.8 3.2 3.9 1.7 1.5 3.4 2.8 4.9 4.5 7 7.9 14.3 15.6 21.2 23.7.5.6.8 1.2.9 2 .2 1.2-.5 1.9-1.8 1.4l-.7-.4c-8.5-4.8-17-9.6-25-15.3-2.3-1.6-4.8-3-7.4-4-.8-.5-1.7-.9-2.4.1-.5.8-.1 2.2.6 2.8 3 2.3 5.9 4.9 8.7 7.4 6.5 5.6 13.3 10.9 18.1 18.2.7 1 3.3 1.5 4.4.8 2.9-1.9 6-3 9.4-2.9h.8c.2 0 .4 0 .6.2.1 0 .2.1.2.3.4.8-.5 1-1 1.3l-9.1 6c-.8.5-1.5.6-2.4.4-1.4-.4-2.8-1-4.4-1-6.3.1-12.6.9-19 1.9-1.3.2-2.7.4-4 1.1-.8.5-1 1.2-1 2 .1.7.3 1.4 1.3 1.5l11.7 2.5c1.4.3 2.8.7 4.3.8 4.4 2.8 8.9 5.7 13.1 8.8 2.7 2 5.4 3.3 8.7 3.9 1.4.2 2.9.7 4.4 1 1.9.5 4.2.5 5.6 1.7 1.5 1 2.2 3.3 3 5 .6 1.2 1.3 1.7 2.6 1.4 1-.3 1.4.3 1.8 1.2l4.8 13.5c.4 1 .7 1.3 1.7 1Z" fill="#F6E5CC" />
</svg>