<svg viewBox="0 0 100 100" xmlns="http://www.w3.org/2000/svg">
    <path style="fill:#6b6551;stroke:#999;stroke-width:2;stroke-linejoin:round" d="m16 37 3-1V15c0 27 58 17 58-6v27c-2 36-37 40-60 14z" />
    <path style="fill:#333;stroke:#000;stroke-width:2" transform="rotate(45 10 45)" d="M17 38a10 7 0 1 1-1-1z" />
    <g style="fill:#fff;stroke:#000;stroke-width:2">
        <circle cx="30" cy="38" r="7" />
        <circle cx="50" cy="38" r="10" />
    </g>
    <g style="fill:#000;stroke:none">
        <path d="M40 57c15 0 16-3 17-8 1 7 0 12-17 8z" />
        <circle cx="32" cy="38" r="4" />
        <circle cx="52" cy="38" r="6" />
        <path d="M96 72v16L83 76c-5-4 6-15 13-4z" />
    </g>
    <path style="fill:#de872b;stroke:#653a0a;stroke-width:2" d="m57 53-2 3 17 11 3-6z" />
    <path style="fill:#bbb;stroke:#999;stroke-width:2" d="m73.5 68 3-6 8.5 5-4 5z" />
</svg>