<svg xmlns="http://www.w3.org/2000/svg" viewBox="1 0 30 30">
    <path fill="#8b447e" d="M27 9.2c-3.4 3.2-8.2 3.8-12.7 4.3-3.3.4-7 1.1-9.1 3.9-1.9 2.5-1.3 6.1.7 8.3.4.6 1.7 1.7 1.9 1.6-1.8-2.5-1.8-6.5.8-8.5 2.7-2.2 6.3-2.1 9.6-2.9 1.9-.4 4-1 5.7-1.6-2.5 2.2-5.8 3.1-8.9 4.1-2.6.9-5.1 3.1-5.2 6-.1 2 .9 4.5 3 5.1A15 15 0 0 0 27.9 24a15 15 0 0 0 .7-17.2c-.4 1-1 1.8-1.6 2.4zM1 15c0 1.3.4 4.2.8 4.4.4-3.5 3.1-6.2 6.2-7.4 5.4-2.1 11.6-.9 16.7-3.9 1.6-.7 2.8-2.8 1.3-4.2-.7-.5-1.8-1.7-1.1-.2.2 1.9-1.6 3-3.2 3.5-3.3 1-6.7.9-10.1 1.5-.5 0-1.7.3-.5-.3 3.1-1.5 7.1-1.3 9.8-3.7 1.4-1.1.8-3.4-.7-4-1.9-.8-4-.8-6-.6A15.1 15.1 0 0 0 1 15z" />
</svg>