<svg viewBox="187 0 36 36" xmlns="http://www.w3.org/2000/svg">
    <g fill="#FFF">
        <path d="M192.912 8.921l4.923 4.924a2.597 2.597 0 0 1-3.673 3.673l-4.923-4.924a2.597 2.597 0 1 1 3.673-3.673zM203.437 19.447l10.547 10.547a2.597 2.597 0 0 1-3.673 3.673L199.764 23.12a2.597 2.597 0 1 1 3.673-3.673z"></path>
        <path d="M190.416 8.255L218.753.893A2.672 2.672 0 0 1 222 2.767a2.592 2.592 0 0 1-1.846 3.199l-28.338 7.362a2.672 2.672 0 0 1-3.247-1.875 2.592 2.592 0 0 1 1.847-3.198z"></path>
        <path d="M209.592 31.104l7.363-28.337A2.592 2.592 0 0 1 220.153.92a2.672 2.672 0 0 1 1.875 3.247l-7.362 28.337a2.592 2.592 0 0 1-3.199 1.847 2.672 2.672 0 0 1-1.875-3.247z"></path>
    </g>
    <path d="M208.62 18.067l-10.236 10.235a2.643 2.643 0 1 1-3.738-3.738l10.236-10.235a2.643 2.643 0 0 1 3.738 3.738zM193.38 33.306l-1.54 1.54a2.643 2.643 0 1 1-3.738-3.738l1.54-1.54a2.643 2.643 0 0 1 3.738 3.738z" fill="#53B5FF"></path>
</svg>