<svg viewBox="0 -23 256 256" xmlns="http://www.w3.org/2000/svg" preserveAspectRatio="xMidYMid">
    <path d="M251.7 119.3c-.9-.7-2-1.2-3-1.4a144.7 144.7 0 0 1-21.5 17.9 19.9 19.9 0 0 1-10 3.2c-6.2 0-9-6-9.8-15.4-1-12.7-1.8-27.8-1.8-51.3 0-24-5.4-40.4-20-41.7l-1.9-.1c-9 0-13.2 4.6-19 16.2-4.8 10-12.4 24.5-26.5 52a368.1 368.1 0 0 1-37.3 59.4c-3.3 4-5.8 6.8-8.2 8.4a8.5 8.5 0 0 1-4.8 1.5c-4.6 0-8-3.8-9-12.9-.3-2.1-.5-4.5-.5-7.3 0-18.6 7-48.8 19.2-93.3C106.6 22 102.8 0 83.3 0H83C78.6 0 75 1.7 71.5 4.4c-3.5 2.8-7 8.7-10.2 16.6C57.6 30 35.4 74.5 0 97.5c-.4 8.7 4.6 17.4 14.6 18.4 9 .9 15.6-3 23.9-8.6a2304.4 2304.4 0 0 0-3.3 15l-1.2 5.3a149 149 0 0 0-2.5 15.1c-5 44.6 15.7 66.6 39.9 66.6 4 0 8-.5 12-1.5 26.7-6.7 52.3-37.3 82.7-107.7-.4 7.6-.5 14.8-.1 21.4 2 40.4 18 52.5 40.5 52.5 17 0 33-9 41.1-20 6-7.8 8.4-16.4 8.4-23.2 0-5.2-1.7-9.4-4.3-11.5" fill="#EA5252" />
</svg>