<svg viewBox="0 0 32 32" xmlns="http://www.w3.org/2000/svg">
    <path style="fill:#6483c0" d="m10.46 11.09 5.55 2.75v4.47l-5.55-2.93v-4.29z" />
    <path d="m16.2 18.61-5.93-3.12V10.8l5.93 2.92Zm-5.56-3.34L15.83 18v-4.05l-5.19-2.56Z" />
    <path style="fill:#6483c0" d="M16.37 13.84v4.47l4.95-2.5v-4.46l-4.95 2.49z" />
    <path d="M16.19 18.6v-4.88l5.3-2.67v4.88Zm.36-4.65v4.06l4.58-2.31v-4.05Z" />
    <path style="fill:#6483c0" d="m10.7 10.8 5.49 2.78 4.89-2.52-5.3-2.67-5.08 2.41z" />
    <path d="m16.19 13.79-5.9-3 5.5-2.61 5.7 2.88Zm-5.07-2.99 5.07 2.57 4.49-2.3-4.9-2.48Z" />
    <path style="fill:#952781" d="m18.96 15.83 5.56 2.75v4.46l-5.56-2.92v-4.29z" />
    <path d="m24.7 23.35-5.93-3.12v-4.7l5.93 2.93ZM19.14 20l5.2 2.73v-4.05l-5.2-2.57Z" />
    <path style="fill:#952781" d="M24.87 18.58v4.46l4.95-2.49v-4.46l-4.95 2.49z" />
    <path d="M24.69 23.34v-4.88L30 15.8v4.87Zm.37-4.65v4.05l4.57-2.3v-4.05Z" />
    <path style="fill:#952781" d="m19.2 15.55 5.49 2.78 4.89-2.52-5.22-2.46-5.16 2.2z" />
    <path d="m24.69 18.54-5.92-3 5.6-2.4L30 15.8Zm-5.05-2.98 5.05 2.56 4.47-2.3-4.8-2.27Z" />
    <path style="fill:#d87b30" d="m2.19 15.5 5.56 2.74v4.47l-5.56-2.92V15.5z" />
    <path d="M7.93 23.02 2.01 19.9v-4.7l5.92 2.93Zm-5.55-3.35 5.18 2.73v-4.04l-5.18-2.57Z" />
    <path style="fill:#d87b30" d="M8.1 18.24v4.47l4.95-2.49v-4.46L8.1 18.24z" />
    <path d="M7.92 23.01v-4.88l5.31-2.67v4.87Zm.37-4.65v4.05l4.57-2.31v-4.04Z" />
    <path style="fill:#d87b30" d="M2.44 15.21 7.92 18l4.9-2.52-5.22-2.47-5.16 2.2z" />
    <path d="M7.92 18.2 2 15.2l5.6-2.39 5.63 2.66Zm-5.05-2.97 5.05 2.56 4.48-2.3-4.8-2.27Z" />
    <path style="fill:#e0d400" d="m10.88 16.3 5.55 2.74v4.47l-5.55-2.92V16.3z" />
    <path d="m16.62 23.82-5.93-3.12V16l5.93 2.93Zm-5.56-3.35 5.19 2.74v-4.05l-5.19-2.57Z" />
    <path style="fill:#e0d400" d="M16.79 19.04v4.47l4.94-2.49v-4.46l-4.94 2.48z" />
    <path d="M16.6 23.81v-4.88l5.31-2.67v4.87Zm.37-4.65v4.05l4.58-2.31v-4.04Z" />
    <path style="fill:#e0d400" d="m11.12 16 5.49 2.78 4.89-2.51-5.3-2.68L11.12 16z" />
    <path d="m16.6 19-5.9-3 5.5-2.62 5.71 2.88Zm-5.06-3 5.06 2.58 4.5-2.31-4.9-2.47Z" />
</svg>