<svg viewBox="0 -1 256 256" xmlns="http://www.w3.org/2000/svg" xmlns:xlink="http://www.w3.org/1999/xlink" preserveAspectRatio="xMidYMid">
    <defs>
        <linearGradient x1="50%" y1="0%" x2="50%" y2="100%" id="c">
            <stop stop-color="#FFF" offset="0%" />
            <stop stop-color="#FFF" stop-opacity="0" offset="100%" />
        </linearGradient>
        <path d="M180.8 252.6c4 1.6 8.6 1.5 12.7-.5L246 227a16 16 0 0 0 9-14.4V41.2a16 16 0 0 0-9-14.4L193.5 1.6a15.9 15.9 0 0 0-18.1 3L74.9 96.4 31 63.1c-4.1-3-9.8-2.8-13.6.6l-14 12.8a10.6 10.6 0 0 0 0 15.7l38 34.6-38 34.7a10.6 10.6 0 0 0 0 15.7l14 12.8c3.8 3.4 9.5 3.7 13.6.6l43.8-33.3L175.4 249c1.6 1.6 3.4 2.8 5.4 3.6ZM191.3 69 115 126.8l76.3 58V69Z" id="a" />
    </defs>
    <mask id="b" fill="#fff">
        <use xlink:href="#a" />
    </mask>
    <path d="M246.1 26.9 193.6 1.6c-6-3-13.4-1.7-18.1 3L3.5 161.6a10.6 10.6 0 0 0 0 15.7l14 12.8c3.8 3.4 9.5 3.7 13.6.6L238.2 33.4c7-5.2 17-.3 17 8.4v-.6a16 16 0 0 0-9-14.3Z" fill="#0065A9" mask="url(#b)" />
    <path d="m246.1 226.8-52.5 25.3c-6 3-13.4 1.7-18.1-3L3.5 92.1a10.6 10.6 0 0 1 0-15.7l14-12.8c3.8-3.4 9.5-3.7 13.6-.6l207.1 157.2c7 5.2 17 .3 17-8.5v.7a16 16 0 0 1-9 14.3Z" fill="#007ACC" mask="url(#b)" />
    <path d="M193.4 252.1c-6 3-13.3 1.7-18.1-3a9.3 9.3 0 0 0 16-6.7V11.3c0-8.3-10.1-12.5-16-6.6 4.8-4.8 12-6 18.1-3.1L246 26.9a16 16 0 0 1 9 14.3v171.3a16 16 0 0 1-9 14.4L193.4 252Z" fill="#1F9CF0" mask="url(#b)" />
    <path d="M180.8 252.6c4 1.6 8.6 1.5 12.7-.5L246 227a16 16 0 0 0 9-14.4V41.2a16 16 0 0 0-9-14.4L193.5 1.6a15.9 15.9 0 0 0-18.1 3L74.9 96.4 31 63.1c-4.1-3-9.8-2.8-13.6.6l-14 12.8a10.6 10.6 0 0 0 0 15.7l38 34.6-38 34.7a10.6 10.6 0 0 0 0 15.7l14 12.8c3.8 3.4 9.5 3.7 13.6.6l43.8-33.3L175.4 249c1.6 1.6 3.4 2.8 5.4 3.6ZM191.3 69 115 126.8l76.3 58V69Z" fill-opacity=".3" fill="url(#c)" mask="url(#b)" />
</svg>