<svg viewBox="0 0 32 32" xmlns="http://www.w3.org/2000/svg">
    <path fill="#2188b6" d="M28.2 24.4a10.5 10.5 0 0 0-4 1.8 23.7 23.7 0 0 1-5.8 2.7 1.6 1.6 0 0 1-1 .5 62.2 62.2 0 0 1-6.4.6c-1.2 0-1.9-.3-2-.8a1.6 1.6 0 0 1 .8-2 3.8 3.8 0 0 1-.5-.4l-.4-.4c-.3.5-.4 1.9-1 2.5-.8.8-2.4.5-3.3 0-1-.5 0-1.8 0-1.8a.7.7 0 0 1-1-.3 4.8 4.8 0 0 1-.6-3A5.4 5.4 0 0 1 4.7 21a9.3 9.3 0 0 1 .7-4.4 10.4 10.4 0 0 1 3.2-3.7s-2-2.2-1.3-4c.5-1.3.7-1.3.9-1.4a3.6 3.6 0 0 0 1.4-.8A5.3 5.3 0 0 1 14 5s1.2-3.6 2.3-3a18.3 18.3 0 0 1 1.5 3s1.3-.8 1.4-.5a11.3 11.3 0 0 1 .6 6.1 14 14 0 0 1-2.6 5.4c-.2.3 1.5 1 2.6 4 1 2.6 0 4.9.2 5.1v.1s1.2.1 3.5-1.3a8.5 8.5 0 0 1 4.2-1.6 1 1 0 0 1 .5 2.1Z" />
</svg>