<svg xmlns="http://www.w3.org/2000/svg" viewBox="0 0 508 508">
    <circle cx="254" cy="254" r="254" fill="#fd8469" />
    <path d="M382.4 431.2H125.6c-8.4 0-15.2-6.8-15.2-15.2V92.4c0-8.4 6.8-15.2 15.2-15.2h256.8c8.4 0 15.2 6.8 15.2 15.2V416c0 8.4-6.8 15.2-15.2 15.2z" fill="#324a5e" />
    <path d="M131.6 386.4V121.6a23.2 23.2 0 0 0 23.2-23.2h197.6a23.2 23.2 0 0 0 23.2 23.2V386a23.2 23.2 0 0 0-23.2 23.2H155.2a23.2 23.2 0 0 0-23.6-22.8z" fill="#fff" />
    <g fill="#ffd05b">
        <path d="M217.6 124c-11.2-1.6-25.2 8.8-26.4 18.8 10-2.8 19.6-10 26.4-18.8zM186 128c-10.8 10.4-10.8 23.6-4 27.2 5.6-10 9.2-21.2 4-27.2zM205.6 148.8c-5.2-6-17.2-4-23.6 6.4 7.2 4 16.4 0 23.6-6.4zM172 144.4c-8 12-4.8 25.2 2.8 27.2 3.2-11.2 3.6-22.8-2.8-27.2z" />
        <path d="M196 160c-6.4-4.8-17.2-.4-21.2 11.2 7.6 2.4 16-3.2 21.2-11.2zM162.8 162.8c-4.8 13.2.8 25.2 8.4 25.6 1.2-11.2-1.2-22.4-8.4-25.6z" />
        <path d="M189.2 172.8c-7.2-3.2-16.8 3.2-18 15.2 8 .8 14.8-6.4 18-15.2zM157.6 182.4c-2 14 6 24.4 14 23.2-1.6-11.2-6.4-21.6-14-23.2z" />
        <path d="M186 186.8c-7.6-1.6-15.6 6.8-14.4 18.8 7.6-1.2 12.8-10 14.4-18.8zM156.8 202.8c.8 14 11.2 22.4 18.4 19.6-3.6-10.4-10.4-19.6-18.4-19.6z" />
        <path d="M185.2 200.8c-8 0-14 10-10 21.6 7.2-2.8 10.8-12.4 10-21.6zM160.4 223.2c4 13.6 16 20 22.4 15.2-6.4-9.6-14.8-17.2-22.4-15.2z" />
        <path d="M187.6 214.8c-7.6 2-11.6 12.8-5.2 23.6 6.8-4.4 8-14.4 5.2-23.6zM168.4 242c6.8 12.4 20.4 16 25.6 10.4-8.8-8.4-18.4-14-25.6-10.4z" />
        <path d="M193.2 228c-7.2 3.6-8.4 15.2.4 24.4 5.6-6 4-16-.4-24.4zM219.6 264.8a80 80 0 0 1-23.2-10 77.3 77.3 0 0 0 19.6 18l3.6-8zM290.4 124c11.2-1.6 25.2 8.8 26.4 18.8-10-2.8-19.6-10-26.4-18.8zM322 128c10.8 10.4 10.8 23.6 4 27.2-5.6-10-9.2-21.2-4-27.2zM302.4 148.8c5.2-6 17.2-4 23.6 6.4-7.2 4-16.4 0-23.6-6.4zM336 144.4c8 12 4.8 25.2-2.8 27.2-3.2-11.2-3.6-22.8 2.8-27.2z" />
        <path d="M312 160c6.4-4.8 17.2-.4 21.2 11.2-7.6 2.4-16-3.2-21.2-11.2zM345.2 162.8c4.8 13.2-.8 25.2-8.4 25.6-1.2-11.2 1.2-22.4 8.4-25.6z" />
        <path d="M318.8 172.8c7.2-3.2 16.8 3.2 18 15.2-8 .8-14.8-6.4-18-15.2zM350.4 182.4c2 14-6 24.4-14 23.2 1.6-11.2 6.4-21.6 14-23.2z" />
        <path d="M322 186.8c7.6-1.6 15.6 6.8 14.4 18.8-7.6-1.2-12.8-10-14.4-18.8zM351.2 202.8c-.8 14-11.2 22.4-18.4 19.6 3.6-10.4 10.4-19.6 18.4-19.6z" />
        <path d="M322.8 200.8c8 0 14 10 10 21.6-7.2-2.8-10.8-12.4-10-21.6zM347.6 223.2c-4 13.6-16 20-22.4 15.2 6.4-9.6 14.8-17.2 22.4-15.2z" />
        <path d="M320.4 214.8c7.6 2 11.6 12.8 5.2 23.6-6.8-4.4-8-14.4-5.2-23.6zM339.6 242c-6.8 12.4-20.4 16-25.6 10.4 8.8-8.4 18.4-14 25.6-10.4z" />
        <path d="M314.8 228c7.2 3.6 8.4 15.2-.4 24.4-5.6-6-4-16 .4-24.4zM288.4 264.8a80 80 0 0 0 23.2-10 77.3 77.3 0 0 1-19.6 18l-3.6-8z" />
    </g>
    <path d="M294 224.8c-10 9.6-24 15.6-40 15.6s-30-6-40-15.6c1.6-5.2 5.6-9.6 10.4-12l15.6-7.6c.4-2 2.8-4.8 2.8-4.8-1.2-1.6-2-3.6-2.8-5.6-1.2 0-2.4-1.2-3.2-2.4-.8-1.6-.8-3.2 0-4-2.4-6.4-4-16.4 4-23.6l-4 .8s4.8-8.8 14.4-5.6c0 0-.8-1.6-4-2.4 0 0 4.4-2 6.8 1.2 0 0 1.6-1.2 0-2.4 0 0 7.6.4 14 6.4 8.8 8.4 6.8 19.2 3.6 26.4a4 4 0 0 1-.4 3.6c-.8 1.2-1.6 2.4-2.8 2.4-.8.8-2.4 4.4-3.2 5.6 0 0 2.4 2.8 2.8 4.8l15.6 7.6c4.8 2 8.8 6.4 10.4 11.6z" fill="#84dbff" />
    <path fill="#ced5e0" d="M165.2 306.8h177.6v8.4H165.2zM165.2 327.2h177.6v8.4H165.2zM165.2 347.6h177.6v8.4H165.2zM165.2 368h102v8.4h-102z" />
</svg>