<svg xmlns="http://www.w3.org/2000/svg" viewBox="0 0 508 508">
    <circle cx="254" cy="254" r="254" fill="#324a5e" />
    <path d="M401.2 132.8v253.6c0 7.2-6 13.2-13.2 13.2h-23.2v-230L303.2 108h-160V84.8c0-7.2 6-13.2 13.2-13.2h183.2v48c0 7.2 6 13.2 13.2 13.2h48.4z" fill="#e6e9ee" />
    <path d="M340 71.6v48c0 7.2 6 13.2 13.2 13.2h48L340 71.6z" fill="#54c0eb" />
    <path d="M303.2 108.4H120c-7.2 0-13.2 6-13.2 13.2v301.6c0 7.2 6 13.2 13.2 13.2h231.2c7.2 0 13.2-6 13.2-13.2V169.6h-48c-7.2 0-13.2-6-13.2-13.2v-48z" fill="#fff" />
    <path d="M303.2 108.4v48c0 7.2 6 13.2 13.2 13.2h48l-61.2-61.2z" fill="#84dbff" />
    <path d="M303.2 108.4v48c0 7.2 6 13.2 13.2 13.2h48l-61.2-61.2z" fill="#fff" />
    <path d="M236 291.2c-.4 0-.4 0 0 0-.4 0-.4 0 0 0-25.2-12.4-22.4-28-22.4-28v-.8c6 7.6 14 12.4 22.4 12.4s16-4.8 22.4-12.4V263.6c0 2.4.4 16.4-22.4 27.6z" fill="#f9b54c" />
    <path d="M236 291.2c-.4 0-.4 0 0 0-.4 0-.4 0 0 0z" fill="#f1543f" />
    <path d="M235.6 367.2c33.6 0 63.6-16 82.8-40.8l-10.8-32.8-44.8-21.6c0 7.6-.4 21.2-2.8 38-5.6-17.6-24.4-18.8-24.4-18.8s-18.8 1.6-24.4 19.2a277.4 277.4 0 0 1-2.8-38.4l-44.8 21.6-10.8 32.8a104.6 104.6 0 0 0 82.8 40.8z" fill="#324a5e" />
    <path fill="#fff" d="M258 263.2s2.8 16-22.4 28c0 0 18.8 1.6 24.4 19.2.4.4 10.4-38-2-47.2z" />
    <path fill="#fff" d="M213.6 263.2s-2.8 16 22.4 28c0 0-18.8 1.6-24.4 19.2-.4.4-10.4-38 2-47.2z" />
    <path d="M267.6 237.6a77 77 0 0 0 1.2-13.2c0-24-14.8-33.6-33.2-33.6s-33.2 9.6-33.2 33.6c0 4.4.4 8.8 1.2 13.2-2.8 1.2-3.6 5.6-1.6 9.6 1.6 2.8 4 4.8 6.4 4.8 6 14.4 16 25.6 27.2 25.6s21.2-11.2 27.2-25.6c2.4 0 4.8-2 6.4-4.8 2-4 1.2-8-1.6-9.6z" fill="#ffd05b" />
    <path d="M235.6 177.2s14.4.4 27.2 12.4c28 26.4-1.6 65.6-1.6 65.6s4-9.6 2.4-19.6c-.4-3.6-.8-7.6-.8-11.2.4-6.8-1.2-17.2-17.6-14.4 0 0-9.2 6.8-31.6 1.2 0 0-14.4 22-6.4 40.8 0 0-23.6-35.6 1.2-58.4l-6.4 1.6s9.2-17.2 28-11.2c0 0-1.6-2.8-7.6-4.4 0 0 8.4-3.6 13.2 2.4 0-.4 2.8-2.4 0-4.8z" fill="#324a5e" />
</svg>