<svg xmlns="http://www.w3.org/2000/svg" viewBox="0 0 49.2 49.2">
    <path fill="#fff" d="M10.5 35a7.3 7.3 0 0 0-4.2 9.4 7.3 7.3 0 0 0 9.3 4.3c.2 0 16-6.1 20.4-24.3h5.2a2 2 0 0 0 2-1c.3-.7.2-1.5-.2-2.1L31.4 1C31 .4 30.3 0 29.6 0s-1.4.4-1.8 1.1L16.2 21.3c-.4.7-.5 1.5-.1 2.1.4.6 1 1 1.9 1h2.6a20.3 20.3 0 0 1-10 10.6zM24 24.4c.2-.8.1-1.5-.3-2-.4-.7-1-1-1.8-1h-2.2L29.6 4l10 17.4h-3.8c-1.3 0-2.4.9-2.7 2.1A32.9 32.9 0 0 1 14.6 46a4.3 4.3 0 0 1-5.5-2.5c-.8-2.2.3-4.7 2.5-5.6.4-.1 8.7-3.6 12.3-13.4z" />
</svg>