<svg xmlns="http://www.w3.org/2000/svg" viewBox="0 0 18 32">
    <g fill="currentcolor">
        <path d="M9.63 3.5c0-.98.3-1.7.87-2.02.47-.27 1.06-.24 1.62.08.93.53 2.01 1.03 2.98.71.62-.2 1.11-.72 1.48-1.57a.5.5 0 0 0-.9-.4c-.26.57-.55.9-.9 1.02-.47.15-1.13-.04-2.16-.63A2.6 2.6 0 0 0 10 .6c-.88.52-1.37 1.54-1.37 2.89a.5.5 0 0 0 1 0zM9 16.93a2 2 0 0 0 2-2v-3a2 2 0 0 0-4 0v3c0 1.1.9 2 2 2zm-1-5a1 1 0 0 1 2 0v3a1 1 0 0 1-2 0v-3z" />
        <path d="M0 14v9a9.01 9.01 0 0 0 18 0v-9a9.01 9.01 0 0 0-18 0zm9-8a8 8 0 0 1 8 8v9a8 8 0 0 1-16 0v-9a8 8 0 0 1 8-8z" />
    </g>
</svg>