<svg viewBox="0 0 32 32" xmlns="http://www.w3.org/2000/svg">
    <defs>
        <linearGradient id="a" x1="54.6" y1="168.39" x2="54.6" y2="194.88" gradientTransform="translate(-38.6 -165.64)" gradientUnits="userSpaceOnUse">
            <stop offset="0" stop-color="#d8d8d8" />
            <stop offset="1" stop-color="#a3a3a3" />
        </linearGradient>
        <linearGradient id="b" x1="68.76" y1="209.15" x2="91.64" y2="209.15" gradientTransform="matrix(.832 0 0 .837 -50.6 -159.45)" gradientUnits="userSpaceOnUse">
            <stop offset="0" stop-color="#d7d7d7" />
            <stop offset=".5" stop-color="#e7e7e7" />
            <stop offset="1" stop-color="#d7d7d7" />
        </linearGradient>
    </defs>
    <rect x="2" y="2.82" width="28" height="26.35" rx="3.09" ry="3.09" style="fill:url(#a)" />
    <path d="M26.86 29.18H5.14A3.15 3.15 0 0 1 2 26.04V5.96a3.15 3.15 0 0 1 3.14-3.14h21.72A3.15 3.15 0 0 1 30 5.96v20.08a3.15 3.15 0 0 1-3.14 3.14ZM5.14 2.96a3 3 0 0 0-3 3v20.08a3 3 0 0 0 3 3h21.72a3 3 0 0 0 3-3V5.96a3 3 0 0 0-3-3Z" style="fill:#8d8d8d" />
    <rect x="4.31" y="4.64" width="23.17" height="21.94" rx="2.57" ry="2.57" style="fill:url(#b)" />
    <path d="M24.91 26.64H6.88a2.63 2.63 0 0 1-2.63-2.63V7.21a2.63 2.63 0 0 1 2.63-2.63h18.03a2.63 2.63 0 0 1 2.63 2.63v16.8a2.63 2.63 0 0 1-2.63 2.63ZM6.88 4.7a2.51 2.51 0 0 0-2.5 2.51v16.8a2.51 2.51 0 0 0 2.5 2.51h18.03a2.51 2.51 0 0 0 2.51-2.5V7.21a2.51 2.51 0 0 0-2.5-2.52Z" style="fill:#f8f8f8" />
    <path d="m6.14 23.9 2.35-6.1h.87l2.5 6.1h-.92l-.71-1.85H7.67L7 23.9Zm1.76-2.5h2.07l-.63-1.7q-.3-.77-.44-1.26a7.78 7.78 0 0 1-.32 1.16ZM13.6 23.9v-6.1h.81v2.5h3.17v-2.5h.81v6.1h-.8v-2.88h-3.17v2.88ZM20.48 23.9v-6.1h.8v3.02l3.03-3.02h1.1l-2.56 2.47 2.67 3.63h-1.06l-2.18-3.09-1 .98v2.11Z" />
</svg>