<svg viewBox="-16 0 256 256" xmlns="http://www.w3.org/2000/svg">
    <path d="m208 52.2-80.7-48a30.4 30.4 0 0 0-31.1 0l-80.6 48A32.2 32.2 0 0 0 0 79.9v95.7c0 11.3 5.9 21.8 15.6 27.7l80.6 47.9a30.4 30.4 0 0 0 31.1 0l80.6-48a32.2 32.2 0 0 0 15.6-27.6V79.9c0-11.4-5.8-21.9-15.5-27.7Z" fill="#FFF" />
    <path d="m208.4 52.3-80.8-48a30.4 30.4 0 0 0-31.2 0l-80.8 48A32.2 32.2 0 0 0 0 80v96c0 11.3 5.9 21.9 15.6 27.7l80.8 48a30.5 30.5 0 0 0 31.2 0l80.8-48A32.2 32.2 0 0 0 224 176V80c0-11.3-5.9-21.9-15.6-27.7ZM99.2 246.8l-80.8-48A26.6 26.6 0 0 1 5.6 176V80c0-9.3 4.8-18 12.8-22.8l80.8-48a25 25 0 0 1 25.6 0l80.7 48c6.7 4 11.2 10.8 12.4 18.5-2.7-5.7-8.7-7.3-15.7-3.3l-76.4 47.4c-9.6 5.5-16.6 11.8-16.6 23.3v94.2c0 6.8 2.8 11.3 7 12.6a24.8 24.8 0 0 1-17-3.1Z" fill="#2F3A3E" />
    <path d="m187 185-20 12c-.6.3-1 .8-1 1.4v5.3c0 .6.4.9 1 .6l20.4-12.4c.5-.4.7-1 .6-1.7v-4.6c0-.6-.5-.8-1-.5Z" fill="#3AB14A" />
    <path d="M144.3 140.8c.6-.3 1.1 0 1.2 1v7a13 13 0 0 1 7.7-1c.5.2.8.8.6 1.6l-1.6 6.2c0 .5-.3.9-.7 1.2l-.4.3a1 1 0 0 1-.6.1c-2.5-.6-5.2-.1-7.4 1.2a9.3 9.3 0 0 0-5.5 8.3c0 3.2 1.6 4.1 7.2 4.2 7.5.1 10.7 3.4 10.8 10.9a26.7 26.7 0 0 1-9.9 20.1l.1 6.9c0 .8-.4 1.6-1.1 2l-4.1 2.4c-.7.4-1.2 0-1.2-.9v-6.7c-3.5 1.4-7 1.8-9.3.9-.4-.2-.6-.8-.4-1.6l1.4-6.2c.1-.5.4-1 .8-1.3l.3-.2h.7c2.9.7 6 .3 8.6-1.1 3.7-1.8 6.1-5.6 6.3-9.7 0-3.5-2-5-6.5-5-5.9 0-11.3-1.1-11.4-9.7a25 25 0 0 1 9.5-19.1l-.3-7c0-1 .4-1.7 1.1-2.2l4-2.6Z" fill="#FFF" />
</svg>