<svg viewBox="0 0 32 32" xmlns="http://www.w3.org/2000/svg">
    <defs>
        <linearGradient id="a" x1="4.49" y1="-2092.09" x2="13.83" y2="-2075.91" gradientTransform="translate(0 2100)" gradientUnits="userSpaceOnUse">
            <stop offset="0" stop-color="#18884f" />
            <stop offset=".5" stop-color="#117e43" />
            <stop offset="1" stop-color="#0b6631" />
        </linearGradient>
    </defs>
    <path d="M19.58 15.35 8.51 13.4v14.4a1.2 1.2 0 0 0 1.2 1.2h19.1A1.2 1.2 0 0 0 30 27.8v-5.3Z" style="fill:#185c37" />
    <path d="M19.58 3H9.71a1.2 1.2 0 0 0-1.2 1.2v5.3L19.58 16l5.86 1.95L30 16V9.5Z" style="fill:#21a366" />
    <path d="M8.51 9.5h11.07V16H8.51Z" style="fill:#107c41" />
    <path d="M16.43 8.2H8.51v16.25h7.92a1.2 1.2 0 0 0 1.2-1.2V9.4a1.2 1.2 0 0 0-1.2-1.19Z" style="opacity:.10000000149011612;isolation:isolate" />
    <path d="M15.78 8.85H8.51V25.1h7.27a1.2 1.2 0 0 0 1.2-1.2V10.05a1.2 1.2 0 0 0-1.2-1.19Z" style="opacity:.20000000298023224;isolation:isolate" />
    <path d="M15.78 8.85H8.51V23.8h7.27a1.2 1.2 0 0 0 1.2-1.2V10.05a1.2 1.2 0 0 0-1.2-1.19Z" style="opacity:.20000000298023224;isolation:isolate" />
    <path d="M15.13 8.85H8.51V23.8h6.62a1.2 1.2 0 0 0 1.2-1.2V10.05a1.2 1.2 0 0 0-1.2-1.19Z" style="opacity:.20000000298023224;isolation:isolate" />
    <path d="M3.2 8.85h11.93a1.2 1.2 0 0 1 1.2 1.2v11.9a1.2 1.2 0 0 1-1.2 1.2H3.2A1.2 1.2 0 0 1 2 21.95v-11.9a1.2 1.2 0 0 1 1.2-1.2Z" style="fill:url(#a)" />
    <path d="M5.7 19.87 8.21 16l-2.3-3.86h1.85L9 14.6c.12.23.2.4.24.52h.02l.26-.54 1.34-2.45h1.7l-2.36 3.84 2.42 3.9h-1.8l-1.46-2.7a2.35 2.35 0 0 1-.17-.37h-.02a1.69 1.69 0 0 1-.17.35l-1.5 2.72Z" style="fill:#fff" />
    <path d="M28.8 3h-9.22v6.5H30V4.2A1.2 1.2 0 0 0 28.8 3Z" style="fill:#33c481" />
    <path d="M19.58 16H30v6.5H19.58Z" style="fill:#107c41" />
</svg>