<svg fill="#21609B" xmlns="http://www.w3.org/2000/svg" viewBox="0 0 512 512">
    <path d="M499 365s-63 171-282 131l-10-3h-3l-9-4h-2l-8-3-3-1-9-4-1-1-8-3-3-1-1-1-5-3-4-2-7-4-2-1-10-6-2-1-6-4-1-1-2-1a267 267 0 0 1-14-11l-3-3-7-5-1-1-7-7-3-2a315 315 0 0 1-14-14v-1a306 306 0 0 1-20-24l-1-1-5-8-2-3-4-6-2-3-3-6-2-3-1-2-2-3-2-5c-35-69-40-153 5-219l35-44a231 231 0 0 0 34 246l1 2a284 284 0 0 0 14 16l7 7 2 2 5 5 2 2 7 7 1 1a336 336 0 0 0 25 19l2 1 6 5 3 1 9 6 3 1 7 4 4 2 6 4 2 1 8 3 2 1 9 4 2 1a296 296 0 0 0 22 7l10 3c90 21 185 2 238-67zM182 255l17 21 8 7 2 2 7 7v1l9 7 2 1 9 7h1l4 3 2 1 7 5h1l6 3 2 2 4 2h1l8 4 2 1 7 3 3 1 7 2 3 1 10 3c169 28 208-102 208-102-36 51-104 75-176 56a210 210 0 0 1-20-6l-3-1-7-3-2-1-9-4-4-2-2-2-6-3-1-1-7-4-2-1a240 240 0 0 1-14-10l-2-1c-32-25-57-60-69-99-12-40-10-85 12-122l-27 38c-32 47-31 110-5 160l14 24zm179-58 4 1 2 1 6 1c93 18 118-48 125-57-22 32-60 39-105 28a121 121 0 0 1-24-9c-9-4-16-8-23-14-41-31-67-90-40-138l-14 20a98 98 0 0 0-8 95c14 33 43 59 77 72z" />
</svg>