<svg viewBox="3 1 46 52" xmlns="http://www.w3.org/2000/svg">
    <path d="M45.8 35.2c-.9 1.3-1.5 2.8-3.1 2.8-2.8 0-3-4.3-5.8-4.3S34.3 38 31.5 38c-2.8 0-3-4.3-5.7-4.3-2.8 0-2.7 4.3-5.5 4.3s-3-4.3-5.7-4.3c-2.8 0-2.6 4.3-5.4 4.3-1 0-1.5-.4-2-1-2-3.5-3.2-7.6-3.2-12C4 12.4 13.8 2 26 2s22 10.3 22 23c0 3.7-.8 7.2-2.2 10.2Z" fill="#FB70A9" />
    <path fill="#4E56A6" d="M17.2 33v9.5a3.1 3.1 0 0 1-6.2 0V31c.6-1 1.2-2 2.4-2 2 0 2.7 2.4 3.8 4Zm11.8.5v15a3.5 3.5 0 1 1-7 0v-17c.7-1.3 1.4-2.5 2.7-2.5 2.3 0 2.8 3 4.3 4.5Zm11-.3v11a3.1 3.1 0 1 1-6.2 0V30.7c.5-1 1.2-1.7 2.2-1.7 2 0 2.7 2.7 4 4.2Z" />
    <path fill-opacity=".3" d="M17.2 35.9c-.5-.7-1.2-1.2-2.1-1.2-2.3 0-2.7 2.8-4.1 4.1V26.6a3.1 3.1 0 1 1 6.2 0V36Zm11.8.2c-.6-.8-1.3-1.4-2.4-1.4-2.5 0-2.7 3.5-4.6 4.5v-5.4a3.5 3.5 0 0 1 7 0v2.3Zm11-.6c-.5-.5-1-.8-1.8-.8-2.4 0-2.7 3.3-4.4 4.4V28a3.1 3.1 0 1 1 6.2 0v7.4Z" />
    <path d="M45.8 35.2c-.9 1.3-1.5 2.8-3.1 2.8-2.8 0-3-4.3-5.8-4.3S34.3 38 31.5 38c-2.8 0-3-4.3-5.7-4.3-2.8 0-2.7 4.3-5.5 4.3s-3-4.3-5.7-4.3c-2.8 0-2.6 4.3-5.4 4.3-1 0-1.5-.4-2-1-2-3.5-3.2-7.6-3.2-12C4 12.4 13.8 2 26 2s22 10.3 22 23c0 3.7-.8 7.2-2.2 10.2Z" fill="#FB70A9" />
    <path d="M41 37.5c5.8-8.5 6-18 .4-28.5a23 23 0 0 1 4.3 26.3c-.9 1.2-1.5 2.7-3.2 2.7-.6 0-1-.2-1.5-.5Z" fill="#E24CA6" />
    <path d="M24.8 30.8c7.7 0 10.9-4.4 10.9-10.7C35.7 13.8 30.8 8 24.8 8S14 13.8 14 20.1s3.3 10.7 11 10.7Z" fill="#FFF" />
    <g transform="translate(17.8 11.5)">
        <ellipse fill="#030776" cx="4.1" cy="4.5" rx="4.1" ry="4.5" />
        <ellipse fill="#FFF" cx="3.4" cy="3.5" rx="2" ry="2.1" />
    </g>
</svg>