<svg xmlns="http://www.w3.org/2000/svg" viewBox="0 0 48 48">
    <defs>
        <linearGradient id="a" gradientUnits="userSpaceOnUse" x1="24.61" y1="47.59" x2="23.59" y2="-.2">
            <stop stop-color="#197ff1" />
            <stop stop-color="#21c6fb" offset="1" />
        </linearGradient>
    </defs>
    <rect height="48" width="48" rx="2.98" fill="url(#a)" fill-rule="evenodd" />
    <path d="M9.03 7.33c-.81-.02-1.51.29-1.88 1.18-.62 1.5.92 2.98 1.47 3.74.4.54.89 1.14 1.16 1.74.19.4.22.8.37 1.22.39 1.03.72 2.15 1.21 3.1.26.5.53 1 .85 1.43.2.27.53.39.58.8-.33.45-.35 1.15-.53 1.73-.82 2.6-.51 5.83.69 7.75.36.6 1.23 1.86 2.42 1.37 1.05-.42.81-1.74 1.11-2.9.07-.26.03-.45.16-.63v.05l.95 1.9c.7 1.13 1.95 2.32 3 3.11.56.42.99 1.13 1.7 1.37v-.05h-.06c-.13-.21-.35-.3-.52-.48-.42-.4-.88-.9-1.22-1.36-.96-1.3-1.8-2.74-2.58-4.22-.37-.71-.7-1.5-1-2.22-.12-.27-.12-.7-.37-.84-.34.53-.84.96-1.1 1.58-.43 1-.48 2.22-.64 3.48-.1.03-.05.01-.1.05-.74-.17-1-.93-1.27-1.58a9.97 9.97 0 0 1-.21-6.17c.15-.48.86-2.02.58-2.48-.14-.45-.6-.7-.85-1.05a8.26 8.26 0 0 1-.84-1.47c-.56-1.28-.83-2.72-1.42-4.01-.29-.62-.77-1.25-1.16-1.8-.44-.6-.93-1.05-1.27-1.8-.12-.25-.28-.67-.1-.94.05-.18.13-.26.31-.31.3-.24 1.16.07 1.48.2.84.36 1.55.7 2.27 1.17.34.22.69.66 1.1.79h.48c.74.17 1.57.05 2.27.26 1.22.37 2.32.95 3.32 1.58a20.56 20.56 0 0 1 7.22 7.91c.28.53.4 1.03.64 1.58.48 1.13 1.1 2.28 1.58 3.38s.95 2.2 1.63 3.1c.36.49 1.75.75 2.38 1 .44.2 1.16.39 1.58.64.8.48 1.57 1.06 2.32 1.58.37.27 1.52.84 1.58 1.32-1.85-.05-3.27.12-4.48.63-.35.15-.9.15-.95.58.19.2.22.5.37.74.29.47.77 1.1 1.21 1.43.48.35.97.74 1.48 1.05.9.55 1.92.87 2.8 1.42.5.33 1.02.74 1.52 1.1.25.2.41.47.74.59v-.05c-.17-.22-.21-.52-.37-.74l-.69-.69a11.24 11.24 0 0 0-2.42-2.32c-.72-.52-2.34-1.21-2.64-2.05l-.05-.06c.5-.05 1.11-.24 1.58-.36.8-.22 1.5-.16 2.32-.37l1.1-.32v-.21c-.4-.43-.7-.99-1.15-1.37a33.51 33.51 0 0 0-3.8-2.85c-.74-.46-1.64-.76-2.42-1.16-.27-.13-.73-.2-.9-.42-.41-.52-.64-1.18-.95-1.8a67.1 67.1 0 0 1-1.9-4c-.4-.92-.66-1.82-1.16-2.64-2.4-3.94-4.97-6.31-8.96-8.65-.85-.5-1.88-.69-2.96-.94l-1.74-.11c-.35-.15-.72-.58-1.05-.8-.83-.51-2.47-1.42-3.82-1.44m5.71 5.72c-.38-.01-.66.04-.95.1v.06h.06c.18.38.5.62.74.95l.52 1.1.06-.05c.32-.23.47-.6.47-1.16-.13-.14-.15-.3-.26-.47-.15-.22-.44-.35-.63-.53z" fill="#def2fe" stroke="#def2fe" stroke-linejoin="bevel" stroke-linecap="square" stroke-width=".4" />
</svg>