<svg viewBox="0 0 32 32" xmlns="http://www.w3.org/2000/svg">
    <circle cx="16" cy="16" r="14" fill="#8892BF" />
    <path fill="#fff" fill-rule="evenodd" stroke="#000" stroke-width="0.1" d="M14.44 10h1.68l-.48 2.52h1.51c.83.02 1.45.2 1.85.56.42.35.54 1.02.37 2l-.82 4.4h-1.7l.78-4.2c.08-.43.06-.75-.07-.93-.13-.19-.41-.28-.84-.28l-1.36-.01-1 5.43H12.7L14.44 10ZM6.74 12.52H10c.96.01 1.66.31 2.09.9.43.6.57 1.4.42 2.42a4.94 4.94 0 0 1-1.15 2.6c-.41.45-.85.74-1.3.86-.47.13-.95.19-1.44.19H7.15L6.7 22H5l1.74-9.48Zm.7 5.48.72-3.96h.53c.65-.02 1.19.05 1.62.19.44.14.58.67.44 1.6-.18 1.1-.53 1.74-1.05 1.93-.52.17-1.17.26-1.95.25h-.17L7.43 18ZM24.44 12.52h-3.27L19.43 22h1.7l.46-2.51h1.46c.5 0 .97-.06 1.44-.19.46-.12.9-.41 1.3-.87a4.94 4.94 0 0 0 1.16-2.59c.14-1.02 0-1.83-.43-2.42-.43-.59-1.13-.89-2.08-.9Zm-1.84 1.52L21.87 18H22.18c.78.02 1.43-.07 1.95-.24.52-.19.87-.83 1.05-1.93.15-.93 0-1.46-.44-1.6a5.05 5.05 0 0 0-1.9-.19h-.24Z" />
</svg>