<svg viewBox="0 0 256 256" xmlns="http://www.w3.org/2000/svg" preserveAspectRatio="xMidYMid">
    <path d="M255 144.3A128 128 0 1 0 1 111.7 128 128 0 0 0 255 144.3Z" fill="#FF6C37" />
    <path d="m174.2 82.2-54 54L105 121c53-53.1 58.3-48.5 69.2-38.8Z" fill="#FFF" />
    <path d="M120.2 137.5c-.4 0-.6-.2-.9-.4l-15.4-15.2c-.5-.6-.5-1.3 0-1.8 54-54 59.7-49 71-38.7.3.3.5.5.5 1 0 .3-.2.6-.4.8l-54 53.9-.8.4ZM106.8 121l13.4 13.4 52-52c-9.4-8.5-15.8-11-65.4 38.6Z" fill="#FF6C37" />
    <path d="M135.7 151.7 121 137l54-54c14.4 14.5-7.2 38.2-39.3 68.7Z" fill="#FFF" />
    <path d="M135.7 153c-.4 0-.7-.2-1-.4l-14.6-14.7c-.3-.3-.3-.6-.3-1 0-.3.1-.6.4-.8l54-54c.5-.6 1.3-.6 1.8 0 3.3 3 5.1 7.4 5 11.9-.3 14.2-16.4 32.2-44.3 58.6a2 2 0 0 1-1 .4Zm-13-16c8.2 8.3 11.7 11.6 13 12.9 21.5-20.5 42.3-41.5 42.5-56 0-3.3-1.2-6.6-3.4-9.2l-52 52.3Z" fill="#FF6C37" />
    <path d="m105.2 121.3 10.9 11c.3.2.3.4 0 .7l-.3.1-22.5 4.9c-1.1.1-2.2-.7-2.4-1.8-.1-.6.1-1.3.5-1.7l13-13c.3-.3.7-.4.8-.2Z" fill="#FFF" />
    <path d="M93 139.3c-2 0-3.4-1.6-3.4-3.5 0-.9.4-1.8 1-2.4l13-13a2 2 0 0 1 2.6 0l11 10.8c.7.6.7 1.8 0 2.6a2 2 0 0 1-1 .5L93.7 139l-.8.2Zm11.8-16.5-12.5 12.5c-.3.3-.4.6-.1 1 0 .4.5.5.9.4l21-4.6-9.3-9.3Z" fill="#FF6C37" />
    <path d="M202.7 52.2c-8.2-7.9-21.3-7.6-29.3.7-7.9 8.3-7.6 21.3.7 29.3 6.8 6.5 17 7.7 25 2.8l-14.5-14.6 18.1-18.2Z" fill="#FFF" />
    <path d="M188.4 89.2a22 22 0 1 1 15.2-37.9c.3.3.4.6.4 1 0 .3-.1.6-.4.8l-17.2 17.3L199.9 84c.5.5.5 1.3 0 1.8l-.2.2c-3.4 2-7.3 3.2-11.3 3.2Zm0-41.3a19.3 19.3 0 0 0-19.3 19.4 19.3 19.3 0 0 0 28 17.3l-13.4-13.3c-.3-.2-.4-.5-.4-.9s.1-.6.4-.9l17.1-17.1a19 19 0 0 0-12.4-4.5Z" fill="#FF6C37" />
    <path d="m203.1 52.6-.2-.2-18.3 18L199 85c1.4-1 2.8-2 4-3.1 8.2-8 8.2-21.1.1-29.2Z" fill="#FFF" />
    <path d="M199.2 86.3c-.4 0-.7-.1-1-.4l-14.5-14.6c-.3-.2-.4-.5-.4-.9s.1-.6.4-.9l18.1-18.2c.6-.5 1.3-.5 1.8 0l.4.3a22.1 22.1 0 0 1-4 34.4l-.8.3Zm-12.8-15.9 12.9 13a19.5 19.5 0 0 0 3.5-29.2l-16.4 16.2Z" fill="#FF6C37" />
    <path d="M176.4 84.5c-3.1-3-8-3-11.2 0L117 132.7l8 8.1L176.2 96A7.9 7.9 0 0 0 177 85l-.5-.4Z" fill="#FFF" />
    <path d="M125 142c-.5 0-.7 0-1-.3l-8-8c-.5-.6-.5-1.3 0-1.9l48.2-48.2a9.1 9.1 0 0 1 13 0 9.1 9.1 0 0 1 0 13c-.2 0-.3.2-.4.3l-51.1 44.8c-.1.2-.4.4-.8.4Zm-6.2-9.3 6.3 6.3 50.1-44c2.8-2.3 3-6.5.8-9.4a6.7 6.7 0 0 0-9.4-.7l-.5.4-47.3 47.4Z" fill="#FF6C37" />
    <path d="M80 187.6c-.5.3-.8.8-.6 1.3l2.1 9.2c.6 1.3-.2 2.8-1.6 3.2-1 .4-2.2 0-2.8-.7l-14.1-14 46-46 15.8.3 10.8 10.8c-2.6 2.2-18 17.1-55.6 36Z" fill="#FFF" />
    <path d="M79 202.6c-1 0-2-.4-2.7-1.1l-14-14c-.2-.2-.3-.5-.3-.9s0-.6.3-.9l46-46c.2-.2.6-.3.9-.3l15.9.2c.3 0 .6.2.9.4l10.7 10.8c.3.2.4.6.4 1s-.1.6-.5.9l-1 .8a258.1 258.1 0 0 1-54.8 35.2l2.2 9a4 4 0 0 1-2 4.4c-.7.4-1.4.5-2 .5Zm-14-16 13 13c.5.7 1.2 1 1.9.6.6-.4.9-1.2.5-1.8l-2.2-9.2c-.2-1.2.3-2.2 1.3-2.7a267 267 0 0 0 54.4-34.8l-9.5-9.5-14.7-.3-44.8 44.7Z" fill="#FF6C37" />
    <path d="m52.1 197.6 11-11L79.5 203l-26.1-1.8a2 2 0 0 1-1.8-2.3c0-.5.1-1 .5-1.3Z" fill="#FFF" />
    <path d="m79.5 204.1-26.2-1.7c-2-.2-3.2-1.8-3.1-3.8.1-.7.4-1.5 1-2l11-11c.5-.5 1.3-.5 1.8 0L80.4 202c.4.4.5.9.2 1.4-.2.5-.6.7-1.1.7Zm-16.4-15.7-10 10.1c-.5.3-.5 1 0 1.2l.4.2 22.7 1.6-13-13ZM104.5 146.6c-.8 0-1.3-.7-1.3-1.3 0-.4.1-.7.4-1L116 132c.5-.5 1.2-.5 1.8 0l8 8c.4.4.5.8.4 1.3-.1.4-.5.8-1 1l-20.5 4.3h-.2Zm12.4-12-8.5 8.5 13.8-3-5.3-5.4Z" fill="#FF6C37" />
    <path d="m124.8 141-14 3a2 2 0 0 1-1.9-3.2l7.8-7.8 8.1 8Z" fill="#FFF" />
    <path d="M110.5 145.3a3.2 3.2 0 0 1-3.2-3.2c0-1 .4-1.7.9-2.3l7.8-7.8c.5-.5 1.2-.5 1.8 0l8 8c.4.4.5.8.4 1.3-.1.4-.5.8-1 1l-14 3h-.7Zm6.4-10.6-7 6.9c-.2.2-.2.5 0 .7 0 .3.3.4.7.4l11.8-2.5-5.5-5.5ZM203.3 65c-.3-.9-1.2-1.2-2-1-.7.3-1.1 1.2-.9 2l.2.3c.7 1.6.5 3.5-.5 4.9-.6.6-.4 1.5 0 2 .7.5 1.6.4 2.1-.2 2-2.5 2.3-5.5 1-8Z" fill="#FF6C37" />
</svg>