<svg xmlns="http://www.w3.org/2000/svg" viewBox="12 41 78 76">
    <g fill-rule="evenodd" clip-rule="evenodd">
        <!-- <rect width="192.8" height="192.8" rx="20%" fill="#fff" /> -->

        <!-- <path d="M42.8 134v1.8c0 1.5.5 2.8 2.4 2.8 1.4 0 2-1.3 2-2.6 0-2.2-1.8-3-3.4-4-1.8-1-3.4-2-4.5-3.3a7.5 7.5 0 0 1-1.8-5.2c0-4.8 3-7.3 7.6-7.3 5.3 0 8 3.5 7.7 8.4h-5.6c0-1.6 0-3.6-2-3.7-1.2-.2-2 .5-2 1.7-.3 1.5.5 2.3 1.7 3.1 2.3 1.5 4.3 2.4 5.7 3.7 1.4 1.3 2.2 3 2.2 6.1 0 5-2.8 7.7-7.8 7.7-5.5 0-7.8-3.1-7.8-6.5V134h5.6zm11.7-4.6c0-5 3-6.6 7.2-6.6 4.8 0 7 2.3 7 6.6v7.8c-.2 4.4-2.9 6-7 6-4 0-7.2-1.6-7.2-6v-7.8zm5.5 8.2c0 1 .5 1.6 1.7 1.6 1 0 1.5-.5 1.6-1.6V129c0-1.2-.4-2.2-1.6-2.2-1.3 0-1.7 1-1.7 2.2v8.6zm11-20.8h5.4v25.8h-5.5v-25.8zm8 6.6h5.5v19.2h-5.4v-19.2zm0-11.2h5.5v4.6h-5.4v-4.6zm17 30.4v-2.3c-1 1.9-2.7 2.9-4.3 2.9-4-.2-4.7-3.9-4.7-7.2v-6.6c0-3 1-6.6 4.6-6.6 1.5 0 2.9.6 4 2.3v-8.3h5.5v25.8h-5zm-3.6-7c0 1.2 0 3.1 1.6 3.1 1.5 0 1.7-1.4 1.7-3.3v-4.5c0-1.7-.3-3.7-1.6-3.6-1.8 0-1.7 2.1-1.7 3.4v5zm19 7h-3.6l-5.4-25.8h3.1l3.4 17.8c.3 1.7.5 3.5.7 6h.1c.2-2 .4-4 .8-5.8l3.8-18h3.5l3.4 17.8.8 6c.3-2 .5-4 .9-5.8l3.7-18h3.2l-6 25.8h-3.6l-3.4-17.5c-.4-1.7-.6-3.4-.8-6.2a59 59 0 0 1-.9 6.2l-3.7 17.5zm24.4.5c-4.1 0-6.8-2.5-6.8-10.7 0-5.8 2.1-9.4 6.8-9.4 4.7 0 6.8 3.6 6.8 9.4 0 8.2-2.6 10.7-6.8 10.7zm0-17.8c-2.8 0-4 2.2-4 8 0 4.4.9 7.5 4 7.5 3.2 0 4-3 4-7.6 0-5.7-1.1-8-4-8zm12 1.3c1.2-2.5 2.8-3.6 5.6-3.3v2.7c-3.5-.7-5.5 1.5-5.5 5v11.6h-2.7v-19.1h2.6v3.1zm7.6 16v-25.8h2.7v15.6l6.6-8.9h3.2l-5.9 7.4 6 11.7h-3L160 133l-2 2.7v6.8h-2.7zm21.8-14c0-2.3-.8-3.3-3-3.3-2 0-3 .9-3 2.9 0 2.4 2 2.7 3.8 3.5 2.7 1.3 5.5 2 5.5 5.5 0 3.7-2.6 6-6.5 5.9-1.6 0-3.7-.6-4.7-2-1.1-1.5-1-2.8-1-4h2.5c0 2.2.7 3.7 3.2 3.7 2.2 0 3.7-1 3.7-3.2 0-2.7-2.8-3-4.7-3.8-3-1.1-4.7-2.1-4.7-5.4 0-3.3 2.3-5.4 5.6-5.4 3.8 0 6 1.7 5.9 5.6h-2.6z" fill="#c9222f" /> -->
        <path d="M48.6 78.5c-10.2-3-21.4-.4-23 0-2.6.7-4.1 1.4-4 2.2 0 .6.7 1 3.9 1 7.5-.2 13.7 0 17.7 1.1 4.8 1.4 5.5 4 3 8.9a26.8 26.8 0 0 1-5.2 7.1c-5 5-11.3 8.3-14.8 10-3.4 1.8-4.7.9-4.3-.8.5-2.1 10.2-19 10.2-19 .7-1.2.8-2.4 0-2.8-.8-.3-2 .8-3.5 2.4a196.6 196.6 0 0 0-16.3 27.2c-.2.6.3.7.5.7 4.4 0 31.6-8 40.3-24.5 4.7-8.6 2.3-11.5-4.5-13.5z" fill="#423a90" />
        <path d="M62.1 70.6c-5.5 4.8 2.6 12.6 6.5 17 3.7 4.4 8.2 10 8.4 11.8.1.9 0 1.9-1.1 2.5-1.7 1-8.7 2.1-23.3 2.1-3.2 0-3.8.3-3.9.9 0 .3-.1 1 3.9 2 .1 0 16.7 3 25.5 0 9-3.1 6.8-8.3 5.1-11.3-2.5-4.6-14-18-14.9-20-.9-1.6.4-2.4.4-2.4S70.7 71 86 71c3.1 0 3.8-.3 3.9-.8 0-.5-.9-1.5-3.9-2.2-2.8-.6-17.3-3-23.9 2.6z" fill="#df9f38" />
        <path d="M42.3 42.7c-1.2.3-3.7 1-3.5 2 .2.5.7.8 3.5.8a87 87 0 0 1 14.8 1c7 1.2 5.3 4.7 3.3 8a77.7 77.7 0 0 1-18.4 18c-1 .6-.4 1 .4.7 10.5-4 21-10.6 25.3-18.8 3.6-7 1-10.2-4.5-11.7-9.8-2.8-20-.3-20.9 0z" fill="#c9222f" />
    </g>
</svg>