<svg viewBox="0 0 256 256" xmlns="http://www.w3.org/2000/svg">
    <path d="M246 27 194 2c-6-3-14-2-19 3L5 162a11 11 0 0 0 0 15l14 13c3 3 9 4 13 1L238 33c7-5 17 0 17 9v-1a16 16 0 0 0-9-14Z" fill="#0065A9" />
    <path d="m246 227-52 25c-6 3-14 2-19-3L5 92a11 11 0 0 1 0-16l14-12c3-4 9-4 13-1l207 157c7 5 17 0 17-8a16 16 0 0 1-9 15Z" fill="#007ACC" />
    <path d="M193 252c-6 3-13 2-18-3a9 9 0 0 0 16-7V11c0-8-10-12-16-6 5-5 12-6 18-3l53 25a16 16 0 0 1 9 14v172a16 16 0 0 1-9 14l-53 25Z" fill="#1F9CF0" />
</svg>