<?xml version="1.0" standalone="no"?>
<!DOCTYPE svg PUBLIC "-//W3C//DTD SVG 20010904//EN"
 "http://www.w3.org/TR/2001/REC-SVG-20010904/DTD/svg10.dtd">
<svg version="1.0" xmlns="http://www.w3.org/2000/svg"
 width="700.000000pt" height="700.000000pt" viewBox="0 0 700.000000 700.000000"
 preserveAspectRatio="xMidYMid meet">
<metadata>
Created by potrace 1.14, written by Peter Selinger 2001-2017
</metadata>
<g transform="translate(0.000000,700.000000) scale(0.100000,-0.100000)"
fill="#000000" stroke="none">
<path d="M1278 6990 c-635 -58 -1145 -529 -1255 -1160 -17 -100 -18 -222 -18
-2330 0 -2108 1 -2230 18 -2330 103 -591 554 -1042 1147 -1146 100 -18 209
-19 2330 -19 2108 0 2230 1 2330 18 590 103 1044 557 1147 1147 17 100 18 222
18 2330 0 2108 -1 2230 -18 2330 -102 586 -546 1034 -1137 1147 -90 17 -214
18 -2285 19 -1204 1 -2229 -2 -2277 -6z m1822 -2194 c170 -56 267 -159 301
-317 27 -123 13 -189 -166 -829 -92 -327 -169 -598 -172 -602 -2 -5 -168 -8
-368 -8 -200 0 -366 3 -368 8 -3 4 62 250 144 547 82 297 150 549 152 560 2
20 -5 20 -519 23 -502 2 -521 1 -538 -17 -25 -28 -366 -1272 -353 -1288 7 -10
201 -13 908 -13 495 0 899 -1 899 -3 0 -14 -53 -153 -75 -197 -74 -148 -204
-283 -334 -348 -149 -75 -125 -73 -1041 -70 l-815 3 -59 23 c-33 12 -78 33
-101 46 -51 30 -127 110 -153 162 -29 56 -45 149 -37 208 3 28 83 332 176 676
94 344 188 693 211 775 67 245 141 382 275 504 85 78 218 147 323 166 60 11
228 13 865 11 734 -2 794 -3 845 -20z m1234 16 c2 -4 59 -325 126 -712 108
-623 121 -708 109 -728 -26 -43 -624 -881 -629 -882 -6 0 -371 2291 -370 2318
0 9 83 12 379 12 209 0 382 -3 385 -8z m2262 -7 c-3 -8 -420 -589 -928 -1290
l-922 -1275 -379 0 -378 0 22 33 c13 17 172 241 354 497 182 256 582 822 889
1258 l559 792 395 0 c347 0 393 -2 388 -15z"/>
</g>
</svg>
