<svg viewBox="0 -4 48 48" xmlns="http://www.w3.org/2000/svg">
    <path fill="#00aaec" d="M48 4.74c-1.76.8-3.66 1.34-5.65 1.58A10.08 10.08 0 0 0 46.68.74c-1.9 1.16-4.01 2-6.26 2.45A9.71 9.71 0 0 0 33.23 0a9.97 9.97 0 0 0-9.84 10.1c0 .79.08 1.56.25 2.3A27.73 27.73 0 0 1 3.34 1.84 10.28 10.28 0 0 0 6.4 15.33a9.67 9.67 0 0 1-4.46-1.26v.12c0 4.9 3.4 8.98 7.9 9.9a9.39 9.39 0 0 1-4.45.18 9.89 9.89 0 0 0 9.2 7.01A19.44 19.44 0 0 1 0 35.47 27.42 27.42 0 0 0 15.1 40C33.2 40 43.1 24.62 43.1 11.27c0-.44 0-.88-.02-1.3C45 8.53 46.69 6.76 48 4.73" />
</svg>